<?xml version="1.0" encoding="UTF-8" standalone="no"?>
<!-- Created with Inkscape (http://www.inkscape.org/) -->

<svg
   xmlns:dc="http://purl.org/dc/elements/1.1/"
   xmlns:cc="http://creativecommons.org/ns#"
   xmlns:rdf="http://www.w3.org/1999/02/22-rdf-syntax-ns#"
   xmlns:svg="http://www.w3.org/2000/svg"
   xmlns="http://www.w3.org/2000/svg"
   xmlns:sodipodi="http://sodipodi.sourceforge.net/DTD/sodipodi-0.dtd"
   xmlns:inkscape="http://www.inkscape.org/namespaces/inkscape"
   id="svg3081"
   version="1.1"
   inkscape:version="0.48.3.1 r9886"
   width="602.3625"
   height="272.835"
   xml:space="preserve"
   sodipodi:docname="Logo GRHIS-univ.pdf"><metadata
     id="metadata3087"><rdf:RDF><cc:Work
         rdf:about=""><dc:format>image/svg+xml</dc:format><dc:type
           rdf:resource="http://purl.org/dc/dcmitype/StillImage" /><dc:title></dc:title></cc:Work></rdf:RDF></metadata><defs
     id="defs3085"><clipPath
       clipPathUnits="userSpaceOnUse"
       id="clipPath3097"><path
         d="m 0,0 481.89,0 0,218.268 L 0,218.268 0,0 z"
         id="path3099" /></clipPath></defs><sodipodi:namedview
     pagecolor="#ffffff"
     bordercolor="#666666"
     borderopacity="1"
     objecttolerance="10"
     gridtolerance="10"
     guidetolerance="10"
     inkscape:pageopacity="0"
     inkscape:pageshadow="2"
     inkscape:window-width="1920"
     inkscape:window-height="1056"
     id="namedview3083"
     showgrid="false"
     inkscape:zoom="0.70887548"
     inkscape:cx="301.18124"
     inkscape:cy="136.4175"
     inkscape:window-x="0"
     inkscape:window-y="24"
     inkscape:window-maximized="1"
     inkscape:current-layer="g3089" /><g
     id="g3089"
     inkscape:groupmode="layer"
     inkscape:label="Logo GRHIS-univ"
     transform="matrix(1.25,0,0,-1.25,0,272.835)"><g
       id="g3093"><g
         id="g3095"
         clip-path="url(#clipPath3097)"><g
           id="g3101"
           transform="translate(126.6608,18.16)"><path
             d="m 0,0 c 50.651,0 91.713,41.061 91.713,91.713 0,50.651 -41.062,91.712 -91.713,91.712 -50.651,0 -91.713,-41.061 -91.713,-91.712 C -91.713,41.061 -50.651,0 0,0 z"
             style="fill:none;stroke:#8496af;stroke-opacity:1;stroke-width:15;stroke-linecap:butt;stroke-linejoin:miter;stroke-miterlimit:1;stroke-dasharray:none"
             id="path3103" /></g><g
           id="g3105"
           transform="translate(241.3054,22.4957)"><path
             d="m 0,0 c 48.166,0 87.213,39.046 87.213,87.213 0,48.166 -39.047,87.212 -87.213,87.212 -48.166,0 -87.213,-39.046 -87.213,-87.212 C -87.213,39.046 -48.166,0 0,0 z"
             style="fill:none;stroke:#9bb1ce;stroke-opacity:1;stroke-width:24;stroke-linecap:butt;stroke-linejoin:miter;stroke-miterlimit:1;stroke-dasharray:none"
             id="path3107" /></g><g
           id="g3109"
           transform="translate(358.1647,29.7585)"><path
             d="m 0,0 c 44.576,0 80.713,36.136 80.713,80.713 0,44.576 -36.137,80.712 -80.713,80.712 -44.576,0 -80.713,-36.136 -80.713,-80.712 C -80.713,36.136 -44.576,0 0,0 z"
             style="fill:none;stroke:#b3cded;stroke-opacity:1;stroke-width:37;stroke-linecap:butt;stroke-linejoin:miter;stroke-miterlimit:1;stroke-dasharray:none"
             id="path3111" /></g><text
           transform="matrix(1,0,0,-1,3.4205,55.1968)"
           id="text3113"><tspan
             style="fill:#231f20;fill-opacity:1;fill-rule:nonzero;stroke:none;font-family:Arial;font-variant:normal;font-weight:bold;font-stretch:normal;font-size:150;writing-mode:lr;-inkscape-font-specification:Arial-BoldMT"
             x="0 116.7 225"
             y="0"
             sodipodi:role="line"
             id="tspan3115">GRH</tspan></text>
</g></g><text
       transform="matrix(1,0,0,-1,336.7457,55.1968)"
       id="text3117"><tspan
         style="fill:#231f20;fill-opacity:1;fill-rule:nonzero;stroke:none;font-family:Arial;font-variant:normal;font-weight:normal;font-stretch:normal;font-size:150;writing-mode:lr;-inkscape-font-specification:ArialMT"
         x="0 41.7"
         y="0"
         sodipodi:role="line"
         id="tspan3119">IS</tspan></text>
<text
       transform="matrix(1,0,0,-0.9,7.196,13.1968)"
       id="text3121"><tspan
         style="fill:#231f20;fill-opacity:1;fill-rule:nonzero;stroke:none;font-family:Arial;font-variant:normal;font-weight:normal;font-stretch:normal;font-size:30;writing-mode:lr;-inkscape-font-specification:ArialMT"
         x="0 21.84 43.47 51.9 72.12 91.83 113.22 133.11 141.27 159.6 179.31 187.35 209.13 228.84 236.88 258.21 281.64 303.45 323.19 344.55"
         y="0"
         sodipodi:role="line"
         id="tspan3123">UNIVERSITÉ DE ROUEN </tspan></text>
<text
       transform="matrix(1,0,0,-0.9,359.786,13.1968)"
       id="text3125"><tspan
         style="fill:#231f20;fill-opacity:1;fill-rule:nonzero;stroke:none;font-family:Arial;font-variant:normal;font-weight:bold;font-stretch:normal;font-size:30;writing-mode:lr;-inkscape-font-specification:Arial-BoldMT"
         x="0 19.71 41.07 49.11 65.49 81.87 98.25"
         y="0"
         sodipodi:role="line"
         id="tspan3127">EA 3831</tspan></text>
</g></svg>