<?xml version="1.0" encoding="UTF-8" standalone="no"?>
<!-- Created with Inkscape (http://www.inkscape.org/) -->

<svg
   xmlns:dc="http://purl.org/dc/elements/1.1/"
   xmlns:cc="http://creativecommons.org/ns#"
   xmlns:rdf="http://www.w3.org/1999/02/22-rdf-syntax-ns#"
   xmlns:svg="http://www.w3.org/2000/svg"
   xmlns="http://www.w3.org/2000/svg"
   xmlns:sodipodi="http://sodipodi.sourceforge.net/DTD/sodipodi-0.dtd"
   xmlns:inkscape="http://www.inkscape.org/namespaces/inkscape"
   width="87.275497"
   height="150"
   id="svg2460"
   sodipodi:version="0.32"
   inkscape:version="0.48.3.1 r9886"
   version="1.0"
   sodipodi:docname="region_h-n.svg"
   inkscape:output_extension="org.inkscape.output.svg.inkscape">
  <defs
     id="defs2462">
    <inkscape:perspective
       sodipodi:type="inkscape:persp3d"
       inkscape:vp_x="0 : 526.18109 : 1"
       inkscape:vp_y="0 : 1000 : 0"
       inkscape:vp_z="744.09448 : 526.18109 : 1"
       inkscape:persp3d-origin="372.04724 : 350.78739 : 1"
       id="perspective2468" />
  </defs>
  <sodipodi:namedview
     id="base"
     pagecolor="#ffffff"
     bordercolor="#666666"
     borderopacity="1.0"
     inkscape:pageopacity="0.0"
     inkscape:pageshadow="2"
     inkscape:zoom="6.7985987"
     inkscape:cx="4.5855847"
     inkscape:cy="94.508237"
     inkscape:document-units="px"
     inkscape:current-layer="layer1"
     showgrid="false"
     inkscape:window-width="1920"
     inkscape:window-height="1056"
     inkscape:window-x="0"
     inkscape:window-y="24"
     fit-margin-top="0"
     fit-margin-left="0"
     fit-margin-right="0"
     fit-margin-bottom="0"
     inkscape:window-maximized="1" />
  <metadata
     id="metadata2465">
    <rdf:RDF>
      <cc:Work
         rdf:about="">
        <dc:format>image/svg+xml</dc:format>
        <dc:type
           rdf:resource="http://purl.org/dc/dcmitype/StillImage" />
      </cc:Work>
    </rdf:RDF>
  </metadata>
  <g
     inkscape:label="Calque 1"
     inkscape:groupmode="layer"
     id="layer1"
     transform="translate(-287.79082,-414.50504)">
    <path
       d="m 321.42176,415.8737 c 0,0 -2.91405,1.12388 -6.98717,1.12388 -4.07061,0 -10.58761,-1.46582 -13.68017,-1.62925 -3.09507,-0.16092 -10.1275,-0.20869 -11.98555,1.77005 0,0 -0.2816,2.21256 -0.49531,4.09827 -0.2112,1.88822 0.5808,7.78922 1.40296,14.0045 0.82217,6.21529 1.3904,15.12085 0.0453,20.02117 -1.34765,4.90033 -0.73668,16.34782 -0.37211,19.08838 0.36708,2.73804 1.9561,20.17957 -1.46331,27.34776 l 33.39963,0 0,-24.9064 c 0,0 -7.70626,-1.46331 -11.43241,-0.16856 0,0 -0.63108,-6.36363 -0.1408,-9.13184 0.48777,-2.76822 0.73417,-5.85072 0.73417,-5.85072 0,0 8.08591,0.0805 11.00498,0.6864 l -0.0302,-46.45374"
       style="fill:#00a650;fill-opacity:1;fill-rule:nonzero;stroke:none"
       id="path31"
       inkscape:connector-curvature="0" />
    <path
       d="m 330.72457,486.2231 0,15.63628 c 0,0 1.62925,-1.01577 5.86329,-0.16092 3.60296,0.72663 9.60956,-0.32685 11.07538,-0.49028 1.46582,-0.16091 8.30717,-0.48777 15.47536,0.32686 7.16568,0.81462 11.84726,-0.92526 11.84726,-0.92526 l 0,-15.36222 c 0,0 -2.8889,1.3024 -5.16934,1.9536 -2.28045,0.65119 -5.86581,1.30239 -11.7291,-0.48777 -5.86328,-1.79268 -8.95836,-1.14148 -12.05343,-0.32686 -3.09507,0.81463 -8.46808,1.46582 -10.74852,0.81463 -2.28045,-0.6512 -4.5609,-0.97806 -4.5609,-0.97806"
       style="fill:#007dc5;fill-opacity:1;fill-rule:nonzero;stroke:none"
       id="path33"
       inkscape:connector-curvature="0" />
    <path
       d="m 375.02861,481.17444 0,-5.21209 c 0,0 -3.17553,1.30239 -6.19015,0.97805 -3.01461,-0.32686 -6.19014,-1.30491 -12.70463,-2.28045 -6.51448,-0.97805 -12.24703,1.144 -15.00016,1.46834 -2.75313,0.32183 -7.85962,0.31931 -9.37824,-0.41234 l 0,4.64386 c 0,0 3.20318,1.14148 10.04452,0.48777 6.84134,-0.65119 8.72454,-2.3609 13.68269,-1.13896 4.95815,1.22193 10.42418,2.25027 11.89,2.28044 4.15358,0.0805 7.65597,-0.81462 7.65597,-0.81462"
       style="fill:#007dc5;fill-opacity:1;fill-rule:nonzero;stroke:none"
       id="path35"
       inkscape:connector-curvature="0" />
    <path
       d="m 374.72187,472.59071 0.14341,-4.93553 c 0,0 -1.62925,1.13897 -3.58284,0.6512 -1.95611,-0.48777 -9.09162,-1.02331 -11.63104,-0.67382 -2.53941,0.34948 -13.12702,1.65187 -17.85135,1.32502 0,0 -10.48955,0.28411 -17.46163,-1.64937 -6.97209,-1.93347 -11.97549,-1.34765 -11.97549,-1.34765 0,0 -1.47085,4.94055 -0.51292,6.25049 l 62.87196,0.37966"
       style="fill:#007dc5;fill-opacity:1;fill-rule:nonzero;stroke:none"
       id="path37"
       inkscape:connector-curvature="0" />
    <path
       d="m 323.88323,456.08952 0,5.53895 c 0,0 -0.49028,0.97805 1.62925,1.79268 2.11702,0.81211 10.31858,2.8361 17.37615,-1.02583 0,0 -9.39584,-7.12042 -19.0054,-6.3058"
       style="fill:#ed1c24;fill-opacity:1;fill-rule:nonzero;stroke:none"
       id="path39"
       inkscape:connector-curvature="0" />
    <path
       d="m 367.70955,462.68949 6.253,0 c 0,0 -0.15588,-2.06925 -0.18605,-4.91038 l -0.002,-0.35451 c -0.0141,-2.47153 0.0728,-5.46352 0.43999,-8.17642 0.39475,-2.93165 0.34949,-6.72569 0.19612,-9.84841 -0.16092,-3.29622 -0.44,-5.84318 -0.44,-5.84318 l -0.0453,0 -0.15327,-4.69415 0.0302,-0.21874 c -0.12068,-1.57897 -0.81713,-11.17092 -0.22879,-13.26783 0,0 -9.45871,0.15589 -18.41707,-0.49531 -8.95836,-0.6512 -20.13682,-0.30674 -22.04013,-0.0704 -1.9033,0.23383 -9.32293,0.69645 -9.32293,0.69645 0,0 -0.86994,7.26877 0.098,15.37479 0.44754,3.73873 0.53302,6.50695 0.50285,8.51837 -0.0326,2.35336 -0.22628,3.67335 -0.18605,4.31198 0,0 -0.008,0.59588 -0.0251,2.53439 -0.0453,0.66125 4.47038,-2.13965 4.60867,-2.74559 0,0 -1.83291,-1.5136 -1.97622,-2.39611 -0.13316,-0.82468 0.37965,-1.61165 0.44503,-1.70467 l 0.004,-0.008 c 0,0 2.2025,-2.47153 2.34079,-6.56729 0,0 -2.61736,-1.79016 -3.0297,-3.35152 0,0 4.45781,-7.45734 5.60683,-7.44226 0,0 -1.17417,-1.68708 -0.50286,-2.2201 0,0 1.97622,0.77188 2.62742,0.93279 0.6512,0.16353 3.9097,0 6.19015,-0.32434 2.28044,-0.32685 3.80912,1.35771 3.53255,2.63245 0,0 4.93552,0.62354 3.4697,3.88204 0,0 -0.16091,2.48913 -3.90718,1.32754 0,0 -3.9097,-0.67634 -4.07313,2.2553 -0.16353,2.93164 1.62925,3.09507 1.62925,3.09507 0,0 1.90834,0.55063 2.37851,1.6192 0,0 0.80708,2.00639 -1.40045,2.45393 -2.21005,0.44502 -2.60731,0.48777 -2.60731,0.48777 0,0 0.95291,0.45005 2.36091,1.22696 3.21575,1.77508 8.81002,5.25987 10.90943,9.01368 l -4.95814,0.67131 c 0,0 6.341,7.54785 11.96291,9.88361 0,0 0.616,1.13645 4.64638,0.0529 4.02787,-1.08114 5.37552,-1.30239 5.37552,-1.30239 0,0 -2.09439,2.93416 -2.10696,4.97072"
       style="fill:#ed1c24;fill-opacity:1;fill-rule:nonzero;stroke:none"
       id="path41"
       inkscape:connector-curvature="0" />
    <path
       d="m 373.81924,428.86244 c -1.69965,-0.83725 -3.02719,-2.25279 -2.90399,-3.21827 0.1231,-0.96297 0.7392,-2.46902 0.7392,-2.46902 -1.90582,-0.50034 -8.10602,2.98696 -8.10602,2.98696 l -0.9504,-2.87382 c -2.65759,1.23954 -3.53255,7.22854 -3.53255,7.22854 -0.8272,3.30627 -5.25232,7.06511 -7.6258,8.88294 -0.90262,0.69142 -1.50856,1.10376 -1.50856,1.10376 l 4.25415,4.79472 c 0.82217,-0.53051 7.48751,-5.33277 10.7435,-5.16935 3.06238,0.15086 3.67587,-0.63359 3.74124,-0.72913 0.002,-0.006 0.004,-0.008 0.004,-0.008 -0.32686,-7.41711 5.29506,-5.83563 5.29506,-5.83563 l -0.15085,-4.69415"
       style="fill:#fff200;fill-opacity:1;fill-rule:nonzero;stroke:none"
       id="path43"
       inkscape:connector-curvature="0" />
    <path
       d="m 342.06898,430.98449 c 0,0 2.49919,-0.62857 6.57231,1.48845 4.07062,2.11702 4.60616,1.67451 4.60616,1.67451 0,0 -2.81599,3.21072 -5.42078,1.58147 -2.6073,-1.62673 -3.86193,-3.62809 -5.75769,-4.74443"
       style="fill:#fff200;fill-opacity:1;fill-rule:nonzero;stroke:none"
       id="path45"
       inkscape:connector-curvature="0" />
    <path
       d="m 324.18243,446.22351 c -0.0227,3.07998 -0.0829,8.10602 -0.30171,9.86601 9.60956,-0.81462 19.0054,6.3058 19.0054,6.3058 0,0 16.19947,-3.20821 24.82092,0.29417 0.0101,-2.03656 2.10696,-4.97072 2.10696,-4.97072 0,0 -1.34765,0.22126 -5.37552,1.30239 -4.03038,1.08366 -4.64638,-0.0529 -4.64638,-0.0529 -5.62443,-2.33576 -11.96292,-9.88361 -11.96292,-9.88361 l 4.95815,-0.67131 c -2.09942,-3.75381 -7.69619,-7.2386 -10.90943,-9.01368 -1.41051,-0.77691 -2.36091,-1.22696 -2.36091,-1.22696 0,0 0.39726,-0.0428 2.60479,-0.48777 2.20753,-0.44754 1.40297,-2.45393 1.40297,-2.45393 -0.47017,-1.06857 -2.37851,-1.6192 -2.37851,-1.6192 0,0 -1.79268,-0.16332 -1.62925,-3.09507 0.16353,-2.93164 4.07313,-2.2553 4.07313,-2.2553 3.74627,1.16159 3.90718,-1.32754 3.90718,-1.32754 1.46582,-3.2585 -3.4697,-3.88204 -3.4697,-3.88204 0.27657,-1.27474 -1.25462,-2.9593 -3.53256,-2.63244 -2.28044,0.32434 -5.53894,0.48776 -6.19014,0.32434 -0.6512,-0.16092 -2.62742,-0.9328 -2.62742,-0.9328 -0.67131,0.53303 0.50034,2.22011 0.50034,2.22011 -1.14651,-0.0141 -5.60431,7.44225 -5.60431,7.44225 0.40982,1.56136 3.0297,3.35153 3.0297,3.35153 -0.13839,4.09575 -2.34079,6.56728 -2.34079,6.56728 l -0.008,0.008 c -0.0628,0.0929 -0.57577,0.87999 -0.44251,1.70468 0.1408,0.88251 1.97622,2.3961 1.97622,2.3961 -0.13819,0.60594 -4.65141,3.38673 -4.60615,2.72296"
       style="fill:#fff200;fill-opacity:1;fill-rule:nonzero;stroke:none"
       id="path47"
       inkscape:connector-curvature="0" />
    <path
       d="m 287.88385,506.73456 2.83861,0 c 2.67519,0 2.94925,0.71405 2.94925,3.61049 0,1.77508 -0.23634,2.54445 -1.73988,3.00456 l 0,0.0352 c 1.24708,0.12833 1.66696,0.76937 1.66696,2.01645 l 0,2.87633 c 0,0.4752 0,1.13645 0.11063,1.68456 l -1.72228,0 c -0.18364,-0.32937 -0.22125,-0.65874 -0.22125,-1.18925 l 0,-2.98696 c 0,-1.24708 -0.21874,-1.57645 -1.42811,-1.57645 l -0.62354,0 0,5.75266 -1.83039,0 0,-13.22759 z m 1.83039,5.9362 0.47771,0 c 1.44571,0 1.64937,-0.27406 1.64937,-2.25279 0,-1.96114 -0.11063,-2.14468 -1.24708,-2.14468 l -0.88,0 0,4.39747"
       style="fill:#000000;fill-opacity:1;fill-rule:nonzero;stroke:none"
       id="path49"
       inkscape:connector-curvature="0" />
    <path
       d="m 305.0488,506.73456 4.98329,0 0,1.53873 -3.15038,0 0,4.14101 2.96684,0 0,1.53874 -2.96684,0 0,4.47038 3.15038,0 0,1.53873 -4.98329,0 0,-13.22759"
       style="fill:#000000;fill-opacity:1;fill-rule:nonzero;stroke:none"
       id="path51"
       inkscape:connector-curvature="0" />
    <path
       d="m 324.5998,510.23443 0,-0.67886 c 0,-0.93279 -0.4576,-1.50102 -1.17165,-1.50102 -0.8448,0 -1.26468,0.76937 -1.26468,2.17988 l 0,6.66785 c 0,1.06354 0.51291,1.74239 1.26468,1.74239 0.51291,0 0.93279,-0.0754 1.17165,-0.12832 l 0,-3.88456 -1.20937,0 0,-1.53873 3.04228,0 0,6.65025 c -0.71657,0.16353 -1.97874,0.32937 -3.02468,0.32937 -2.3257,0 -3.07747,-1.22696 -3.07747,-3.27861 l 0,-6.68797 c 0,-2.47405 0.75177,-3.48227 3.11519,-3.48227 1.95862,0 2.98696,0.71656 2.98696,2.40113 l 0,1.20937 -1.83291,0"
       style="fill:#000000;fill-opacity:1;fill-rule:nonzero;stroke:none"
       id="path53"
       inkscape:connector-curvature="0" />
    <path
       d="m 338.12408,519.96215 1.83211,0 0,-13.22759 -1.83211,0 0,13.22759 z"
       style="fill:#000000;fill-opacity:1;fill-rule:nonzero;stroke:none"
       id="path55"
       inkscape:connector-curvature="0" />
    <path
       d="m 351.59557,510.1062 c 0,-1.85051 0.60342,-3.48227 3.09507,-3.48227 2.36342,0 3.11519,1.22948 3.11519,3.28113 l 0,6.68545 c 0,1.85051 -0.60343,3.48227 -3.11519,3.48227 -2.3433,0 -3.09507,-1.22696 -3.09507,-3.27861 l 0,-6.68797 z m 1.83039,6.79608 c 0,1.13645 0.51291,1.74239 1.26468,1.74239 0.76937,0 1.28228,-0.60594 1.28228,-1.74239 l 0,-6.94191 c 0,-1.30239 -0.44,-1.90582 -1.28228,-1.90582 -0.82468,0 -1.26468,0.60343 -1.26468,1.90582 l 0,6.94191"
       style="fill:#000000;fill-opacity:1;fill-rule:nonzero;stroke:none"
       id="path57"
       inkscape:connector-curvature="0" />
    <path
       d="m 368.61721,506.73456 2.52936,0 2.16227,10.9924 0.0352,0 0,-10.9924 1.72228,0 0,13.22759 -2.63747,0 -2.16228,-11.28406 -0.0352,0 0,11.28406 -1.61416,0 0,-13.22759"
       style="fill:#000000;fill-opacity:1;fill-rule:nonzero;stroke:none"
       id="path59"
       inkscape:connector-curvature="0" />
    <path
       d="m 287.79082,523.76122 2.5369,0 0,7.86465 3.37416,0 0,-7.86465 2.5369,0 0,18.31398 -2.5369,0 0,-8.31973 -3.37416,0 0,8.31973 -2.5369,0 0,-18.31398"
       style="fill:#000000;fill-opacity:1;fill-rule:nonzero;stroke:none"
       id="path61"
       inkscape:connector-curvature="0" />
    <path
       d="m 310.64809,523.76122 2.9417,0 3.73118,18.31398 -2.5369,0 -0.83725,-4.66649 -3.95747,0 -0.83725,4.66649 -2.53691,0 4.0329,-18.31398 z m -0.27908,11.51538 3.22078,0 -1.57142,-8.8251 -0.0503,0 -1.59907,8.8251"
       style="fill:#000000;fill-opacity:1;fill-rule:nonzero;stroke:none"
       id="path63"
       inkscape:connector-curvature="0" />
    <path
       d="m 336.74375,537.94173 c 0,2.12959 -0.83474,4.28684 -4.28684,4.28684 -3.47473,0 -4.31198,-2.15725 -4.31198,-4.28684 l 0,-14.18051 2.5369,0 0,14.61045 c 0,1.24457 0.4576,1.87817 1.77508,1.87817 1.29485,0 1.75245,-0.6336 1.75245,-1.87817 l 0,-14.61045 2.53439,0 0,14.18051"
       style="fill:#000000;fill-opacity:1;fill-rule:nonzero;stroke:none"
       id="path65"
       inkscape:connector-curvature="0" />
    <path
       d="m 347.79901,523.76122 8.62648,0 0,2.13211 -3.04479,0 0,16.18187 -2.5369,0 0,-16.18187 -3.04479,0 0,-2.13211"
       style="fill:#000000;fill-opacity:1;fill-rule:nonzero;stroke:none"
       id="path67"
       inkscape:connector-curvature="0" />
    <path
       d="m 368.07915,523.76122 6.89917,0 0,2.13211 -4.36226,0 0,5.73254 4.10832,0 0,2.1296 -4.10832,0 0,6.19014 4.36226,0 0,2.12959 -6.89917,0 0,-18.31398"
       style="fill:#000000;fill-opacity:1;fill-rule:nonzero;stroke:none"
       id="path69"
       inkscape:connector-curvature="0" />
    <path
       d="m 287.92156,546.04021 3.46467,0 2.96433,15.21891 0.0503,0 0,-15.21891 2.3609,0 0,18.31398 -3.61804,0 -2.96182,-15.62622 -0.0503,0 0,15.62622 -2.21005,0 0,-18.31398"
       style="fill:#000000;fill-opacity:1;fill-rule:nonzero;stroke:none"
       id="path71"
       inkscape:connector-curvature="0" />
    <path
       d="m 297.96609,550.70671 c 0,-2.56205 0.82971,-4.81987 4.24409,-4.81987 3.2409,0 4.26924,1.69965 4.26924,4.54078 l 0,9.25756 c 0,2.56205 -0.82719,4.81986 -4.26924,4.81986 -3.21324,0 -4.24409,-1.69965 -4.24409,-4.54078 l 0,-9.25755 z m 2.51176,9.41093 c 0,1.57142 0.704,2.40867 1.73233,2.40867 1.056,0 1.75748,-0.83725 1.75748,-2.40867 l 0,-9.61459 c 0,-1.80022 -0.60091,-2.63748 -1.75748,-2.63748 -1.12891,0 -1.73233,0.83726 -1.73233,2.63748 l 0,9.61459"
       style="fill:#000000;fill-opacity:1;fill-rule:nonzero;stroke:none"
       id="path73"
       inkscape:connector-curvature="0" />
    <path
       d="m 308.61404,546.04021 3.89461,0 c 3.66582,0 4.04296,0.98811 4.04296,4.99587 0,2.46147 -0.32686,3.52501 -2.38605,4.16112 l 0,0.0503 c 1.70719,0.17599 2.28548,1.06605 2.28548,2.79084 l 0,3.98261 c 0,0.65874 0,1.57142 0.15085,2.33325 l -2.3609,0 c -0.25143,-0.4576 -0.30171,-0.9152 -0.30171,-1.64937 l 0,-4.13598 c 0,-1.72479 -0.30172,-2.17987 -1.95862,-2.17987 l -0.85486,0 0,7.96522 -2.51176,0 0,-18.31398 z m 2.51176,8.21665 0.65371,0 c 1.98377,0 2.26034,-0.37965 2.26034,-3.1177 0,-2.71542 -0.15086,-2.96936 -1.7072,-2.96936 l -1.20685,0 0,6.08706"
       style="fill:#000000;fill-opacity:1;fill-rule:nonzero;stroke:none"
       id="path75"
       inkscape:connector-curvature="0" />
    <path
       d="m 318.46246,546.04021 3.79655,0 2.19748,13.9492 0.0479,0 2.19747,-13.9492 3.70102,0 0,18.31398 -2.24525,0 0,-16.48862 -0.0479,0 -2.43633,16.48862 -2.38605,0 -2.67519,-16.48862 -0.0479,0 0,16.48862 -2.10194,0 0,-18.31398"
       style="fill:#000000;fill-opacity:1;fill-rule:nonzero;stroke:none"
       id="path77"
       inkscape:connector-curvature="0" />
    <path
       d="m 335.29552,546.04021 2.82605,0 3.58284,18.31398 -2.43633,0 -0.80457,-4.66901 -3.80158,0 -0.80457,4.66901 -2.43633,0 3.87449,-18.31398 z m -0.26902,11.51538 3.09507,0 -1.51108,-8.82762 -0.0479,0 -1.53622,8.82762"
       style="fill:#000000;fill-opacity:1;fill-rule:nonzero;stroke:none"
       id="path79"
       inkscape:connector-curvature="0" />
    <path
       d="m 342.53161,546.04021 3.46718,0 2.96182,15.21891 0.0503,0 0,-15.21891 2.36091,0 0,18.31398 -3.61553,0 -2.96433,-15.62622 -0.0503,0 0,15.62622 -2.21004,0 0,-18.31398"
       style="fill:#000000;fill-opacity:1;fill-rule:nonzero;stroke:none"
       id="path81"
       inkscape:connector-curvature="0" />
    <path
       d="m 353.22482,546.04021 4.04295,0 c 4.0681,0 4.39495,1.36777 4.39495,6.69551 l 0,5.45347 c 0,4.69163 -0.82719,6.165 -4.79723,6.165 l -3.64067,0 0,-18.31398 z m 2.51176,16.18187 1.20434,0 c 1.85804,0 2.21004,-0.98811 2.21004,-4.13346 l 0,-6.29072 c 0,-2.71542 -0.27657,-3.6281 -2.41119,-3.6281 l -1.00319,0 0,14.05228"
       style="fill:#000000;fill-opacity:1;fill-rule:nonzero;stroke:none"
       id="path83"
       inkscape:connector-curvature="0" />
    <path
       d="m 362.84192,564.35419 2.51124,0 0,-18.31398 -2.51124,0 0,18.31398 z"
       style="fill:#000000;fill-opacity:1;fill-rule:nonzero;stroke:none"
       id="path85"
       inkscape:connector-curvature="0" />
    <path
       d="m 368.19229,546.04021 6.83129,0 0,2.12959 -4.31953,0 0,5.73255 4.0681,0 0,2.1321 -4.0681,0 0,6.18763 4.31953,0 0,2.13211 -6.83129,0 0,-18.31398"
       style="fill:#000000;fill-opacity:1;fill-rule:nonzero;stroke:none"
       id="path87"
       inkscape:connector-curvature="0" />
  </g>
</svg>
