<?xml version="1.0" encoding="UTF-8" standalone="no"?>
<!-- Created with Inkscape (http://www.inkscape.org/) -->

<svg
   xmlns:dc="http://purl.org/dc/elements/1.1/"
   xmlns:cc="http://creativecommons.org/ns#"
   xmlns:rdf="http://www.w3.org/1999/02/22-rdf-syntax-ns#"
   xmlns:svg="http://www.w3.org/2000/svg"
   xmlns="http://www.w3.org/2000/svg"
   xmlns:sodipodi="http://sodipodi.sourceforge.net/DTD/sodipodi-0.dtd"
   xmlns:inkscape="http://www.inkscape.org/namespaces/inkscape"
   id="svg2"
   version="1.1"
   inkscape:version="0.48.4 r9939"
   width="402.725"
   height="780.8375"
   xml:space="preserve"
   sodipodi:docname="marchio BZ_colore.eps"><metadata
     id="metadata8"><rdf:RDF><cc:Work
         rdf:about=""><dc:format>image/svg+xml</dc:format><dc:type
           rdf:resource="http://purl.org/dc/dcmitype/StillImage" /><dc:title></dc:title></cc:Work></rdf:RDF></metadata><defs
     id="defs6" /><sodipodi:namedview
     pagecolor="#ffffff"
     bordercolor="#666666"
     borderopacity="1"
     objecttolerance="10"
     gridtolerance="10"
     guidetolerance="10"
     inkscape:pageopacity="0"
     inkscape:pageshadow="2"
     inkscape:window-width="1920"
     inkscape:window-height="1056"
     id="namedview4"
     showgrid="false"
     inkscape:zoom="0.85486261"
     inkscape:cx="506.64856"
     inkscape:cy="348.70285"
     inkscape:window-x="0"
     inkscape:window-y="24"
     inkscape:window-maximized="1"
     inkscape:current-layer="g10" /><g
     id="g10"
     inkscape:groupmode="layer"
     inkscape:label="ink_ext_XXXXXX"
     transform="matrix(1.25,0,0,-1.25,0,780.8375)"><g
       id="g12"
       transform="scale(0.1,0.1)"><path
         d="m 1315.4,3692.5 -370.744,0 0,544.85 370.744,0 0,-544.85 z m -479.685,913.11 -535.598,0 0,924.98 1.321,0 0,1.12 c 0,147.11 119.46,266.31 266.558,266.31 147.16,0 266.508,-119.2 266.508,-266.31 l 0,-1.12 1.211,0 0,-924.98 z m 835.415,43.73 c -101.35,75.68 -226.62,134.69 -361.25,172.41 l 0,-216.54 -370.681,0 0,938.57 1.035,0 0,0.81 c 0,101.67 82.506,184.36 184.276,184.36 101.94,0 184.56,-82.69 184.56,-184.36 0,-0.23 -0.11,-0.46 -0.11,-0.81 l 0.92,0 0,-650.72 c 108.37,38.07 207.09,93.55 288.74,163.94 148.88,128.08 227.49,290.49 227.49,469.54 0,82.03 -19.65,291.5 -202.32,465.29 -177.96,169.06 -453.02,254.9 -817.614,254.9 -36.258,0 -74.985,-1.01 -115.785,-1.93 -43.672,-1.12 -88.891,-2.23 -134,-2.23 l -0.864,0 c -85.785,-4.09 -174.394,-8.36 -257.422,-8.36 0,0 -313.9644,-0.67 -282.9409,-0.67 l 0,-504.83 c 0.9804,0.12 2.0117,0.24 3.1679,0.24 101.871,0 184.273,-82.69 184.273,-184.36 l 0,-0.81 0.981,0 0,-938.57 -188.4219,0 0,-367.86 183.0199,0 0,-544.85 -183.0199,0 0,-455.09 c -28.9571,0 245.0739,-0.52 279.5549,-0.69 l 0,904.06 1.375,0 0,1.07 c 0,147.16 119.176,266.35 266.273,266.35 147.391,0 266.735,-119.19 266.735,-266.35 l 0,-1.07 1.211,0 0,-920.5 c 710.217,8.42 1133.237,332.16 1133.237,869.97 0,223.06 -101.19,416.48 -292.42,559.09"
         style="fill:#aa0c31;fill-opacity:1;fill-rule:nonzero;stroke:none"
         id="path14" /><path
         d="m 152.781,2704.86 -74.2966,0 0,-117.39 74.2966,0 c 44.074,0 64.074,23.56 64.074,58.43 0,34.85 -20,58.96 -64.074,58.96 z m 2.59,-175.34 -76.8866,0 0,-130.21 -65.6133,0 0,363.47 142.4999,0 c 83.551,0 128.141,-46.66 128.141,-116.36 0,-69.72 -44.59,-116.9 -128.141,-116.9"
         style="fill:#aa0c31;fill-opacity:1;fill-rule:nonzero;stroke:none"
         id="path16" /><path
         d="m 441.355,2681.79 -51.777,-153.28 103.547,0 -51.77,153.28 z m 95.903,-282.48 -23.613,69.73 -144.575,0 -23.562,-69.73 -66.653,0 127.676,363.47 72.285,0 127.625,-363.47 -69.183,0"
         style="fill:#aa0c31;fill-opacity:1;fill-rule:nonzero;stroke:none"
         id="path18" /><path
         d="m 656.66,2399.31 0,363.47 66.082,0 0,-300.92 168.703,0 0,-62.55 -234.785,0"
         style="fill:#aa0c31;fill-opacity:1;fill-rule:nonzero;stroke:none"
         id="path20" /><path
         d="m 1083.6,2681.79 -51.77,-153.28 103.54,0 -51.77,153.28 z m 95.9,-282.48 -23.62,69.73 -144.57,0 -23.556,-69.73 -66.656,0 127.682,363.47 72.28,0 127.62,-363.47 -69.18,0"
         style="fill:#aa0c31;fill-opacity:1;fill-rule:nonzero;stroke:none"
         id="path22" /><path
         d="m 1283.96,2399.31 0,65.11 200.42,238.37 -197.37,0 0,59.99 278.92,0 0,-65.1 -198.94,-238.38 201.47,0 0,-59.99 -284.5,0"
         style="fill:#aa0c31;fill-opacity:1;fill-rule:nonzero;stroke:none"
         id="path24" /><path
         d="m 1612.01,2399.31 0,65.11 200.42,238.37 -197.37,0 0,59.99 278.9,0 0,-65.1 -198.92,-238.38 201.46,0 0,-59.99 -284.49,0"
         style="fill:#aa0c31;fill-opacity:1;fill-rule:nonzero;stroke:none"
         id="path26" /><path
         d="m 1950.34,2399.31 0,363.47 258.86,0 0,-59.99 -192.77,0 0,-84.58 169.73,0 0,-59.47 -169.73,0 0,-99.44 192.77,0 0,-59.99 -258.86,0"
         style="fill:#aa0c31;fill-opacity:1;fill-rule:nonzero;stroke:none"
         id="path28" /><path
         d="m 2416.23,2701.27 0,-301.96 -66.13,0 0,301.96 -107.63,0 0,61.51 281.45,0 0,-61.51 -107.69,0"
         style="fill:#aa0c31;fill-opacity:1;fill-rule:nonzero;stroke:none"
         id="path30" /><path
         d="m 2727.84,2701.27 0,-301.96 -66.13,0 0,301.96 -107.63,0 0,61.51 281.45,0 0,-61.51 -107.69,0"
         style="fill:#aa0c31;fill-opacity:1;fill-rule:nonzero;stroke:none"
         id="path32" /><path
         d="m 3073.82,2685.38 c -14.37,15.37 -36.38,24.07 -57.4,24.07 -21.04,0 -43.1,-8.7 -57.41,-24.07 -25.16,-26.15 -26.2,-71.25 -26.2,-104.58 0,-33.33 1.04,-77.94 26.2,-104.09 14.31,-15.37 36.37,-24.08 57.41,-24.08 21.02,0 43.03,8.71 57.4,24.08 25.11,26.15 26.14,70.76 26.14,104.09 0,33.33 -1.03,78.43 -26.14,104.58 z M 3121,2433.67 c -27.7,-27.7 -65.63,-41.03 -104.58,-41.03 -38.96,0 -76.95,13.33 -104.58,41.03 -39.48,39.45 -46.15,87.66 -46.15,147.13 0,59.47 6.67,108.17 46.15,147.65 27.63,27.66 65.62,40.99 104.58,40.99 38.95,0 76.88,-13.33 104.58,-40.99 39.47,-39.48 46.13,-88.18 46.13,-147.65 0,-59.47 -6.66,-107.68 -46.13,-147.13"
         style="fill:#aa0c31;fill-opacity:1;fill-rule:nonzero;stroke:none"
         id="path34" /><path
         d="m 162.035,2084.63 -83.5506,0 0,-100.99 81.4886,0 c 30.742,0 64.066,11.29 64.066,48.18 0,38.96 -27.184,52.81 -62.004,52.81 z m -2.062,146.64 -81.4886,0 0,-91.28 83.0386,0 c 29.707,0 54.872,10.78 54.872,45.13 0,34.86 -26.661,46.15 -56.422,46.15 z m 94.343,-282.48 c -28.211,-21.55 -62.054,-24.62 -96.933,-24.62 l -144.5119,0 0,363.98 144.5119,0 c 29.25,0 59.472,-4.1 84.121,-19.99 26.664,-17.41 42.008,-47.67 42.008,-78.95 0,-29.74 -13.856,-63.04 -44.59,-76.89 34.359,-15.89 52.289,-48.21 52.289,-82.02 0,-32.3 -10.746,-61.51 -36.895,-81.51"
         style="fill:#aa0c31;fill-opacity:1;fill-rule:nonzero;stroke:none"
         id="path36" /><path
         d="m 510.02,2230.23 -87.168,0 0,-108.68 88.203,0 c 37.406,0 58.957,19.47 58.957,53.84 0,29.22 -22.578,54.84 -59.992,54.84 z m 54.359,-305.55 -60.508,137.4 -80.504,0 0,-137.4 -66.594,0 0,363.47 153.247,0 c 86.652,0 126.128,-54.33 126.128,-112.76 0,-48.73 -26.66,-87.17 -66.656,-102.02 l 66.656,-148.69 -71.769,0"
         style="fill:#aa0c31;fill-opacity:1;fill-rule:nonzero;stroke:none"
         id="path38" /><path
         d="m 832.434,1918.01 c -93.774,0 -142.5,59.48 -142.5,146.1 l 0,224.04 66.136,0 0,-223.01 c 0,-51.76 23.559,-87.14 76.364,-87.14 52.808,0 76.421,35.38 76.421,87.14 l 0,223.01 66.141,0 0,-224.04 c 0,-86.62 -48.726,-146.1 -142.562,-146.1"
         style="fill:#aa0c31;fill-opacity:1;fill-rule:nonzero;stroke:none"
         id="path40" /><path
         d="m 1150.2,1924.68 0,65.1 200.42,238.38 -197.38,0 0,59.99 278.92,0 0,-65.1 -198.94,-238.38 201.47,0 0,-59.99 -284.49,0"
         style="fill:#aa0c31;fill-opacity:1;fill-rule:nonzero;stroke:none"
         id="path42" /><path
         d="m 1633.04,2207.16 -51.77,-153.28 103.54,0 -51.77,153.28 z m 95.91,-282.48 -23.63,69.73 -144.57,0 -23.55,-69.73 -66.66,0 127.68,363.47 72.29,0 127.62,-363.47 -69.18,0"
         style="fill:#aa0c31;fill-opacity:1;fill-rule:nonzero;stroke:none"
         id="path44" /><path
         d="m 2070.31,1924.68 -157.38,249.67 0,-249.67 -65.1,0 0,363.47 70.22,0 155.31,-246.07 0,246.07 65.11,0 0,-363.47 -68.16,0"
         style="fill:#aa0c31;fill-opacity:1;fill-rule:nonzero;stroke:none"
         id="path46" /><path
         d="m 2222.99,1924.68 0,363.47 258.87,0 0,-59.99 -192.79,0 0,-84.58 169.74,0 0,-59.47 -169.74,0 0,-99.44 192.79,0 0,-59.99 -258.87,0"
         style="fill:#aa0c31;fill-opacity:1;fill-rule:nonzero;stroke:none"
         id="path48" /><path
         d="m 138.418,1451.58 c -34.82,0 -70.7344,14.36 -95.8399,39.47 C 3.61719,1530.53 0,1588.45 0,1640.25 c 0,51.77 3.61719,109.18 42.5781,148.65 25.1055,25.14 61.0199,39.48 95.8399,39.48 72.285,0 123.602,-50.74 129.234,-117.91 l -27.703,0 c -4.594,53.84 -44.07,91.76 -101.531,91.76 -32.289,0 -56.8828,-11.26 -76.3633,-31.26 -32.8086,-33.84 -34.3594,-87.16 -34.3594,-130.72 0,-43.58 2.0664,-97.42 34.8789,-131.24 19.9961,-20.52 45.6168,-31.29 75.8438,-31.29 57.461,0 96.937,37.93 101.531,91.77 l 27.703,0 c -5.632,-67.15 -56.949,-117.91 -129.234,-117.91"
         style="fill:#aa0c31;fill-opacity:1;fill-rule:nonzero;stroke:none"
         id="path50" /><path
         d="m 346.543,1458.24 0,363.48 232.719,0 0,-25.64 -205.594,0 0,-133.28 181,0 0,-25.65 -181,0 0,-153.28 205.594,0 0,-25.63 -232.719,0"
         style="fill:#aa0c31;fill-opacity:1;fill-rule:nonzero;stroke:none"
         id="path52" /><path
         d="m 896.504,1458.24 -210.652,321.96 0,-321.96 -26.664,0 0,363.48 30.226,0 211.231,-321.44 0,321.44 26.14,0 0,-363.48 -30.281,0"
         style="fill:#aa0c31;fill-opacity:1;fill-rule:nonzero;stroke:none"
         id="path54" /><path
         d="m 1138.42,1796.08 0,-337.84 -26.67,0 0,337.84 -115.324,0 0,25.64 257.894,0 0,-25.64 -115.9,0"
         style="fill:#aa0c31;fill-opacity:1;fill-rule:nonzero;stroke:none"
         id="path56" /><path
         d="m 1456.17,1796.6 -106.07,0 0,-158.94 106.07,0 c 59.99,0 94.87,27.7 94.87,79.48 0,51.76 -34.88,79.46 -94.87,79.46 z m 47.18,-176.87 73.84,-161.49 -29.25,0 -71.25,154.83 -126.59,0 0,-154.83 -26.66,0 0,363.48 132.73,0 c 79.47,0 122.57,-41.53 122.57,-104.58 0,-47.67 -29.77,-85.1 -75.39,-97.41"
         style="fill:#aa0c31;fill-opacity:1;fill-rule:nonzero;stroke:none"
         id="path58" /><path
         d="m 1660.68,1458.24 0,363.48 232.72,0 0,-25.64 -205.6,0 0,-133.28 181.01,0 0,-25.65 -181.01,0 0,-153.28 205.6,0 0,-25.63 -232.72,0"
         style="fill:#aa0c31;fill-opacity:1;fill-rule:nonzero;stroke:none"
         id="path60" /><path
         d="m 218.406,1317.87 c -18.445,17.44 -45.105,27.18 -72.285,27.18 l -93.8358,0 0,-311.19 93.8358,0 c 27.18,0 53.84,9.74 72.285,27.18 33.844,32.81 36.43,85.1 36.43,128.68 0,43.57 -2.586,95.85 -36.43,128.15 z m 19.481,-274.27 c -21.492,-21.03 -53.324,-35.88 -91.766,-35.88 l -120.4374,0 0,363.47 120.4374,0 c 38.442,0 70.274,-14.86 91.766,-35.88 39.996,-38.45 44.129,-94.84 44.129,-145.59 0,-50.76 -4.133,-107.67 -44.129,-146.12"
         style="fill:#aa0c31;fill-opacity:1;fill-rule:nonzero;stroke:none"
         id="path62" /><path
         d="m 368.613,1007.72 0,363.47 232.715,0 0,-25.63 -205.598,0 0,-133.28 181.004,0 0,-25.65 -181.004,0 0,-153.28 205.598,0 0,-25.63 -232.715,0"
         style="fill:#aa0c31;fill-opacity:1;fill-rule:nonzero;stroke:none"
         id="path64" /><path
         d="m 1109.85,1007.72 0,325.03 -132.784,-319.92 -23.621,0.01 -132.73,317.35 0,-322.47 -26.145,0 0,363.47 37.403,0 134.289,-322.96 131.758,322.96 37.98,0 0,-363.47 -26.15,0"
         style="fill:#aa0c31;fill-opacity:1;fill-rule:nonzero;stroke:none"
         id="path66" /><path
         d="m 1367.05,1001.05 c -87.17,0 -128.65,59.99 -128.65,139.95 l 0,230.19 26.66,0 0,-230.68 c 0,-63.06 30.74,-113.82 101.99,-113.82 71.25,0 102.51,50.76 102.51,113.82 l 0,230.68 26.67,0 0,-230.19 c 0,-79.96 -42.01,-139.95 -129.18,-139.95"
         style="fill:#aa0c31;fill-opacity:1;fill-rule:nonzero;stroke:none"
         id="path68" /><path
         d="m 1807.89,1036.42 c -24.59,-24.08 -61.01,-35.37 -103.03,-35.37 -41.54,0 -77.45,13.33 -101.53,38.97 -17.92,18.95 -30.22,44.62 -32.8,72.28 l 27.69,0 c 2.52,-21.52 12.82,-41.52 26.66,-55.89 19.48,-19.99 49.71,-29.72 79.98,-29.72 31.26,0 62.52,8.21 82.52,27.17 12.82,12.3 21.55,29.22 21.55,52.29 0,34.85 -27.18,65.11 -70.74,70.73 l -67.68,8.74 c -51.26,6.66 -89.24,35.88 -89.24,91.76 0,30.25 13.33,51.78 31.84,68.7 22.52,20.51 55.85,31.78 89.68,31.78 38.97,0 77.92,-15.89 98.44,-40 15.4,-17.92 25.63,-36.89 27.7,-63.03 l -27.18,0 c -2.59,18.44 -8.22,32.29 -20,46.13 -15.92,19.49 -45.63,31.26 -78.96,31.26 -26.14,0 -51.25,-6.66 -69.24,-22.03 -13.78,-12.32 -24.59,-29.22 -24.59,-52.81 0,-43.07 30.81,-59.46 64.07,-63.57 l 68.73,-8.72 c 56.37,-7.17 94.86,-47.68 94.86,-98.94 0,-31.78 -11.83,-52.8 -28.73,-69.73"
         style="fill:#aa0c31;fill-opacity:1;fill-rule:nonzero;stroke:none"
         id="path70" /><path
         d="m 1919.08,1007.72 27.1172,0 0,363.473 -27.1172,0 0,-363.473 z"
         style="fill:#aa0c31;fill-opacity:1;fill-rule:nonzero;stroke:none"
         id="path72" /><path
         d="m 2246.09,1323.52 c -18.96,18.45 -45.62,28.19 -73.83,28.19 -28.16,0 -54.82,-9.74 -73.78,-28.19 -35.92,-34.35 -37.46,-90.76 -37.46,-133.8 0,-43.06 1.54,-99.98 37.46,-134.33 18.96,-18.45 45.62,-28.2 73.78,-28.2 22.57,0 43.61,6.16 61.02,17.96 l -54.35,69.19 18.43,14.89 53.85,-68.19 c 30.79,34.34 32.29,87.66 32.29,128.68 0,43.04 -1.5,99.45 -37.41,133.8 z m 21.55,-283.5 c 9.2,-11.79 15.34,-19.49 34.36,-44.079 l -18.5,-14.882 -34.3,43.591 c -20.52,-14.37 -46.14,-23.6 -76.94,-23.6 -39.49,0 -70.74,15.37 -93.27,36.93 -41.02,39.47 -45.68,99.43 -45.68,151.74 0,52.3 4.66,111.74 45.68,151.21 22.53,21.56 53.78,36.93 93.27,36.93 39.47,0 70.79,-15.37 93.31,-36.93 41.03,-39.47 45.62,-98.91 45.62,-151.21 0,-51.28 -4.59,-110.23 -43.55,-149.7"
         style="fill:#aa0c31;fill-opacity:1;fill-rule:nonzero;stroke:none"
         id="path74" /><path
         d="m 2521.79,1001.05 c -87.17,0 -128.66,59.99 -128.66,139.95 l 0,230.19 26.66,0 0,-230.68 c 0,-63.06 30.75,-113.82 102,-113.82 71.26,0 102.51,50.76 102.51,113.82 l 0,230.68 26.66,0 0,-230.19 c 0,-79.96 -42,-139.95 -129.17,-139.95"
         style="fill:#aa0c31;fill-opacity:1;fill-rule:nonzero;stroke:none"
         id="path76" /><path
         d="m 2753.48,1007.72 0,363.47 232.71,0 0,-25.63 -205.59,0 0,-133.28 181,0 0,-25.65 -181,0 0,-153.28 205.59,0 0,-25.63 -232.71,0"
         style="fill:#aa0c31;fill-opacity:1;fill-rule:nonzero;stroke:none"
         id="path78" /><path
         d="m 158.418,895.551 -106.1328,0 0,-158.93 106.1328,0 c 59.988,0 94.867,27.688 94.867,79.469 0,51.769 -34.879,79.461 -94.867,79.461 z m 47.18,-176.86 73.836,-161.5 -29.246,0 -71.258,154.84 -126.6448,0 0,-154.84 -26.6016,0 0,363.477 132.7344,0 c 79.469,0 122.562,-41.52 122.562,-104.578 0,-47.672 -29.765,-85.11 -75.382,-97.399"
         style="fill:#aa0c31;fill-opacity:1;fill-rule:nonzero;stroke:none"
         id="path80" /><path
         d="m 557.195,873 c -18.965,18.449 -45.625,28.191 -73.836,28.191 -28.156,0 -54.812,-9.742 -73.781,-28.191 -35.91,-34.359 -37.465,-90.762 -37.465,-133.789 0,-43.07 1.555,-99.981 37.465,-134.352 18.969,-18.449 45.625,-28.179 73.781,-28.179 28.211,0 54.871,9.73 73.836,28.179 35.914,34.371 37.41,91.282 37.41,134.352 0,43.027 -1.496,99.43 -37.41,133.789 z M 576.68,587.449 c -22.532,-21.551 -53.848,-36.918 -93.321,-36.918 -39.472,0 -70.73,15.367 -93.261,36.918 -41.028,39.469 -45.68,99.43 -45.68,151.762 0,52.277 4.652,111.719 45.68,151.211 22.531,21.539 53.789,36.906 93.261,36.906 39.473,0 70.789,-15.367 93.321,-36.906 41.023,-39.492 45.621,-98.934 45.621,-151.211 0,-52.332 -4.598,-112.293 -45.621,-151.762"
         style="fill:#aa0c31;fill-opacity:1;fill-rule:nonzero;stroke:none"
         id="path82" /><path
         d="m 1024.64,557.191 0,325.028 -132.788,-319.91 -23.622,0 -132.734,317.351 0,-322.469 -26.141,0 0,363.477 37.403,0 134.289,-322.969 131.753,322.969 37.99,0 0,-363.477 -26.15,0"
         style="fill:#aa0c31;fill-opacity:1;fill-rule:nonzero;stroke:none"
         id="path84" /><path
         d="m 1269.02,883.75 -77.4,-205.57 156.36,0 -78.96,205.57 z m 125.61,-326.559 -36.89,95.879 -175.83,0 -35.91,-95.879 -27.7,0 137.91,363.477 26.14,0 139.47,-363.477 -27.19,0"
         style="fill:#aa0c31;fill-opacity:1;fill-rule:nonzero;stroke:none"
         id="path86" /><path
         d="m 1726.76,557.191 -210.71,321.957 0,-321.957 -26.61,0 0,363.477 30.23,0 211.23,-321.438 0,321.438 26.14,0 0,-363.477 -30.28,0"
         style="fill:#aa0c31;fill-opacity:1;fill-rule:nonzero;stroke:none"
         id="path88" /><path
         d="m 1968.67,895.039 0,-337.848 -26.66,0 0,337.848 -115.33,0 0,25.629 257.89,0 0,-25.629 -115.9,0"
         style="fill:#aa0c31;fill-opacity:1;fill-rule:nonzero;stroke:none"
         id="path90" /><path
         d="m 2154.21,557.191 27.1211,0 0,363.477 -27.1211,0 0,-363.477 z"
         style="fill:#aa0c31;fill-opacity:1;fill-rule:nonzero;stroke:none"
         id="path92" /><path
         d="m 2481.16,873 c -18.95,18.441 -45.61,28.191 -73.84,28.191 -28.15,0 -54.81,-9.75 -73.78,-28.191 -35.9,-34.359 -37.46,-90.762 -37.46,-133.789 0,-43.07 1.56,-99.981 37.46,-134.352 18.97,-18.449 45.63,-28.179 73.78,-28.179 22.59,0 43.62,6.14 61.03,17.961 l -54.36,69.199 18.45,14.859 53.84,-68.179 c 30.8,34.332 32.29,87.66 32.29,128.691 0,43.027 -1.49,99.43 -37.41,133.789 z m 21.55,-283.512 c 9.19,-11.777 15.35,-19.476 34.36,-44.066 l -18.5,-14.891 -34.3,43.59 c -20.52,-14.371 -46.14,-23.59 -76.95,-23.59 -39.47,0 -70.73,15.367 -93.26,36.918 -41.01,39.469 -45.67,99.43 -45.67,151.762 0,52.277 4.66,111.719 45.67,151.211 22.53,21.539 53.79,36.906 93.26,36.906 39.49,0 70.81,-15.367 93.32,-36.906 41.03,-39.492 45.63,-98.934 45.63,-151.211 0,-51.289 -4.6,-110.25 -43.56,-149.723"
         style="fill:#aa0c31;fill-opacity:1;fill-rule:nonzero;stroke:none"
         id="path94" /><path
         d="m 2757.44,550.531 c -87.17,0 -128.66,59.989 -128.66,139.949 l 0,230.188 26.67,0 0,-230.68 c 0,-63.07 30.74,-113.828 101.99,-113.828 71.25,0 102.51,50.758 102.51,113.828 l 0,230.68 26.66,0 0,-230.188 c 0,-79.96 -42,-139.949 -129.17,-139.949"
         style="fill:#aa0c31;fill-opacity:1;fill-rule:nonzero;stroke:none"
         id="path96" /><path
         d="m 2989.12,557.191 0,363.477 232.72,0 0,-25.629 -205.6,0 0,-133.289 181.01,0 0,-25.648 -181.01,0 0,-153.282 205.6,0 0,-25.629 -232.72,0"
         style="fill:#aa0c31;fill-opacity:1;fill-rule:nonzero;stroke:none"
         id="path98" /><path
         d="m 52.2852,444.488 0,-140.468 181.0038,0 0,-25.622 -181.0038,0 0,-171.75 -26.6016,0 0,363.461 227.6014,0 0,-25.621 -200.9998,0"
         style="fill:#aa0c31;fill-opacity:1;fill-rule:nonzero;stroke:none"
         id="path100" /><path
         d="m 459.281,445.012 -106.129,0 0,-158.942 106.129,0 c 59.992,0 94.867,27.7 94.867,79.461 0,51.778 -34.875,79.481 -94.867,79.481 z m 47.172,-176.871 73.84,-161.493 -29.246,0 -71.25,154.821 -126.645,0 0,-154.821 -26.605,0 0,363.461 132.734,0 c 79.469,0 122.567,-41.507 122.567,-104.578 0,-47.66 -29.77,-85.09 -75.395,-97.39"
         style="fill:#aa0c31;fill-opacity:1;fill-rule:nonzero;stroke:none"
         id="path102" /><path
         d="m 783.652,433.199 -77.402,-205.578 156.352,0 -78.95,205.578 z m 125.606,-326.551 -36.887,95.872 -175.828,0 -35.918,-95.872 -27.695,0 137.91,363.461 26.14,0 139.461,-363.461 -27.183,0"
         style="fill:#aa0c31;fill-opacity:1;fill-rule:nonzero;stroke:none"
         id="path104" /><path
         d="m 1241.39,106.648 -210.66,321.954 0,-321.954 -26.66,0 0,363.461 30.23,0 211.22,-321.429 0,321.429 26.15,0 0,-363.461 -30.28,0"
         style="fill:#aa0c31;fill-opacity:1;fill-rule:nonzero;stroke:none"
         id="path106" /><path
         d="m 1481.28,0 -27.17,12.8398 36.89,69.211 24.13,0 L 1481.28,0 z m 15.86,99.9805 c -34.82,0 -70.73,14.3595 -95.84,39.4685 -38.96,39.481 -42.58,97.403 -42.58,149.199 0,51.782 3.62,109.18 42.58,148.653 25.11,25.14 61.02,39.48 95.84,39.48 72.29,0 123.6,-50.742 129.24,-117.91 l -27.7,0 c -4.6,53.84 -44.08,91.758 -101.54,91.758 -32.29,0 -56.88,-11.258 -76.36,-31.258 -32.81,-33.84 -34.36,-87.172 -34.36,-130.723 0,-43.589 2.07,-97.418 34.88,-131.238 19.99,-20.512 45.62,-31.289 75.84,-31.289 57.46,0 96.94,37.93 101.54,91.77 l 27.7,0 C 1620.74,150.75 1569.43,99.9805 1497.14,99.9805"
         style="fill:#aa0c31;fill-opacity:1;fill-rule:nonzero;stroke:none"
         id="path108" /><path
         d="m 1811.29,433.191 -77.4,-205.57 156.34,0 -78.94,205.57 z m 125.6,-326.543 -36.89,95.872 -175.83,0 -35.91,-95.872 -27.69,0 137.9,363.461 26.14,0 139.46,-363.461 -27.18,0"
         style="fill:#aa0c31;fill-opacity:1;fill-rule:nonzero;stroke:none"
         id="path110" /><path
         d="m 2031.7,106.648 27.1328,0 0,363.461 -27.1328,0 0,-363.461 z"
         style="fill:#aa0c31;fill-opacity:1;fill-rule:nonzero;stroke:none"
         id="path112" /><path
         d="M 2376.12,135.352 C 2351.53,111.27 2315.1,99.9805 2273.1,99.9805 c -41.55,0 -77.46,13.3285 -101.54,38.9495 -17.93,18.968 -30.22,44.621 -32.81,72.3 l 27.7,0 c 2.53,-21.531 12.82,-41.531 26.67,-55.89 19.48,-19.988 49.69,-29.738 79.98,-29.738 31.26,0 62.52,8.218 82.52,27.179 12.81,12.297 21.54,29.219 21.54,52.289 0,34.86 -27.18,65.11 -70.73,70.739 l -67.69,8.742 c -51.26,6.66 -89.24,35.879 -89.24,91.758 0,30.25 13.33,51.769 31.83,68.703 22.53,20.496 55.86,31.769 89.71,31.769 38.95,0 77.91,-15.883 98.42,-40 15.4,-17.933 25.63,-36.883 27.7,-63.019 l -27.18,0 c -2.59,18.429 -8.22,32.277 -20,46.129 -15.92,19.48 -45.62,31.257 -78.94,31.257 -26.16,0 -51.26,-6.66 -69.25,-22.027 -13.79,-12.332 -24.59,-29.223 -24.59,-52.812 0,-43.071 30.8,-59.481 64.07,-63.579 l 68.72,-8.71 c 56.37,-7.18 94.86,-47.692 94.86,-98.95 0,-31.769 -11.83,-52.8 -28.73,-69.718"
         style="fill:#aa0c31;fill-opacity:1;fill-rule:nonzero;stroke:none"
         id="path114" /><path
         d="m 2487.31,106.648 0,363.461 232.72,0 0,-25.621 -205.6,0 0,-133.277 181.01,0 0,-25.66 -181.01,0 0,-153.281 205.6,0 0,-25.622 -232.72,0"
         style="fill:#aa0c31;fill-opacity:1;fill-rule:nonzero;stroke:none"
         id="path116" /></g></g></svg>