<?xml version="1.0" encoding="utf-8"?>
<!-- Generator: Adobe Illustrator 14.0.0, SVG Export Plug-In . SVG Version: 6.00 Build 43363)  -->
<!DOCTYPE svg PUBLIC "-//W3C//DTD SVG 1.1//EN" "http://www.w3.org/Graphics/SVG/1.1/DTD/svg11.dtd">
<svg version="1.1" id="Calque_1" xmlns="http://www.w3.org/2000/svg" xmlns:xlink="http://www.w3.org/1999/xlink" x="0px" y="0px"
	 width="351px" height="158px" viewBox="0 0 351 158" enable-background="new 0 0 351 158" xml:space="preserve">
<rect x="129.347" y="49.707" width="3.905" height="14.991"/>
<g>
	<defs>
		<rect id="SVGID_1_" width="351" height="158"/>
	</defs>
	<clipPath id="SVGID_2_">
		<use xlink:href="#SVGID_1_"  overflow="visible"/>
	</clipPath>
	<path clip-path="url(#SVGID_2_)" d="M135.962,53.843h1.68v1.722h0.042c0.756-1.344,1.973-1.974,3.527-1.974
		c2.855,0,3.737,1.638,3.737,3.968v7.139h-1.784v-7.349c0-1.322-0.84-2.183-2.205-2.183c-2.163,0-3.212,1.448-3.212,3.401v6.131
		h-1.785V53.843z"/>
	<path clip-path="url(#SVGID_2_)" d="M148.729,61.276c0.063,1.596,1.449,2.1,2.918,2.1c1.113,0,2.625-0.252,2.625-1.617
		c0-1.386-1.764-1.617-3.549-2.016c-1.763-0.399-3.548-0.987-3.548-3.065c0-2.184,2.163-3.087,4.052-3.087
		c2.395,0,4.305,0.756,4.451,3.402h-1.784c-0.126-1.386-1.344-1.827-2.519-1.827c-1.072,0-2.31,0.294-2.31,1.386
		c0,1.281,1.89,1.491,3.549,1.89c1.784,0.398,3.548,0.986,3.548,3.086c0,2.582-2.415,3.422-4.62,3.422
		c-2.435,0-4.493-0.986-4.598-3.674H148.729z"/>
	<path clip-path="url(#SVGID_2_)" d="M160.615,53.843h2.163v1.575h-2.163v6.739c0,0.819,0.231,0.966,1.344,0.966h0.819v1.575h-1.365
		c-1.848,0-2.582-0.378-2.582-2.373v-6.907h-1.848v-1.575h1.848v-3.254h1.784V53.843z"/>
	<path clip-path="url(#SVGID_2_)" d="M166.642,51.891h-1.785v-2.184h1.785V51.891z M164.856,53.843h1.785v10.855h-1.785V53.843z"/>
	<path clip-path="url(#SVGID_2_)" d="M171.892,53.843h2.162v1.575h-2.162v6.739c0,0.819,0.23,0.966,1.344,0.966h0.818v1.575h-1.364
		c-1.848,0-2.583-0.378-2.583-2.373v-6.907h-1.848v-1.575h1.848v-3.254h1.785V53.843z"/>
	<path clip-path="url(#SVGID_2_)" d="M185.015,64.698h-1.68v-1.722h-0.042c-0.757,1.344-1.974,1.974-3.527,1.974
		c-2.855,0-3.737-1.638-3.737-3.968v-7.139h1.785v7.349c0,1.322,0.84,2.183,2.204,2.183c2.163,0,3.212-1.448,3.212-3.401v-6.131
		h1.785V64.698z"/>
	<path clip-path="url(#SVGID_2_)" d="M190.182,53.843h2.163v1.575h-2.163v6.739c0,0.819,0.23,0.966,1.344,0.966h0.819v1.575h-1.365
		c-1.848,0-2.582-0.378-2.582-2.373v-6.907h-1.848v-1.575h1.848v-3.254h1.784V53.843z"/>
	<path clip-path="url(#SVGID_2_)" d="M209.856,64.699h-1.785v-1.47h-0.041c-0.588,1.197-1.975,1.722-3.465,1.722
		c-3.338,0-4.997-2.646-4.997-5.711c0-3.066,1.638-5.648,4.955-5.648c1.112,0,2.708,0.42,3.507,1.701h0.041v-5.585h1.785V64.699z
		 M204.817,63.375c2.394,0,3.317-2.058,3.317-4.094c0-2.142-0.966-4.115-3.423-4.115c-2.436,0-3.254,2.078-3.254,4.199
		C201.458,61.401,202.508,63.375,204.817,63.375"/>
	<path clip-path="url(#SVGID_2_)" d="M221.868,61.254c-0.482,2.394-2.204,3.696-4.64,3.696c-3.464,0-5.102-2.394-5.207-5.711
		c0-3.255,2.142-5.648,5.103-5.648c3.842,0,5.018,3.59,4.912,6.215h-8.125c-0.063,1.889,1.008,3.569,3.382,3.569
		c1.468,0,2.497-0.714,2.812-2.121H221.868z M220.147,58.231c-0.084-1.701-1.365-3.065-3.129-3.065
		c-1.869,0-2.981,1.406-3.107,3.065H220.147z"/>
	<path clip-path="url(#SVGID_2_)" d="M230.879,49.707h7.643c2.646,0,5.249,1.197,5.249,4.22c0,1.617-0.777,3.15-2.352,3.759v0.042
		c1.596,0.378,2.058,2.162,2.184,3.59c0.042,0.63,0.105,2.835,0.63,3.38h-3.863c-0.336-0.503-0.399-1.973-0.44-2.393
		c-0.105-1.512-0.357-3.066-2.184-3.066h-2.961v5.459h-3.905V49.707z M234.784,56.216h3.275c1.176,0,1.806-0.63,1.806-1.764
		c0-1.112-0.882-1.616-1.974-1.616h-3.107V56.216z"/>
	<path clip-path="url(#SVGID_2_)" d="M255.3,61.254c-0.482,2.394-2.204,3.696-4.64,3.696c-3.464,0-5.103-2.394-5.207-5.711
		c0-3.255,2.142-5.648,5.103-5.648c3.842,0,5.018,3.59,4.912,6.215h-8.125c-0.063,1.889,1.007,3.569,3.381,3.569
		c1.469,0,2.498-0.714,2.813-2.121H255.3z M253.579,58.231c-0.084-1.701-1.365-3.065-3.129-3.065c-1.869,0-2.981,1.406-3.107,3.065
		H253.579z"/>
	<path clip-path="url(#SVGID_2_)" d="M264.687,57.329c-0.272-1.365-1.217-2.163-2.688-2.163c-2.582,0-3.379,2.037-3.379,4.242
		c0,1.994,0.903,3.968,3.171,3.968c1.721,0,2.75-1.008,2.98-2.646h1.827c-0.399,2.646-2.058,4.221-4.787,4.221
		c-3.317,0-5.081-2.31-5.081-5.543c0-3.255,1.68-5.816,5.123-5.816c2.457,0,4.43,1.154,4.682,3.737H264.687z"/>
	<path clip-path="url(#SVGID_2_)" d="M268.594,49.707h1.784v5.732h0.043c0.588-1.302,2.12-1.848,3.422-1.848
		c2.854,0,3.737,1.638,3.737,3.969v7.138h-1.784V57.35c0-1.323-0.84-2.184-2.205-2.184c-2.162,0-3.213,1.449-3.213,3.401v6.131
		h-1.784V49.707z"/>
	<path clip-path="url(#SVGID_2_)" d="M289.528,61.254c-0.482,2.394-2.204,3.696-4.64,3.696c-3.464,0-5.103-2.394-5.207-5.711
		c0-3.255,2.142-5.648,5.103-5.648c3.842,0,5.018,3.59,4.912,6.215h-8.125c-0.063,1.889,1.007,3.569,3.381,3.569
		c1.469,0,2.498-0.714,2.813-2.121H289.528z M287.808,58.231c-0.084-1.701-1.365-3.065-3.129-3.065
		c-1.869,0-2.981,1.406-3.107,3.065H287.808z"/>
	<path clip-path="url(#SVGID_2_)" d="M291.483,53.843h1.68v2.289h0.041c0.861-1.743,2.059-2.604,3.99-2.541v1.89
		c-2.877,0-3.927,1.637-3.927,4.388v4.829h-1.784V53.843z"/>
	<path clip-path="url(#SVGID_2_)" d="M305.534,57.329c-0.272-1.365-1.217-2.163-2.688-2.163c-2.581,0-3.379,2.037-3.379,4.242
		c0,1.994,0.903,3.968,3.172,3.968c1.72,0,2.75-1.008,2.979-2.646h1.827c-0.399,2.646-2.057,4.221-4.787,4.221
		c-3.317,0-5.081-2.31-5.081-5.543c0-3.255,1.68-5.816,5.123-5.816c2.457,0,4.43,1.154,4.682,3.737H305.534z"/>
	<path clip-path="url(#SVGID_2_)" d="M309.441,49.707h1.784v5.732h0.043c0.588-1.302,2.12-1.848,3.422-1.848
		c2.854,0,3.737,1.638,3.737,3.969v7.138h-1.784V57.35c0-1.323-0.84-2.184-2.205-2.184c-2.162,0-3.213,1.449-3.213,3.401v6.131
		h-1.784V49.707z"/>
	<path clip-path="url(#SVGID_2_)" d="M330.376,61.254c-0.482,2.394-2.204,3.696-4.64,3.696c-3.464,0-5.102-2.394-5.207-5.711
		c0-3.255,2.142-5.648,5.103-5.648c3.842,0,5.018,3.59,4.912,6.215h-8.125c-0.063,1.889,1.008,3.569,3.382,3.569
		c1.468,0,2.497-0.714,2.812-2.121H330.376z M328.655,58.231c-0.084-1.701-1.365-3.065-3.129-3.065
		c-1.869,0-2.981,1.406-3.107,3.065H328.655z"/>
	<rect x="129.347" y="70.707" clip-path="url(#SVGID_2_)" width="3.905" height="14.991"/>
	<path clip-path="url(#SVGID_2_)" d="M135.962,74.843h1.68v1.722h0.042c0.756-1.344,1.973-1.974,3.527-1.974
		c2.855,0,3.737,1.638,3.737,3.968v7.139h-1.784v-7.349c0-1.322-0.84-2.183-2.205-2.183c-2.163,0-3.212,1.448-3.212,3.401v6.131
		h-1.785V74.843z"/>
	<path clip-path="url(#SVGID_2_)" d="M150.115,74.843h2.163v1.575h-2.163v6.739c0,0.819,0.231,0.966,1.344,0.966h0.819v1.575h-1.365
		c-1.848,0-2.583-0.378-2.583-2.373v-6.907h-1.847v-1.575h1.847v-3.254h1.785V74.843z"/>
	<path clip-path="url(#SVGID_2_)" d="M163.511,82.255c-0.483,2.394-2.204,3.695-4.64,3.695c-3.464,0-5.102-2.394-5.207-5.711
		c0-3.255,2.142-5.648,5.103-5.648c3.841,0,5.017,3.59,4.912,6.215h-8.125c-0.063,1.889,1.007,3.568,3.381,3.568
		c1.468,0,2.498-0.714,2.812-2.12H163.511z M161.79,79.231c-0.084-1.701-1.365-3.065-3.129-3.065c-1.869,0-2.981,1.406-3.107,3.065
		H161.79z"/>
	<path clip-path="url(#SVGID_2_)" d="M165.466,74.843h1.68v2.289h0.041c0.861-1.743,2.058-2.604,3.99-2.541v1.89
		c-2.877,0-3.927,1.637-3.927,4.388v4.829h-1.784V74.843z"/>
	<rect x="171.074" y="79.021" clip-path="url(#SVGID_2_)" width="6.066" height="1.68"/>
	<path clip-path="url(#SVGID_2_)" d="M189.237,85.698h-1.785v-1.47h-0.041c-0.588,1.197-1.975,1.722-3.465,1.722
		c-3.338,0-4.997-2.646-4.997-5.711c0-3.066,1.638-5.648,4.955-5.648c1.112,0,2.708,0.42,3.507,1.701h0.041v-5.585h1.785V85.698z
		 M184.198,84.376c2.394,0,3.317-2.059,3.317-4.095c0-2.142-0.966-4.115-3.423-4.115c-2.436,0-3.254,2.078-3.254,4.199
		C180.839,82.401,181.889,84.376,184.198,84.376"/>
	<path clip-path="url(#SVGID_2_)" d="M193.88,72.891h-1.785v-2.184h1.785V72.891z M192.095,74.843h1.785v10.855h-1.785V74.843z"/>
	<path clip-path="url(#SVGID_2_)" d="M197.744,82.276c0.063,1.596,1.448,2.1,2.919,2.1c1.112,0,2.624-0.252,2.624-1.617
		c0-1.386-1.764-1.617-3.548-2.016c-1.765-0.399-3.549-0.987-3.549-3.065c0-2.184,2.162-3.087,4.053-3.087
		c2.393,0,4.304,0.756,4.451,3.402h-1.785c-0.126-1.386-1.344-1.827-2.52-1.827c-1.07,0-2.31,0.294-2.31,1.386
		c0,1.281,1.89,1.491,3.548,1.89c1.785,0.398,3.549,0.986,3.549,3.086c0,2.582-2.414,3.422-4.62,3.422
		c-2.435,0-4.492-0.986-4.597-3.674H197.744z"/>
	<path clip-path="url(#SVGID_2_)" d="M214.522,78.329c-0.273-1.365-1.219-2.163-2.688-2.163c-2.583,0-3.381,2.037-3.381,4.242
		c0,1.994,0.902,3.969,3.17,3.969c1.723,0,2.752-1.009,2.982-2.646h1.826c-0.398,2.646-2.057,4.221-4.787,4.221
		c-3.317,0-5.081-2.31-5.081-5.543c0-3.254,1.68-5.815,5.123-5.815c2.456,0,4.431,1.154,4.683,3.737H214.522z"/>
	<path clip-path="url(#SVGID_2_)" d="M220.318,72.891h-1.784v-2.184h1.784V72.891z M218.534,74.843h1.784v10.855h-1.784V74.843z"/>
	<path clip-path="url(#SVGID_2_)" d="M223.153,74.843h1.785v1.47h0.042c0.588-1.197,1.974-1.722,3.464-1.722
		c3.339,0,4.998,2.646,4.998,5.711c0,3.066-1.639,5.648-4.955,5.648c-1.113,0-2.709-0.42-3.507-1.701h-0.042v5.606h-1.785V74.843z
		 M228.192,76.166c-2.393,0-3.316,2.058-3.316,4.094c0,2.143,0.965,4.115,3.422,4.115c2.436,0,3.254-2.078,3.254-4.199
		C231.552,78.14,230.503,76.166,228.192,76.166"/>
	<rect x="235.649" y="70.707" clip-path="url(#SVGID_2_)" width="1.783" height="14.991"/>
	<path clip-path="url(#SVGID_2_)" d="M242.096,72.891h-1.784v-2.184h1.784V72.891z M240.312,74.843h1.784v10.855h-1.784V74.843z"/>
	<path clip-path="url(#SVGID_2_)" d="M244.868,74.843h1.68v1.722h0.042c0.756-1.344,1.974-1.974,3.527-1.974
		c2.855,0,3.737,1.638,3.737,3.968v7.139h-1.785v-7.349c0-1.322-0.84-2.183-2.204-2.183c-2.163,0-3.212,1.448-3.212,3.401v6.131
		h-1.785V74.843z"/>
	<path clip-path="url(#SVGID_2_)" d="M266.16,85.656c-0.315,0.189-0.714,0.294-1.28,0.294c-0.924,0-1.513-0.504-1.513-1.68
		c-0.986,1.155-2.31,1.68-3.821,1.68c-1.973,0-3.59-0.882-3.59-3.045c0-2.456,1.826-2.981,3.674-3.338
		c1.975-0.378,3.653-0.252,3.653-1.596c0-1.553-1.28-1.805-2.414-1.805c-1.512,0-2.624,0.462-2.708,2.057h-1.785
		c0.105-2.687,2.184-3.632,4.598-3.632c1.953,0,4.074,0.441,4.074,2.981v5.585c0,0.84,0,1.218,0.566,1.218
		c0.146,0,0.314-0.021,0.546-0.104V85.656z M263.263,80.093c-0.693,0.504-2.037,0.524-3.233,0.734
		c-1.176,0.21-2.184,0.63-2.184,1.953c0,1.175,1.008,1.595,2.1,1.595c2.352,0,3.317-1.47,3.317-2.456V80.093z"/>
	<path clip-path="url(#SVGID_2_)" d="M269.71,72.891h-1.785v-2.184h1.785V72.891z M267.925,74.843h1.785v10.855h-1.785V74.843z"/>
	<path clip-path="url(#SVGID_2_)" d="M272.419,74.843h1.68v2.289h0.043c0.86-1.743,2.057-2.604,3.988-2.541v1.89
		c-2.876,0-3.926,1.637-3.926,4.388v4.829h-1.785V74.843z"/>
	<path clip-path="url(#SVGID_2_)" d="M288.36,82.255c-0.483,2.394-2.205,3.695-4.641,3.695c-3.465,0-5.103-2.394-5.207-5.711
		c0-3.255,2.142-5.648,5.102-5.648c3.843,0,5.019,3.59,4.914,6.215h-8.126c-0.063,1.889,1.008,3.568,3.38,3.568
		c1.471,0,2.499-0.714,2.814-2.12H288.36z M286.638,79.231c-0.084-1.701-1.364-3.065-3.128-3.065c-1.868,0-2.981,1.406-3.107,3.065
		H286.638z"/>
	<polygon clip-path="url(#SVGID_2_)" points="129.305,91.707 133.21,91.707 133.21,97.166 138.354,97.166 138.354,91.707 
		142.26,91.707 142.26,106.698 138.354,106.698 138.354,100.525 133.21,100.525 133.21,106.698 129.305,106.698 	"/>
	<path clip-path="url(#SVGID_2_)" d="M149.591,95.592c3.443,0,5.27,2.498,5.27,5.689c0,3.17-1.827,5.669-5.27,5.669
		c-3.444,0-5.271-2.499-5.271-5.669C144.32,98.09,146.147,95.592,149.591,95.592 M149.591,105.376c1.868,0,3.38-1.471,3.38-4.095
		c0-2.646-1.512-4.115-3.38-4.115c-1.869,0-3.381,1.47-3.381,4.115C146.21,103.905,147.722,105.376,149.591,105.376"/>
	<path clip-path="url(#SVGID_2_)" d="M156.962,95.844h1.68v1.596h0.042c0.798-1.218,2.015-1.849,3.507-1.849
		c1.322,0,2.54,0.525,2.98,1.849c0.735-1.155,2.016-1.849,3.402-1.849c2.162,0,3.612,0.903,3.612,3.149v7.958H170.4V99.58
		c0-1.343-0.358-2.414-2.1-2.414c-1.722,0-2.834,1.092-2.834,2.771v6.761h-1.785V99.58c0-1.406-0.442-2.414-2.037-2.414
		c-2.12,0-2.897,1.952-2.897,2.771v6.761h-1.785V95.844z"/>
	<path clip-path="url(#SVGID_2_)" d="M174.875,95.844h1.68v1.596h0.042c0.798-1.218,2.016-1.849,3.506-1.849
		c1.323,0,2.541,0.525,2.982,1.849c0.734-1.155,2.016-1.849,3.4-1.849c2.163,0,3.611,0.903,3.611,3.149v7.958h-1.784V99.58
		c0-1.343-0.356-2.414-2.1-2.414c-1.722,0-2.835,1.092-2.835,2.771v6.761h-1.784V99.58c0-1.406-0.44-2.414-2.036-2.414
		c-2.121,0-2.898,1.952-2.898,2.771v6.761h-1.784V95.844z"/>
	<path clip-path="url(#SVGID_2_)" d="M202.048,103.255c-0.483,2.394-2.205,3.695-4.641,3.695c-3.465,0-5.102-2.394-5.207-5.711
		c0-3.255,2.142-5.647,5.102-5.647c3.843,0,5.019,3.59,4.914,6.215h-8.126c-0.063,1.889,1.008,3.568,3.38,3.568
		c1.471,0,2.499-0.714,2.814-2.12H202.048z M200.325,100.231c-0.084-1.701-1.364-3.065-3.128-3.065
		c-1.868,0-2.981,1.406-3.107,3.065H200.325z"/>
	<path clip-path="url(#SVGID_2_)" d="M214.103,101.659c0.084,1.764,1.176,2.331,2.834,2.331c1.176,0,2.394-0.42,2.394-1.533
		c0-1.323-2.142-1.575-4.304-2.184c-2.143-0.609-4.389-1.574-4.389-4.325c0-3.275,3.297-4.556,6.109-4.556
		c2.982,0,5.984,1.448,6.006,4.829h-3.906c0.063-1.365-1.217-1.807-2.414-1.807c-0.84,0-1.89,0.294-1.89,1.281
		c0,1.155,2.163,1.365,4.347,1.974c2.162,0.609,4.346,1.616,4.346,4.325c0,3.8-3.233,5.019-6.529,5.019
		c-3.443,0-6.488-1.513-6.51-5.354H214.103z"/>
	<path clip-path="url(#SVGID_2_)" d="M229.747,95.592c3.443,0,5.271,2.498,5.271,5.689c0,3.17-1.827,5.669-5.271,5.669
		s-5.271-2.499-5.271-5.669C224.477,98.09,226.304,95.592,229.747,95.592 M229.747,105.376c1.868,0,3.38-1.471,3.38-4.095
		c0-2.646-1.512-4.115-3.38-4.115c-1.869,0-3.381,1.47-3.381,4.115C226.366,103.905,227.878,105.376,229.747,105.376"/>
	<path clip-path="url(#SVGID_2_)" d="M244.487,99.328c-0.272-1.364-1.217-2.162-2.688-2.162c-2.581,0-3.379,2.036-3.379,4.241
		c0,1.994,0.903,3.969,3.171,3.969c1.721,0,2.75-1.009,2.98-2.646h1.827c-0.399,2.646-2.058,4.221-4.787,4.221
		c-3.317,0-5.081-2.31-5.081-5.543c0-3.255,1.68-5.815,5.123-5.815c2.457,0,4.43,1.154,4.682,3.736H244.487z"/>
	<path clip-path="url(#SVGID_2_)" d="M250.284,93.891h-1.785v-2.184h1.785V93.891z M248.499,95.843h1.785v10.855h-1.785V95.843z"/>
	<path clip-path="url(#SVGID_2_)" d="M262.315,103.255c-0.482,2.394-2.204,3.695-4.64,3.695c-3.464,0-5.103-2.394-5.207-5.711
		c0-3.254,2.142-5.648,5.103-5.648c3.842,0,5.018,3.591,4.912,6.215h-8.125c-0.063,1.891,1.007,3.569,3.381,3.569
		c1.469,0,2.498-0.713,2.813-2.12H262.315z M260.595,100.231c-0.084-1.7-1.365-3.065-3.129-3.065c-1.869,0-2.981,1.407-3.107,3.065
		H260.595z M257.886,91.35h2.289l-2.751,3.003h-1.344L257.886,91.35z"/>
	<path clip-path="url(#SVGID_2_)" d="M266.811,95.844h2.163v1.574h-2.163v6.739c0,0.819,0.23,0.966,1.344,0.966h0.819v1.575h-1.365
		c-1.848,0-2.582-0.378-2.582-2.373v-6.907h-1.848v-1.574h1.848v-3.255h1.784V95.844z"/>
	<path clip-path="url(#SVGID_2_)" d="M280.206,103.255c-0.482,2.394-2.204,3.695-4.64,3.695c-3.464,0-5.102-2.394-5.207-5.711
		c0-3.254,2.142-5.648,5.103-5.648c3.842,0,5.018,3.591,4.912,6.215h-8.125c-0.063,1.891,1.008,3.569,3.382,3.569
		c1.468,0,2.497-0.713,2.812-2.12H280.206z M278.485,100.231c-0.084-1.7-1.365-3.065-3.129-3.065c-1.869,0-2.981,1.407-3.107,3.065
		H278.485z M275.776,91.35h2.289l-2.751,3.003h-1.344L275.776,91.35z"/>
	<path clip-path="url(#SVGID_2_)" fill="#00AFDC" d="M114.658,39.514c-0.67-3.092-3.629-5.176-6.803-4.703l-31.588,4.703H114.658z"
		/>
	<path clip-path="url(#SVGID_2_)" fill="#00AFDC" d="M46.57,124.431c0.467,3.129,3.283,5.401,6.48,5.139l31.829-2.633L46.57,124.431
		z"/>
	<path clip-path="url(#SVGID_2_)" fill="#00AFDC" d="M44.57,44.475c0.011-0.141,0.035-0.273,0.055-0.408l-0.239,0.015
		c-3.337,0.215-5.869,3.096-5.652,6.434l2.33,36.004L44.57,44.475z"/>
	<path clip-path="url(#SVGID_2_)" fill="#00AFDC" d="M126.138,117.064l-5.186-34.821v41.328c0,0.133-0.011,0.262-0.019,0.392
		l0.105-0.015C124.347,123.454,126.63,120.374,126.138,117.064"/>
	<path clip-path="url(#SVGID_2_)" fill="#4B1B4C" d="M108.915,41.34H49.964c-0.538,0-1.062,0.055-1.578,0.139
		c-0.941,1.451-1.554,3.158-1.717,5.017l-5.631,64.618c-0.513,5.886,3.673,11.06,9.346,11.556l56.635,4.935h1.896
		c5.696,0,10.313-4.791,10.313-10.701V52.039C119.228,46.131,114.611,41.34,108.915,41.34 M50.442,113.734h-5.015V94.483h5.015
		V113.734z M66.105,113.734c-0.432-0.648-0.512-2.534-0.567-3.074c-0.134-1.941-0.458-3.936-2.803-3.936h-3.802v7.01h-5.015V94.483
		h9.814c3.397,0,6.741,1.537,6.741,5.419c0,2.076-0.998,4.045-3.02,4.826v0.055c2.049,0.485,2.642,2.776,2.804,4.61
		c0.054,0.808,0.135,3.64,0.809,4.341H66.105z M78.396,113.734h-5.015V94.483h5.015V113.734z M98.455,113.734h-5.016v-7.927h-6.606
		v7.927h-5.014V94.483h5.014v7.009h6.606v-7.009h5.016V113.734z M109.101,114.139c-4.422,0-8.332-1.941-8.358-6.875h5.015
		c0.108,2.265,1.51,2.991,3.639,2.991c1.511,0,3.074-0.539,3.074-1.968c0-1.698-2.75-2.021-5.527-2.803
		c-2.75-0.783-5.635-2.023-5.635-5.555c0-4.206,4.233-5.852,7.846-5.852c3.828,0,7.684,1.861,7.711,6.202h-5.015
		c0.081-1.753-1.564-2.319-3.101-2.319c-1.078,0-2.426,0.377-2.426,1.646c0,1.481,2.777,1.752,5.581,2.534
		c2.777,0.781,5.581,2.075,5.581,5.555C117.486,112.575,113.334,114.139,109.101,114.139"/>
	<path clip-path="url(#SVGID_2_)" fill="#4B1B4C" d="M62.923,98.501h-3.99v4.341h4.206c1.51,0,2.319-0.81,2.319-2.266
		C65.458,99.146,64.325,98.501,62.923,98.501"/>
	<path clip-path="url(#SVGID_2_)" fill="#00AFDC" d="M99.086,69.134c0,4.277-3.521,7.745-7.867,7.745
		c-4.346,0-7.867-3.468-7.867-7.745s3.521-7.746,7.867-7.746C95.565,61.388,99.086,64.857,99.086,69.134"/>
	<path clip-path="url(#SVGID_2_)" d="M94.487,69.134c0,1.537-1.464,2.783-3.268,2.783c-1.804,0-3.268-1.246-3.268-2.783
		s1.464-2.783,3.268-2.783C93.023,66.351,94.487,67.597,94.487,69.134"/>
	<path clip-path="url(#SVGID_2_)" fill="#FFFFFF" d="M91.546,67.099c0,1.046-0.995,1.893-2.222,1.893
		c-1.226,0-2.22-0.847-2.22-1.893c0-1.044,0.994-1.891,2.22-1.891C90.551,65.208,91.546,66.055,91.546,67.099"/>
	<path clip-path="url(#SVGID_2_)" fill="#FFFFFF" d="M43.065,87.849l38.08-7.804c0,0,15.09,9.636,22.879-5.212l15.204-2.377v-3.39
		l-16.908,3.333c0,0-4.625,12.796-20.444,3.844l-38.371,6.563L43.065,87.849z"/>
	<path clip-path="url(#SVGID_2_)" fill="#FFFFFF" d="M79.12,65.97h2.1c0,0,1.612-6.617,10.166-7.101c0,0,7.261,0.164,9.519,7.101
		l3.067,1.129c0,0-2.742-10.287-12.426-10.227C91.546,56.872,81.862,55.803,79.12,65.97"/>
</g>
</svg>
