<!DOCTYPE svg PUBLIC "-//W3C//DTD SVG 1.1//EN" "http://www.w3.org/Graphics/SVG/1.1/DTD/svg11.dtd">

<svg xmlns="http://www.w3.org/2000/svg" version="1.1" width="233.68518" height="197.86218">
  <g transform="translate(-610.15914,-36)">
    <path d="m 647.43555,213.16989 c 1.13545,-1.00656 3.86445,-2.34982 6.06445,-2.98504 5.41771,-1.56427 15,-7.4716 15,-9.24726 0,-2.41449 -12.73292,-1.74407 -20.5,1.07937 -7.55069,2.74478 -15.84344,8.83159 -13.79906,10.12839 0.71448,0.45321 2.64906,0.83781 4.29906,0.85465 1.65,0.0168 3.675,0.46684 4.5,1 1.99708,1.29061 2.05564,1.27965 4.43555,-0.83011 z m 169.29371,-24.4513 c -1.54344,2.51176 -4.56111,1.45998 -7.37046,4.88842 -1.97985,2.41615 -4.21014,4.39299 -4.95621,4.39299 -0.74607,0 -2.15417,1.2375 -3.12913,2.75 -0.97495,1.5125 -2.67282,3.50819 -3.77305,4.43487 -1.80307,1.51866 0.12509,2.84449 -0.56645,4 -1.50949,2.52224 -4.52475,3.81771 -7.11042,5.21577 -2.17245,1.17464 -5.99107,2.59936 -6.9381,2.59936 -3.14902,0 -4.88531,1.19028 -4.89691,3.35699 -0.008,1.5153 -1.2052,2.7151 -4.08688,4.09615 -4.00646,1.9201 -7.61523,2.13407 -25.90165,1.53576 -12.54696,-0.41052 -26.4068,0.10382 -27.51189,1.02097 -2.42369,2.01148 -7.37059,-1.13537 -9.96483,-6.33891 -0.58015,-1.16365 -2.62272,-2.57816 -4.53904,-3.14334 -4.91347,-1.44915 -6.00102,-2.32352 -7.57476,-6.09002 -2.49954,-5.98224 -11.39567,-11.09662 -16.20636,-9.31703 -2.64031,0.97671 -7.65786,5.84158 -11.20312,9.09119 -5.28687,4.84597 -4.75988,11.76248 -14.95709,15.46594 -1.53439,0.57917 -5.04065,0.83676 -7.79167,0.57242 -4.05594,-0.38973 -6.01592,0.0287 -10.36391,2.21258 -4.19317,2.10611 -6.23676,2.56761 -9.37469,2.11709 -2.20695,-0.31686 -4.67736,-0.1497 -5.4898,0.37146 -0.98473,0.63168 -2.16017,0.22452 -3,-0.32932 -4.39511,-2.89844 -7.56194,-8.49174 -7.76724,-13.75252 -0.0804,-2.06079 0.73766,-3.32919 2.61357,-5.60797 C 624.71264,200.30399 636.06482,192 642.5681,192 c 1.27263,0 2.59198,-0.45 2.9319,-1 0.33992,-0.55 2.63741,-1 5.10553,-1 3.93798,0 4.69609,-0.36659 6.19098,-2.99368 2.16303,-3.80126 4.61869,-3.83236 6.17373,-0.0782 1.7803,4.29805 3.46168,4.38838 8.18772,0.43989 3.6208,-3.02509 4.67963,-3.4288 7.2891,-2.77915 9.28845,2.31243 17.80838,-0.63227 23.21008,-8.02198 2.11357,-2.89144 5.33142,-6.33935 7.15078,-7.66203 C 714.11516,165.04649 720,159.47402 720,158.30688 c 0,-0.59227 1.11564,-1.80785 2.47919,-2.70129 1.36355,-0.89343 3.19344,-3.00564 4.06642,-4.69379 0.94289,-1.82335 3.08258,-3.68673 5.27081,-4.59016 4.94922,-2.04334 6.94638,-3.96518 7.70368,-7.41315 0.3484,-1.58626 1.61368,-3.6771 2.81173,-4.6463 1.19805,-0.96921 2.97387,-2.99969 3.94627,-4.51219 0.9724,-1.5125 2.35419,-2.75 3.07064,-2.75 1.38981,0 5.65126,-4.0925 5.65126,-5.42721 0,-1.15128 4.56396,-6.5933 11.75,-14.01057 3.4375,-3.54811 6.25,-6.84192 6.25,-7.31957 0,-0.477659 1.31153,-2.124989 2.9145,-3.660738 C 778.89331,93.728038 785,82.436386 785,79.782273 785,77.662775 781.71716,75 779.10411,75 c -1.26277,0 -3.67717,-1.525521 -5.53934,-3.5 -2.64512,-2.804641 -4.07216,-3.50872 -7.18285,-3.543893 -2.13505,-0.02414 -5.68192,-0.72643 -7.88192,-1.560641 -6.12753,-2.323482 -17.6252,-6.377921 -21.22234,-7.483667 -1.77229,-0.544793 -3.62908,-1.717339 -4.12621,-2.605657 -0.96714,-1.728177 -1.19737,-1.665129 -8.05873,2.206792 C 721.15837,60.733116 719.53639,61 709.97757,61 c -8.88965,0 -11.1128,0.313951 -13.09271,1.84893 -1.6195,1.25556 -4.90432,2.056512 -10.23545,2.495749 -5.97437,0.492236 -8.53304,1.185566 -10.70612,2.90107 -1.57053,1.239838 -5.04441,3.950311 -7.71973,6.023272 -4.54036,3.518093 -4.9515,4.217148 -6.17547,10.5 -0.72119,3.702039 -1.77186,7.619351 -2.33482,8.705138 -0.56297,1.085788 -0.95699,3.673288 -0.87562,5.75 C 658.94531,101.97178 658.57909,103 657.4928,103 656.67176,103 656,102.40031 656,101.66736 656,100.00573 648.65095,94 646.61766,94 644.21457,94 643.86597,92.422359 645.13752,87.301296 646.55005,81.612405 650.49428,76 653.07973,76 c 1.0133,0 2.70289,-0.923674 3.75466,-2.05261 1.05176,-1.128935 3.19329,-2.395201 4.75896,-2.813925 1.85978,-0.497383 3.0456,-1.604031 3.4205,-3.192139 0.31829,-1.348307 1.44497,-2.588952 2.53,-2.785905 C 668.61973,64.960126 670.4,64.001497 671.5,63.025133 674.29132,60.547549 677.51207,59 679.8771,59 c 1.10472,0 3.4968,-0.877462 5.31574,-1.949916 1.81894,-1.072453 4.88594,-2.123438 6.81557,-2.335521 1.92962,-0.212083 4.48754,-0.90962 5.68426,-1.550084 C 698.88939,52.524016 701.95268,52 704.5,52 c 2.54732,0 5.6034,-0.520154 6.7913,-1.155897 2.70294,-1.446573 23.61555,-1.499504 26.29305,-0.06655 1.06532,0.570138 3.1169,0.81105 4.55908,0.53536 1.44217,-0.275689 2.9151,-0.02723 3.27316,0.552133 0.41352,0.66908 3.0408,0.830227 7.20141,0.441704 5.90485,-0.551404 7.20726,-0.308973 13.21618,2.460072 11.81081,5.442678 14.23324,6.377414 15.4609,5.965841 0.6627,-0.222173 3.45492,0.642693 6.20492,1.921924 7.38808,3.436748 9.47827,3.037908 16.25,-3.100755 2.30143,-2.08628 3.25447,-3.837478 3.26531,-6 0.0196,-3.911702 0.71049,-4.886229 4.98469,-7.031274 1.925,-0.966078 4.4,-2.566447 5.5,-3.556376 1.1,-0.989929 4.60188,-2.708285 7.78195,-3.81857 l 5.78195,-2.0187 5.02453,2.606819 c 5.97793,3.101458 6.90221,4.552132 6.05285,9.500042 -0.58007,3.37922 -6.46018,12.248294 -10.03593,15.13739 -0.76706,0.61976 -4.83329,4.552993 -9.03605,8.740519 -4.20277,4.187526 -9.08768,8.361582 -10.85535,9.27568 -1.76767,0.914099 -3.21359,2.437941 -3.21316,3.386317 10e-4,2.409685 5.34452,13.444655 7.28969,15.054311 2.23985,1.85351 3.72292,6.86505 4.19344,14.17033 0.22025,3.41956 0.63961,6.45654 0.93191,6.74885 0.29231,0.2923 -0.24161,1.84017 -1.18648,3.43971 -1.65327,2.79877 -1.63525,3.05194 0.47874,6.72507 2.09119,3.63352 2.42281,5.97945 2.43703,17.23972 0.006,4.58238 -1.90145,9.65314 -4.92949,13.10605 -1.23925,1.41313 -1.31394,2.20094 -0.37921,4 0.64019,1.23215 0.86431,3.46785 0.91378,5.24028 0.16123,5.77668 1.00456,12.29494 -2.02094,17.21859 z M 766,207.3955 c 13.29276,-1.63784 13.87544,-1.83708 22.36199,-7.64634 4.06132,-2.78007 5.65943,-4.57019 6.1748,-6.91668 0.38244,-1.74122 1.54143,-4.55334 2.57554,-6.24916 C 798.14644,184.88749 798.99589,182.6 799,181.5 c 0.0102,-2.73011 3.61807,-8.44362 5.75572,-9.11494 6.10273,-1.9165 6.40211,-2.21455 4.75285,-4.73164 -0.85172,-1.29989 -1.53783,-4.34118 -1.5247,-6.75842 0.14321,-26.35635 0.34895,-31.45507 1.33286,-33.03056 0.87354,-1.39876 0.60704,-2.92658 -1.23398,-7.07425 -1.29149,-2.9096 -2.55762,-6.86519 -2.81363,-8.79019 -0.60471,-4.54688 -5.14995,-14 -6.73148,-14 -0.67522,0 -2.04215,0.9 -3.03764,2 -0.99549,1.1 -2.16767,2 -2.60486,2 -1.21733,0 -9.76186,5.95082 -10.629,7.40254 -0.42138,0.70545 -2.11614,2.11043 -3.76614,3.12219 -1.65,1.01175 -4.2033,2.93401 -5.67399,4.27168 -1.70351,1.54943 -4.33959,2.61987 -7.26327,2.94941 -3.47832,0.39206 -4.34275,0.81432 -3.57089,1.74436 0.71834,0.86554 0.42761,1.97814 -0.98673,3.77618 -1.10282,1.402 -2.00512,2.93383 -2.00512,3.40405 0,0.47023 -2.7,3.62273 -6,7.00557 -3.3,3.38284 -6,6.49813 -6,6.92287 0,1.50313 -4.37301,5.40115 -6.0593,5.40115 -0.94088,0 -2.38087,1.02284 -3.2,2.27299 -0.81912,1.25014 -5.25838,6.15601 -9.86501,10.90193 -4.60663,4.74592 -11.14538,11.48557 -14.53055,14.97701 -3.38517,3.49144 -7.43517,7.33061 -9,8.53149 -2.7455,2.10694 -2.7909,2.28205 -1.2963,5 1.2348,2.2455 2.24858,2.81658 5,2.81658 3.06163,0 3.4207,0.27412 3.18129,2.4287 -0.31524,2.83691 1.39468,4.20357 4.33577,3.46541 1.21686,-0.30542 2.62215,0.12755 3.38075,1.0416 0.71403,0.86036 2.55314,1.56429 4.0869,1.56429 1.92206,0 3.63318,1.00997 5.50625,3.25 1.49468,1.7875 3.32816,3.475 4.0744,3.75 3.15029,1.16092 21.79789,0.82328 33.3858,-0.6045 z M 793.89504,92.196118 c 1.22477,-2.288498 -0.19172,-4.679986 -2.29412,-3.87322 C 789.1812,89.251434 789.62498,94 792.13148,94 c 0.43899,0 1.23259,-0.811747 1.76356,-1.803882 z M 815.09312,70.708373 C 819.36094,66.897549 827,55.939791 827,53.62869 c 0,-1.911236 -2.58839,-2.064632 -5.695,-0.337504 -2.42403,1.347641 -9.305,9.02774 -9.305,10.385644 0,0.472395 -1.125,2.514487 -2.5,4.537982 -1.375,2.023494 -2.5,4.152955 -2.5,4.732134 0,2.145426 4.61209,0.869713 8.09312,-2.238573 z M 662.69235,145.71797 c -0.88126,-0.66988 -2.0658,-2.467 -2.63231,-3.9936 -1.0481,-2.82433 -1.46294,-3.09781 -6.31004,-4.1599 -2.18974,-0.47981 -2.75,-1.16455 -2.75,-3.36102 0,-1.51714 -0.61859,-3.64607 -1.37466,-4.73094 -0.75606,-1.08488 -1.69561,-3.88501 -2.08789,-6.22251 -0.79106,-4.71365 -0.004,-5.25698 3.90513,-2.69566 2.98793,1.95776 3.67023,0.87974 2.5597,-4.04423 -0.93082,-4.12712 0.12006,-7.51011 2.3329,-7.51011 2.81138,0 3.37538,2.2054 2.89801,11.33191 -0.40193,7.68417 -0.21199,9.44079 1.14236,10.56481 0.89345,0.74149 1.62445,1.98981 1.62445,2.77403 0,0.78422 0.9,3.28865 2,5.56539 1.1,2.27673 2,4.70344 2,5.39267 0,1.93163 -1.53458,2.43694 -3.30765,1.08916 z m -16.6134,-32.3013 c 0.048,-1.16495 0.28494,-1.4019 0.60416,-0.60417 0.28887,0.72187 0.25335,1.58437 -0.0789,1.91667 -0.33229,0.33229 -0.56864,-0.25834 -0.52522,-1.3125 z" />
    <path d="m 647.61817,212.55265 c 0.30547,-0.79604 3.52498,-2.43556 7.15446,-3.64337 8.66137,-2.88232 13.41296,-5.72921 12.99655,-7.78683 -0.86872,-4.29269 -24.57427,0.84782 -29.86103,6.47532 -1.23715,1.31689 -2.0601,2.52319 -1.82876,2.68067 1.83754,1.25087 7.76251,3.60593 9.20199,3.65761 0.97977,0.0352 2.03132,-0.58736 2.33679,-1.3834 z M 765,207.58535 c 13.85443,-1.84466 15.86305,-2.40026 20,-5.53218 1.925,-1.45734 4.6984,-3.40024 6.1631,-4.31755 1.56203,-0.97827 2.95375,-2.99115 3.36607,-4.86842 0.38663,-1.76031 1.54905,-4.58806 2.58316,-6.28388 C 798.14644,184.88749 798.99589,182.6 799,181.5 c 0.0102,-2.73011 3.61807,-8.44362 5.75572,-9.11494 6.21043,-1.95032 6.42553,-2.1788 4.63045,-4.91845 -1.40767,-2.14836 -1.66161,-5.3197 -1.61156,-20.12543 0.0379,-11.20341 0.45204,-17.96783 1.1424,-18.65819 1.62047,-1.62047 1.33888,-3.38306 -1.41701,-8.86992 -1.375,-2.73757 -2.5,-6.34006 -2.5,-8.00554 C 805,108.95804 799.52166,99 797.95403,99 797.564,99 796.68469,99.675 796,100.5 c -0.68469,0.825 -1.83141,1.5 -2.54826,1.5 -0.71685,0 -5.94925,3.85435 -11.62755,8.56522 -5.67831,4.71087 -11.5598,8.81675 -13.07,9.12416 -2.90329,0.591 -9.75419,7.38003 -9.75419,9.66611 0,0.74235 -2.5875,3.86494 -5.75,6.93909 -3.1625,3.07415 -6.79673,6.96548 -8.07606,8.64739 -1.27933,1.68192 -2.85751,3.05803 -3.50706,3.05803 -0.64955,0 -3.42782,2.63363 -6.17394,5.85252 -2.74612,3.21888 -6.34294,6.81432 -7.99294,7.98987 -1.65,1.17555 -5.94476,5.62519 -9.54391,9.8881 -3.59916,4.2629 -8.40916,9.10496 -10.6889,10.76012 -6.03714,4.38316 -5.56104,9.71689 0.88453,9.90939 2.87147,0.0858 3.35162,0.45601 3.37171,2.6 0.0202,2.14983 0.4896,2.50781 3.35156,2.55578 2.04374,0.0343 3.69403,0.70961 4.27626,1.75 0.53315,0.95269 2.15358,1.69422 3.70227,1.69422 1.83105,0 3.88314,1.16483 6.12263,3.47539 3.23338,3.33601 3.64292,3.47032 10.21184,3.34901 3.76386,-0.0695 7.13632,0.16657 7.49436,0.52461 1.0075,1.0075 6.8422,0.76425 18.31765,-0.76366 z m 52,-18.87169 c -1.63669,2.90654 -8,3.74546 -8,6.01168 0,0.75719 -1.55877,2.02801 -3.46393,2.82404 -1.90517,0.79603 -4.00158,2.46056 -4.6587,3.69897 -0.65712,1.23841 -2.85582,2.00962 -3.03607,3.55835 -0.77587,6.66651 -4.51001,10.92503 -14.18998,14.09518 -9.58394,8.12149 -19.0193,7.74453 -28.73646,7.74635 -2.48698,4.6e-4 -5.21489,-0.867 -7.41489,-0.82774 -14.55272,0.2597 -26.22738,0.90838 -27.57755,1.53231 -3.3697,1.55718 -6.76716,-4.1063 -9.89065,-6.52316 -6.24522,-4.83236 -10.09244,-13.38733 -17.58885,-15.86891 -5.15261,-1.7057 -10.42101,-4.08722 -16.20988,1.53927 0,0 -3.14391,2.94318 -4.62986,4.5 -4.57566,4.79386 -7.59455,11.31656 -13.17804,14.8862 -2.24171,1.43318 -6.73898,3.20017 -7.64538,2.29377 -1.97863,-1.97863 -8.02075,-1.30433 -12.77979,1.42624 -3.67256,2.10718 -5.30839,2.47255 -8.89641,1.98702 -2.5574,-0.34607 -4.93461,-0.14825 -5.68307,0.47292 -0.92931,0.77125 -1.93018,0.65295 -3.6036,-0.42596 -1.2743,-0.82159 -7.29885,-0.0742 -8.81692,-2.75287 -2.68612,-4.73965 1.73895,-10.85914 3.83669,-15.88696 0.52813,-1.26581 2.16323,-3.50018 2.16323,-3.50018 1.18978,-1.9251 2.60282,-3.50018 3.1401,-3.50018 0.53728,0 2.75474,-1.95352 4.92768,-4.34115 5.44318,-5.98099 14.93567,-10.39392 26.139,-12.15166 2.25925,-0.35447 4.46315,-1.54326 5.64392,-3.04437 2.57003,-3.26727 4.63871,-3.10998 6.11965,0.46532 1.75837,4.24509 3.33631,4.34905 7.54188,0.49689 4.07209,-3.72988 5.31931,-3.9772 11.72353,-2.32467 3.78649,0.97706 4.88888,0.81914 9.83754,-1.40919 3.92321,-1.76659 6.67567,-3.94271 9.29707,-7.35037 2.04814,-2.66244 5.32629,-5.9658 7.28477,-7.3408 4.17116,-2.92845 8.25251,-7.07383 15.65054,-15.89607 3.49609,-4.16913 6.55269,-6.78043 8.77898,-7.5 2.56398,-0.82872 3.97537,-2.22578 5.66142,-5.60393 1.23528,-2.475 3.03543,-5.175 4.00032,-6 0.96489,-0.825 2.28927,-2.69847 2.94307,-4.16327 0.6538,-1.46479 2.06468,-2.94128 3.1353,-3.28108 1.07062,-0.3398 4.19625,-3.64133 6.94585,-7.33673 2.7496,-3.69541 7.52924,-9.10989 10.62142,-12.03219 3.09218,-2.9223 6.30553,-6.6348 7.14079,-8.25 C 774.36797,97.321529 775.41402,96 775.85727,96 c 1.1402,0 6.63726,-8.848848 7.98182,-12.84867 1.50715,-4.483518 0.10199,-6.884155 -4.5391,-7.754831 -2.23216,-0.418754 -4.61866,-1.810204 -6.07674,-3.543033 C 771.56846,69.886867 769.89274,69 767.83166,69 c -1.6448,0 -5.76809,-1.11119 -9.16286,-2.469312 -6.58884,-2.635951 -15.94525,-5.957467 -21.6688,-7.692405 -1.925,-0.583511 -3.80815,-1.552395 -4.18477,-2.153075 -0.45641,-0.727937 -2.79077,-0.04347 -7,2.052491 -6.1061,3.040502 -6.64879,3.128923 -16.38799,2.67013 -9.11335,-0.42931 -10.32586,-0.275417 -12.73003,1.615705 -1.96927,1.549031 -4.51033,2.196934 -9.81436,2.502411 -4.27305,0.246099 -8.0085,1.033403 -9.26997,1.953789 -1.16208,0.847874 -3.68788,2.639341 -5.61288,3.981039 -7.69837,5.365657 -8.11974,5.941233 -9.59507,13.106789 -0.78504,3.812841 -1.96927,8.272224 -2.63161,9.90974 -0.66235,1.637516 -1.07339,4.225016 -0.91343,5.749998 C 659.06758,102.20729 658.70034,103 657.57537,103 656.70891,103 656,102.37841 656,101.61869 c 0,-1.59706 -6.47861,-6.851587 -9.47087,-7.681421 -1.72186,-0.477518 -1.97694,-1.233528 -1.6845,-4.99256 0.54649,-7.024501 4.18993,-12.354116 9.19741,-13.453943 1.53499,-0.337139 3.03231,-1.242131 3.32739,-2.011093 0.29508,-0.768963 2.02017,-1.780563 3.83354,-2.248 2.32305,-0.59882 3.39351,-1.513018 3.62364,-3.094658 0.18027,-1.238945 1.36895,-2.641067 2.65286,-3.12921 1.27944,-0.486441 2.6235,-1.365396 2.9868,-1.953233 0.86186,-1.394521 6.47955,-4.29544 9.03373,-4.664931 1.1,-0.159128 4.475,-1.167608 7.5,-2.241067 13.14305,-4.663975 23.82005,-6.485364 37,-6.311829 12.65088,0.16657 20.0283,0.924477 21.38085,2.196529 0.48446,0.455632 3.87748,0.577194 7.54004,0.270139 5.50788,-0.461761 7.36549,-0.197962 10.74435,1.525807 6.39895,3.264501 14.5886,6.169723 17.39363,6.170276 1.40738,2.77e-4 3.43238,0.668203 4.5,1.484281 3.76847,2.880572 9.1055,3.741143 12.45609,2.008485 C 803.1865,60.817955 807,56.099372 807,52.374739 c 0,-2.556521 0.63789,-3.719069 2.75,-5.011833 1.5125,-0.92576 4.325,-2.707102 6.25,-3.958539 1.925,-1.251436 6.31043,-3.238663 9.74539,-4.41606 l 6.24539,-2.140721 2.63947,2.076207 C 836.08196,40.065707 837.82893,41 838.51241,41 c 3.23664,0 5.34278,7.378637 3.25154,11.391436 C 839.56331,56.614162 831.732,65.801079 829.44458,66.843298 828.10006,67.455902 827,68.340449 827,68.80896 827,70.144974 814.29243,82.347679 812.02933,83.184855 810.73775,83.66264 810,84.836891 810,86.414861 c 0,2.636549 3.9262,10.711433 6.8404,14.068429 3.13176,3.6076 4.13539,6.8804 4.59873,14.99616 0.37112,6.50065 0.14531,8.32226 -1.21846,9.8292 -1.57179,1.73681 -1.53547,2.09046 0.59487,5.79201 1.88906,3.28231 2.29725,5.57847 2.43839,13.71633 0.1541,8.88595 -0.0789,10.24918 -2.56447,15.0027 -1.99453,3.81446 -2.48042,5.70239 -1.79651,6.98029 0.59303,1.10808 0.007,2.35955 -0.0614,3.53658 -0.35899,6.14557 1.18899,13.01303 -1.83155,18.3771 z M 793.5,90.666667 c 0,-2.606549 -1.9609,-2.44297 -2.33415,0.194715 -0.22908,1.618918 0.0853,2.221555 1,1.916667 C 792.89963,92.533455 793.5,91.583333 793.5,90.666667 z M 814.45731,69.816985 C 818.53444,66.943155 827,56.286292 827,54.027623 827,50.735866 820.75865,52.735697 816.74834,57.312424 812.42207,62.249737 807.43495,73 809.47076,73 c 0.25892,0 2.50287,-1.432357 4.98655,-3.183015 z M 663.01213,146.0075 c -0.7658,-0.47329 -2.09734,-2.3561 -2.95898,-4.18402 -1.22942,-2.60814 -2.31536,-3.4311 -5.04529,-3.82348 -3.11075,-0.44712 -3.542,-0.89109 -4.07734,-4.1976 -0.32925,-2.03367 -1.12273,-4.32907 -1.76328,-5.10088 -0.64054,-0.77181 -1.45138,-3.4954 -1.80186,-6.05241 -0.51604,-3.76497 -0.3494,-4.64911 0.87625,-4.64911 0.83241,0 2.07368,0.675 2.75837,1.5 2.18979,2.63854 2.9785,1.62226 2.34244,-3.01829 -0.48686,-3.55205 -0.23421,-4.94382 1.18144,-6.5081 1.64013,-1.81232 1.9545,-1.85066 3.52453,-0.4298 1.46038,1.32162 1.6436,2.84545 1.19899,9.97194 -0.42102,6.74846 -0.20075,8.90651 1.1139,10.91291 0.90128,1.37553 1.6387,2.98854 1.6387,3.58446 0,0.59592 0.9,2.94628 2,5.22302 2.82887,5.85507 2.39058,8.85935 -0.98787,6.77136 z M 645.4,114.6 c -0.36606,-0.95394 -0.17057,-2.22943 0.43443,-2.83443 0.8,-0.8 1.28152,-0.62698 1.76557,0.63443 0.36606,0.95394 0.17057,2.22943 -0.43443,2.83443 -0.8,0.8 -1.28152,0.62698 -1.76557,-0.63443 z" />
  </g>
</svg>
