<?xml version="1.0" encoding="UTF-8" standalone="no"?>
<!-- Created with Inkscape (http://www.inkscape.org/) -->

<svg
   xmlns:dc="http://purl.org/dc/elements/1.1/"
   xmlns:cc="http://creativecommons.org/ns#"
   xmlns:rdf="http://www.w3.org/1999/02/22-rdf-syntax-ns#"
   xmlns:svg="http://www.w3.org/2000/svg"
   xmlns="http://www.w3.org/2000/svg"
   xmlns:sodipodi="http://sodipodi.sourceforge.net/DTD/sodipodi-0.dtd"
   xmlns:inkscape="http://www.inkscape.org/namespaces/inkscape"
   id="svg3071"
   version="1.1"
   inkscape:version="0.48.4 r9939"
   width="915.23346"
   height="354.60144"
   sodipodi:docname="logo.svg">
  <metadata
     id="metadata3077">
    <rdf:RDF>
      <cc:Work
         rdf:about="">
        <dc:format>image/svg+xml</dc:format>
        <dc:type
           rdf:resource="http://purl.org/dc/dcmitype/StillImage" />
        <dc:title />
      </cc:Work>
    </rdf:RDF>
  </metadata>
  <defs
     id="defs3075" />
  <sodipodi:namedview
     pagecolor="#ffffff"
     bordercolor="#666666"
     borderopacity="1"
     objecttolerance="10"
     gridtolerance="10"
     guidetolerance="10"
     inkscape:pageopacity="0"
     inkscape:pageshadow="2"
     inkscape:window-width="1920"
     inkscape:window-height="1056"
     id="namedview3073"
     showgrid="false"
     inkscape:zoom="1.6024842"
     inkscape:cx="483.28227"
     inkscape:cy="162.66747"
     inkscape:window-x="0"
     inkscape:window-y="24"
     inkscape:window-maximized="1"
     inkscape:current-layer="svg3071"
     fit-margin-top="0"
     fit-margin-left="0"
     fit-margin-right="0"
     fit-margin-bottom="0" />
  <g
     id="g3081"
     transform="translate(-353.07539,27.35179)" />
  <path
     style="fill:#000000"
     d="m 425.66676,277.40241 c 6.9033,-10.94965 14.026,-22.53908 16.1741,-35.30372 1.319,-7.83767 -0.3419,-16.02785 -2.2891,-23.7335 -0.6835,-2.70492 -2.3052,-4.41275 -3.2508,-7.71275 -1.7204,-6.00434 -4.4212,-10.90218 -7.3063,-13.25 -2.0949,-1.70476 -3.1538,-1.56884 -3.1538,0.40484 0,0.91016 -1.8903,3.45303 -4.2007,5.65083 -2.3103,2.1978 -4.8978,5.37181 -5.75,7.05335 -0.8521,1.68154 -3.5743,4.22755 -6.0493,5.65779 -3.4016,1.96573 -4.5803,3.28865 -4.8288,5.42 l -10.6165,16.41841 c -2.6501,-0.31964 -3.0171,-0.0115 -3.6604,3.07421 -0.5046,2.41996 -2.50766,5.08825 -6.8047,9.06465 -4.07452,3.77047 -6.0896,6.40081 -6.0896,7.94894 0,1.47433 -2.35818,4.81355 -6.5,9.2041 -3.575,3.78969 -4.53099,5.09354 -6.5,7.86752 -3.4442,4.85226 -6.52618,9.97819 -9.24,15.27367 -0.76122,1.48536 -1.96417,4.60584 -1.96417,4.60584 -1.08029,2.5332 -2.99237,6.85583 -4.24907,9.60583 -6.79019,14.85883 -7.16555,24.20347 0.95609,30.10769 9.92524,7.2154 24.96719,-3.71454 35.35987,-10.2387 1.87194,-1.17514 4.42908,-4.93449 4.42908,-4.93449 2.4359,-2.71398 5.5043,-6.23269 6.8186,-7.81938 1.3143,-1.58668 5.4271,-6.1757 9.1396,-10.19782 3.7125,-4.02212 4.4404,-5.91188 6.75,-8.79774 4.1694,-5.20971 9.2672,-9.725 12.8259,-15.36957 z M 37.459025,175.70506 c 0.30547,-0.79604 3.52498,-2.43556 7.15446,-3.64337 8.66137,-2.88232 13.41296,-5.72921 12.99655,-7.78683 -0.86872,-4.29269 -24.57427,0.84782 -29.86103,6.47532 -1.23715,1.31689 -2.0601,2.52319 -1.82876,2.68067 1.83754,1.25087 7.76251,3.60593 9.20199,3.65761 0.97977,0.0352 2.03132,-0.58736 2.33679,-1.3834 z m 117.381835,-4.9673 c 13.85443,-1.84466 15.86305,-2.40026 20,-5.53218 1.925,-1.45734 4.6984,-3.40024 6.1631,-4.31755 1.56203,-0.97827 2.95375,-2.99115 3.36607,-4.86842 0.38663,-1.76031 1.54905,-4.58806 2.58316,-6.28388 1.03411,-1.69583 1.88356,-3.98332 1.88767,-5.08332 0.0102,-2.73011 3.61807,-8.44362 5.75572,-9.11494 6.21043,-1.95032 6.42553,-2.1788 4.63045,-4.91845 -1.40767,-2.14836 -1.66161,-5.3197 -1.61156,-20.12543 0.0379,-11.20341 0.45204,-17.96783 1.1424,-18.65819 1.62047,-1.62047 1.33888,-3.38306 -1.41701,-8.86992 -1.375,-2.73757 -2.5,-6.34006 -2.5,-8.00554 0,-2.84949 -5.47834,-12.80753 -7.04597,-12.80753 -0.39003,0 -1.26934,0.675 -1.95403,1.5 -0.68469,0.825 -1.83141,1.5 -2.54826,1.5 -0.71685,0 -5.94925,3.85435 -11.62755,8.56522 -5.67831,4.71087 -11.5598,8.81675 -13.07,9.12416 -2.90329,0.591 -9.75419,7.38003 -9.75419,9.66611 0,0.74235 -2.5875,3.86494 -5.75,6.93909 -3.1625,3.07415 -6.79673,6.96548 -8.07606,8.64739 -1.27933,1.68192 -2.85751,3.05803 -3.50706,3.05803 -0.64955,0 -3.42782,2.63363 -6.17394,5.85252 -2.74612,3.21888 -6.34294,6.81432 -7.99294,7.98987 -1.65,1.17555 -5.94476,5.62519 -9.54391,9.8881 -3.59916,4.2629 -8.409165,9.10496 -10.688905,10.76012 -6.03714,4.38316 -5.56104,9.71689 0.88453,9.90939 2.871475,0.0858 3.351625,0.45601 3.371715,2.6 0.0202,2.14983 0.4896,2.50781 3.35156,2.55578 2.04374,0.0343 3.69403,0.70961 4.27626,1.75 0.53315,0.95269 2.15358,1.69422 3.70227,1.69422 1.83105,0 3.88314,1.16483 6.12263,3.47539 3.23338,3.33601 3.64292,3.47032 10.21184,3.34901 3.76386,-0.0695 7.13632,0.16657 7.49436,0.52461 1.0075,1.0075 6.8422,0.76425 18.31765,-0.76366 z m 364.556,4.46468 c -7.3615,1.25306 -15.0058,0.29183 -22.3863,-0.84375 -3.204,-0.49296 -6.8796,-0.50735 -9.3787,-2.57198 -1.3275,-1.09664 -1.6882,-3.01796 -2.2817,-4.63427 -0.9478,-2.58115 -0.7896,-5.504 -2.0114,-8 -1.2116,-2.475 -2.5032,-5.7375 -2.8703,-7.25 -0.3824,-1.5756 -1.3505,-2.75 -2.2669,-2.75 -0.8797,0 -5.6184,3.66901 -10.5304,8.15336 -10.277,9.38225 -7.8362,7.71973 -9.5555,12.74282 -1.8485,5.40034 0.5916,11.84423 -0.2765,17.12156 0,0.4511 0.6309,2.09415 1.4019,3.65122 3.1295,6.31978 6.2547,16.94645 6.7144,25.83104 0.4,7.73087 -1.0278,15.62098 -3.4914,22.9597 -0.7083,2.10983 -2.8075,4.12527 -3.1825,5.86932 -0.375,1.74404 -2.4279,6.74935 -4.5621,11.12291 -2.1342,4.37357 -3.8803,8.61956 -3.8803,9.43555 0,0.81599 -1.4943,2.45764 -2.1265,3.74719 -0.5725,16.65463 -14.388,18.86622 -19.8323,25.56734 -8.2917,10.76379 -8.7229,9.83489 -13.577,14.24797 -13.8236,12.56754 -28.27936,24.64222 -44.06387,34.63636 -5.31893,3.36774 -9.05747,6.32807 -16.90033,8.43052 -2.75,0.7372 -5.675,1.573 -6.5,1.85733 -0.825,0.28433 -3.42921,-0.26694 -5.78713,-1.22506 l 0.002,-1e-4 c -2.43027,-0.98751 -5.09123,-3.02126 -6.14365,-4.69554 -1.02109,-1.62444 -3.38255,-4.12477 -4.79221,-6.38039 -3.91285,-6.26103 -5.6253,-11.54786 -3.5602,-19.66513 0.77781,-3.05732 2.69801,-6.14316 3.2861,-8.87532 0.5881,-2.73216 2.16333,-6.92506 3.50052,-9.31755 1.33719,-2.3925 1.97164,-5.15886 3.05904,-7.69634 2.64728,-6.1775 4.5869,-12.80218 8.43088,-18.3152 2.30721,-3.30899 6.64127,-4.49923 8.5655,-8.54903 2.42243,-5.09833 5.91373,-10.58467 8.80003,-13.82863 0.81933,-0.92086 2.03764,-2.72086 2.70734,-4 0.66971,-1.27913 3.483,-4.29555 5.0757,-6.55335 2.57218,-3.64628 4.14332,-8.04096 7.22055,-11.27238 3.36956,-3.53839 7.51698,-3.56246 11.94223,-8.5 13.0197,-14.52712 17.6953,-20.12581 17.6953,-21.18885 0,-0.68441 2.023,-3.52215 4.4955,-6.30608 6.8162,-7.67472 7.8474,-7.52899 6.5766,-11.87029 -2.9879,-10.20745 -22.6249,-6.03155 -28.0724,-15.16632 l 0,-4e-5 c -0.7558,-1.12513 -2.6156,-0.81816 -3.76417,-1.53779 -1.08488,-0.67973 -1.8161,-1.82175 -2.85795,-2.56577 -1.03873,-0.74179 -2.43326,-1.86506 -3.34431,-1.86506 -2.05686,0 -6.39554,6.49032 -10.16561,5.6131 -1.49863,-0.34871 -1.27666,-3.07426 -2.64083,-3.78596 -1.10738,-0.57773 -1.77799,-0.89717 -3.74706,0 -5.95856,2.7149 -10.3688,0.65908 -8.01978,-3.7384 0.76056,-1.4238 1.6368,-3.39655 1.94721,-4.38388 0.31041,-0.98734 2.14571,-2.45588 4.07844,-3.26342 1.93273,-0.80755 3.51406,-1.97759 3.51406,-2.60009 0,-0.6225 5.2875,-6.47534 11.75,-13.0063 6.4625,-6.53096 11.93079,-12.4281 12.15176,-13.10476 0.22094,-0.67665 2.35844,-3.73329 4.75004,-6.79252 4.9572,-6.3412 5.327,-8.68833 1.9817,-12.57745 -2.3561,-2.73914 -2.4296,-2.7523 -16.75,-2.99928 -7.91092,-0.13643 -17.42108,-0.79567 -21.13367,-1.46498 -9.66385,-1.7422 -10.83796,-0.98383 -16.28593,10.51923 -2.45514,5.18389 -4.4639,9.89767 -4.4639,10.47505 0,0.57739 -1.35,2.04789 -3,3.26779 -1.84151,1.36149 -3,3.11846 -3,4.54981 0,5.64027 -13.08128,20.33108 -23.31958,26.18884 -3.10099,1.77421 -5.90344,3.65506 -6.22767,4.17968 -0.32423,0.52462 -2.09752,1.58394 -3.94064,2.35404 -3.05887,1.27808 -12.99645,8.39606 -20.12217,11.29031 -6.20429,2.51999 -12.72514,5.51574 -19.41278,5.17068 -9.15175,-0.4722 -20.23433,-2.41407 -25.69627,-9.77238 -0.70267,-0.94664 0.32554,-2.02407 -0.24632,-3.52819 -0.66235,-1.74212 -0.72871,-4.71828 -0.18282,-8.19938 1.36888,-8.72928 0.77894,-10.05021 -4.82025,-10.79297 -3.09054,-0.40998 -7.03316,-0.0615 -11.15566,0.98606 -3.50671,0.89107 -7.95084,1.84913 -9.87584,2.12903 -3.73927,0.54369 -8,3.74546 -8,6.01168 0,0.75719 -1.55877,2.02801 -3.46393,2.82404 -1.90517,0.79603 -4.00158,2.46056 -4.6587,3.69897 -0.65712,1.23841 -2.85582,2.00962 -3.03607,3.55835 -0.77587,6.66651 -4.51001,10.92503 -14.18998,14.09518 -9.58394,8.12149 -19.0193,7.74453 -28.73646,7.74635 -2.48698,4.6e-4 -5.21489,-0.867 -7.41489,-0.82774 -14.55272,0.2597 -26.22738,0.90838 -27.57755,1.53231 -3.3697,1.55718 -6.76716,-4.1063 -9.890655,-6.52316 -6.24522,-4.83236 -10.09244,-13.38733 -17.58885,-15.86891 -5.15261,-1.7057 -10.42101,-4.08722 -16.20988,1.53927 0,0 -3.14391,2.94318 -4.62986,4.5 -4.57566,4.79386 -7.59455,11.31656 -13.17804,14.8862 -2.24171,1.43318 -6.73898,3.20017 -7.64538,2.29377 -1.97863,-1.97863 -8.02075,-1.30433 -12.77979,1.42624 -3.67256,2.10718 -5.30839,2.47255 -8.89641,1.98702 -2.5574,-0.34607 -4.93461,-0.14825 -5.68307,0.47292 -0.92931,0.77125 -1.93018,0.65295 -3.6035999,-0.42596 -1.2743,-0.82159 -7.29885,-0.0742 -8.81692003,-2.75287 -2.68611997,-4.73965 1.73895003,-10.85914 3.83669003,-15.88696 0.52813,-1.26581 2.16323,-3.50018 2.16323,-3.50018 1.18978,-1.9251 2.60282,-3.50018 3.1401,-3.50018 0.5372799,0 2.7547399,-1.95352 4.9276799,-4.34115 5.44318,-5.98099 14.93567,-10.39392 26.139,-12.15166 2.25925,-0.35447 4.46315,-1.54326 5.64392,-3.04437 2.57003,-3.26727 4.63871,-3.10998 6.11965,0.46532 1.75837,4.24509 3.33631,4.34905 7.54188,0.49689 4.07209,-3.72988 5.31931,-3.9772 11.72353,-2.32467 3.78649,0.97706 4.88888,0.81914 9.83754,-1.40919 3.92321,-1.76659 6.67567,-3.94271 9.29707,-7.35037 2.04814,-2.66244 5.32629,-5.9658 7.28477,-7.3408 4.171165,-2.92845 8.252515,-7.07383 15.650545,-15.89607 3.49609,-4.16913 6.55269,-6.78043 8.77898,-7.5 2.56398,-0.82872 3.97537,-2.22578 5.66142,-5.60393 1.23528,-2.475 3.03543,-5.175 4.00032,-6 0.96489,-0.825 2.28927,-2.69847 2.94307,-4.16327 0.6538,-1.46479 2.06468,-2.94128 3.1353,-3.28108 1.07062,-0.3398 4.19625,-3.64133 6.94585,-7.33673 2.7496,-3.69541 7.52924,-9.10989 10.62142,-12.03219 3.09218,-2.9223 6.30553,-6.6348 7.14079,-8.25 0.83525,-1.6152 1.8813,-2.93673 2.32455,-2.93673 1.1402,0 6.63726,-8.84884 7.98182,-12.84867 1.50715,-4.48351 0.10199,-6.88415 -4.5391,-7.75483 -2.23216,-0.41875 -4.61866,-1.8102 -6.07674,-3.54303 -1.65479,-1.9666 -3.33051,-2.85347 -5.39159,-2.85347 -1.6448,0 -5.76809,-1.11119 -9.16286,-2.46931 -6.58884,-2.63595 -15.94525,-5.957465 -21.6688,-7.692403 -1.925,-0.583511 -3.80815,-1.552395 -4.18477,-2.153075 -0.45641,-0.727937 -2.79077,-0.04347 -7,2.052491 -6.1061,3.040497 -6.64879,3.128927 -16.387995,2.67013 -9.11335,-0.42931 -10.32586,-0.275417 -12.73003,1.615707 -1.96927,1.54903 -4.51033,2.19693 -9.81436,2.50241 -4.27305,0.2461 -8.0085,1.0334 -9.26997,1.95379 -1.16208,0.84787 -3.68788,2.63934 -5.61288,3.98104 -7.69837,5.36565 -8.11974,5.94123 -9.59507,13.10679 -0.78504,3.81284 -1.96927,8.27222 -2.63161,9.90974 -0.66235,1.63751 -1.07339,4.22501 -0.91343,5.74999 0.20769,1.97999 -0.15955,2.7727 -1.28452,2.7727 -0.86646,0 -1.57537,-0.62159 -1.57537,-1.38131 0,-1.59706 -6.47861,-6.85158 -9.47087,-7.68142 -1.72186,-0.47752 -1.97694,-1.23353 -1.6845,-4.99256 0.54649,-7.0245 4.18993,-12.35411 9.19741,-13.45394 1.53499,-0.33714 3.03231,-1.24213 3.32739,-2.01109 0.29508,-0.76897 2.02017,-1.78057 3.83354,-2.248 2.32305,-0.59882 3.39351,-1.51302 3.62364,-3.09466 0.18027,-1.23895 1.36895,-2.64107 2.65286,-3.12921 1.27944,-0.48644 2.6235,-1.3654 2.9868,-1.95323 0.86186,-1.39453 6.47955,-4.295444 9.03373,-4.664935 1.1,-0.159128 4.475,-1.167608 7.5,-2.241067 13.14305,-4.663975 23.820055,-6.485364 37.000005,-6.311829 12.65088,0.16657 20.0283,0.924477 21.38085,2.196529 0.48446,0.455632 3.87748,0.577194 7.54004,0.270139 5.50788,-0.461761 7.36549,-0.197962 10.74435,1.525807 6.39895,3.264501 14.5886,6.169723 17.39363,6.170276 1.40738,2.77e-4 3.43238,0.668203 4.5,1.48428 3.76847,2.88057 9.1055,3.74114 12.45609,2.00849 5.17154,-2.674311 8.98504,-7.392894 8.98504,-11.117527 0,-2.556521 0.63789,-3.719069 2.75,-5.011833 1.5125,-0.92576 4.325,-2.707102 6.25,-3.958539 1.925,-1.251436 6.31043,-3.238663 9.74539,-4.41606 L 221.83164,0 l 2.63947,2.076207 c 1.45171,1.141914 3.19868,2.076207 3.88216,2.076207 3.23664,0 5.34278,7.378637 3.25154,11.391436 -2.20064,4.222726 -10.03195,13.40964 -12.31937,14.45186 -1.34452,0.61261 -2.44458,1.49715 -2.44458,1.96566 0,1.33602 -12.70757,13.53872 -14.97067,14.3759 -1.29158,0.47778 -2.02933,1.65203 -2.02933,3.23 0,2.63655 3.9262,10.71144 6.8404,14.06843 3.13176,3.6076 4.13539,6.8804 4.59873,14.99616 0.37112,6.50065 0.14531,8.32226 -1.21846,9.8292 -1.57179,1.73681 -1.53547,2.09046 0.59487,5.79201 1.88906,3.28231 2.29725,5.57847 2.43839,13.71633 0.1541,8.88595 -0.0789,10.24918 -2.56447,15.0027 -1.99453,3.81446 -2.48042,5.70239 -1.79651,6.98029 0.59303,1.10808 0.57046,2.40747 -0.0614,3.53658 -1.8581,3.32023 -0.24013,4.91397 4.42551,4.3592 4.47803,-0.53245 25.81412,-6.00367 27.51723,-7.05625 0.54945,-0.33958 1.30729,-2.30989 1.68409,-4.37846 0.3768,-2.06858 2.06368,-6.23605 3.74861,-9.26105 2.73338,-4.90729 4.55669,-7.39098 10.64462,-14.5 0.942,-1.1 2.51198,-3.26168 3.48884,-4.80374 0.97686,-1.54206 2.53738,-3.07162 3.46784,-3.39902 0.93045,-0.32739 2.59173,-1.39395 3.69173,-2.37012 1.1,-0.97617 5.28546,-3.43927 9.30103,-5.47355 5.87681,-2.97718 8.0085,-3.58389 10.92775,-3.11016 4.79135,0.77753 12.67883,5.72467 13.06657,8.19554 0.16926,1.07858 0.8029,2.95918 1.40809,4.17912 0.98654,1.98867 0.30677,3.09216 -6.57281,10.66988 -12.33444,13.58615 -16.50936,17.29384 -27.7444,24.63944 -5.83758,3.81667 -11.08636,7.50937 -11.66396,8.206 -1.7574,2.11956 -3.27246,15.79883 -2.01471,18.19046 1.70753,3.24687 2.7175,3.54452 12.08228,3.56084 6.60726,0.0115 9.7111,-0.4477 12.5,-1.84936 2.04059,-1.02557 5.41069,-2.41477 7.48911,-3.08711 5.28094,-1.7083 13.1596,-7.15306 20.22105,-13.97429 3.3,-3.18774 6.91965,-6.27459 8.04366,-6.85966 1.23917,-0.64502 2.74771,-3.2973 3.83218,-6.73763 0.98369,-3.12062 3.10154,-8.20458 4.70634,-11.29767 1.6048,-3.0931 2.91782,-6.05218 2.91782,-6.57573 0,-1.59782 8.11367,-16.96733 10.11876,-19.16769 1.03466,-1.13545 1.88122,-2.48565 1.88122,-3.00045 0,-0.51479 1.74801,-2.84829 3.88448,-5.18554 4.25843,-4.65866 7.82232,-5.45567 12.91518,-2.88827 1.68599,0.84993 8.14711,1.59701 17.20034,1.98882 19.0429,0.82414 35.6441,3.02367 40,5.29966 2.7002,1.41091 5.3709,1.77688 11.6876,1.6016 7.5108,-0.20842 8.4409,-0.0142 11.25,2.34961 4.3748,3.68108 3.9897,6.36041 -1.4668,10.20652 -2.4911,1.75587 -4.9283,3.1925 -5.416,3.1925 -0.4877,0 -2.3871,1.90458 -4.2208,4.23239 -1.8337,2.32782 -4.009,4.98749 -4.834,5.91038 -0.825,0.92289 -3.75,4.30505 -6.5,7.51592 -2.75,3.21087 -8.2625,9.02666 -12.25,12.92399 -3.9875,3.89733 -7.25,7.38559 -7.25,7.75169 0,0.36609 1.7367,0.66563 3.8592,0.66563 2.3721,0 6.0257,1.15606 9.4811,3 3.0921,1.65 6.4352,3 7.4292,3 2.8122,0 11.4076,3.27317 14.7305,5.60951 1.65,1.1601 4.6466,2.87941 6.6591,3.82068 2.0125,0.94128 4.4447,2.57955 5.405,3.64061 2.3823,2.63248 3.8921,2.42417 5.949,-0.8208 2.0804,-3.28199 9.5333,-10.14706 11.0815,-10.20736 0.602,-0.0234 4.5188,-3.60576 8.7041,-7.96068 4.1852,-4.35492 8.4618,-8.18857 9.5036,-8.51922 1.0418,-0.33065 2.3817,-1.67116 2.9775,-2.9789 0.5959,-1.30775 2.8017,-3.65304 4.9018,-5.21177 2.1001,-1.55872 4.8094,-3.8551 6.0207,-5.10306 1.2112,-1.24795 2.6645,-2.26901 3.2296,-2.26901 0.5651,0 1.9561,-1.82028 3.0911,-4.04506 3.002,-5.88453 8.5991,-11.67512 12.543,-12.97671 2.5576,-0.84409 3.434,-1.70708 3.434,-3.38147 0,-2.47864 3.797,-6.59676 6.0823,-6.59676 0.7994,0 3.075,-1.1019 5.057,-2.44868 5.5934,-3.80084 7.9081,-4.02067 11.8857,-1.12879 1.9113,1.38953 4.4884,2.97711 5.727,3.52795 2.5605,1.13873 7.248,10.82669 7.248,14.97982 0,3.6922 -8.6681,16.72398 -14.6227,21.98395 -12.5958,11.12656 -24.6816,15.83529 -29.4855,11.48779 -2.1593,-1.95414 -2.8665,-1.55447 -5.2838,2.9864 l -1.892,3.55404 3.4574,3.55948 c 2.7349,2.81575 4.4883,3.68751 8.3919,4.17224 5.5825,0.69322 22.6875,0.78699 32.4347,0.17782 7.3287,-0.45803 10,0.36462 10,3.07957 0,1.77146 -5.9503,5.45597 -9.421,7.45277 -6.838,3.93401 -14.246,7.34189 -22.023,8.66567 z m 107.336,-2.36331 c -1.9483,1.09582 -4.0136,1.97999 -6.0906,2.80646 -2.4677,0.98195 -4.9215,2.16096 -7.5489,2.54898 -2.961,0.4373 -6.0332,0.26228 -8.9748,-0.29085 -1.4617,-0.27485 -2.7363,-1.26666 -4.2075,-1.48519 -1.027,-0.15256 -2.0812,0.26453 -3.1118,0.13826 -3.2002,-0.39208 -6.1017,-2.1698 -9.2733,-2.74935 -2.1394,-0.39093 -4.3904,0.0224 -6.507,-0.4775 -2.3158,-0.54693 -5.197,-0.79675 -6.6011,-2.71791 -1.0905,-1.49198 0.037,-3.74402 -0.4546,-5.52533 -0.4853,-1.75723 0.019,-0.58345 -2.4125,-4.90819 -3.2065,-5.70427 -3.4617,-10.66319 -0.8144,-15.82798 1.0425,-2.03397 2.8145,-5.78993 3.9377,-8.34658 2.818,-6.41452 9.9876,-15.49964 20.8589,-26.43202 10.1537,-10.2108 16.1625,-14.7513 22.4637,-16.97447 4.3151,-1.52248 7.8442,-1.15463 7.8442,0.81762 0,0.62034 1.1653,2.34424 2.5896,3.83088 3.0325,3.16524 2.3496,5.56396 -2.2622,7.94603 -1.5551,0.80323 -3.4154,2.24792 -4.1341,3.21042 -0.7187,0.9625 -1.9562,1.75 -2.75,1.75 -0.7938,0 -1.4433,0.64948 -1.4433,1.4433 0,1.85917 -3.8488,4.5567 -6.5014,4.5567 -3.0505,0 -13.6186,11.41753 -17.8497,19.28442 -5.8014,10.78655 -4.7878,20.71558 2.1147,20.71558 1.1584,0 3.2906,0.4503 4.7382,1.00067 1.9103,0.72632 6.0864,0.46313 15.2317,-0.95996 10.7985,-1.68035 13.112,-2.37446 16.1831,-4.85543 3.9834,-3.21792 6.9455,-9.70272 7.029,-15.38823 0.03,-2.03662 0.5513,-4.79343 1.1585,-6.12625 0.8811,-1.93365 0.7595,-2.94941 -0.6018,-5.02693 -1.2734,-1.9434 -1.829,-5.58824 -2.1912,-14.37374 -0.2668,-6.47357 -0.896,-12.19763 -1.3981,-12.72013 -1.3116,-1.36481 -1.126,-7.93698 0.2634,-9.32637 0.9018,-0.90183 0.8279,-1.5903 -0.3166,-2.95 -3.7065,-4.40351 -12.8778,-32.27359 -12.1523,-36.92916 0.4535,-2.91021 0.076,-3.42284 -4.8579,-6.5937 -2.9423,-1.891 -9.1418,-7.52909 -13.7766,-12.52909 -9.1911,-9.91512 -8.7608,-9.702664 -27.4862,-13.570567 -4.0595,-0.838531 -6.2249,-1.837364 -6.9077,-3.186266 -0.547,-1.080664 -1.3223,-2.639843 -1.7228,-3.464843 -0.4881,-1.00518 -1.8943,-1.406529 -4.2627,-1.216652 -4.2714,0.342438 -5.6105,-1.325165 -3.065,-3.816934 1.7288,-1.692216 2.8242,-1.756113 14.3714,-0.838241 8.0286,0.638189 13.2154,1.518745 14.5,2.46166 6.9877,5.129122 14.0574,9.410167 15.54,9.410167 0.9515,0 2.4495,1.098202 3.329,2.44045 1.1323,1.728075 2.4062,2.384857 4.364,2.25 3.6329,-0.250236 4.4034,3.400143 1.1924,5.649226 -3.1849,2.23082 -1.8342,4.66032 2.591,4.66032 2.4639,0 4.2653,0.73157 5.7813,2.34789 1.2113,1.29134 3.2113,2.88031 4.4445,3.53103 4.7405,2.50138 15.0244,21.039 17.1388,30.89411 0.5042,2.35017 2.0543,5.76439 3.4446,7.58716 2.0514,2.68961 2.4267,4.0679 1.9912,7.31422 -0.3617,2.69675 0.015,5.06614 1.1554,7.27191 1.498,2.89665 2.9671,15.13328 2.6178,21.80368 -0.3047,5.81901 -0.163,8.44929 0.9682,17.9795 l 1.2142,10.2295 -5.8627,8.63139 c -3.4801,5.12354 -4.0164,4.72577 -6.0709,7.04822 -1.9035,2.1517 -4.1018,4.0584 -5.7952,6.37905 -1.1034,1.51218 -1.6284,3.40961 -2.8064,4.86439 -1.055,1.30282 -2.4171,2.33249 -3.7386,3.36404 -1.6179,1.26298 -3.3176,2.43445 -5.1066,3.44063 z m 172.3215,-10.15825 c -4.106,-2.48867 -8.3444,-4.65564 -12.817,-6.57283 -2.5319,-1.08531 -5.678,-2.8185 -6.9913,-3.85154 -3.4951,-2.74923 -8.6695,-3.43833 -12.8143,-1.70654 -1.9329,0.80763 -5.6575,1.7898 -8.2768,2.18259 -2.6193,0.39279 -6.8765,2.01499 -9.4604,3.6049 -2.7454,1.68923 -6.7976,3.11931 -9.7435,3.4883 -3.0627,0.38362 -4.4424,1.7263 -6.7139,2.44125 -6.1764,1.94406 -12.5472,3.21434 -18.767,5.01506 -2.1347,0.61802 -4.1997,1.48274 -6.3643,1.98613 -3.8321,0.89118 -7.7298,1.70156 -11.6624,1.81632 -2.953,0.0862 -5.9102,-0.35079 -8.8218,-0.8509 -2.7996,-0.48086 -5.6896,-0.86998 -8.2693,-2.05915 -2.5777,-1.18827 -3.3738,-1.60466 -6.9311,-4.94652 -4.693,-4.40886 -7.2149,-15.36176 -5.5204,-23.97517 0.9469,-4.81301 0.9365,-6.3996 -0.05,-7.5879 -1.0067,-1.21305 -0.9403,-1.97038 0.3448,-3.93162 0.8754,-1.33604 2.4744,-2.70936 3.5534,-3.05182 1.1318,-0.3592 2.689,-2.5268 3.6805,-5.12301 0.9453,-2.47519 2.519,-4.92865 3.4971,-5.45212 0.9782,-0.52348 2.0572,-1.82991 2.3978,-2.90319 0.3406,-1.07327 2.1659,-2.90722 4.0561,-4.07543 1.8902,-1.16822 4.1691,-3.66726 5.0641,-5.55344 1.8853,-3.97289 8.6474,-9.84848 16.091,-13.98149 4.9511,-2.74903 5.4208,-2.82553 10,-1.62861 11.0106,2.878 14.5223,9.44318 11.601,21.68826 -1.2872,5.39541 -8.3212,12.49151 -14.7961,14.92685 -2.75,1.03432 -6.4261,3.11571 -8.1691,4.62531 -1.8363,1.59034 -4.9906,3.03814 -7.5,3.44238 -2.382,0.38371 -5.357,1.34871 -6.6112,2.14444 -2.0933,1.32821 -2.2502,2.03752 -1.9139,8.65391 0.3268,6.42725 0.6276,7.34077 2.7803,8.44237 1.3276,0.67939 3.681,1.24189 5.2296,1.25 1.5487,0.008 3.6864,0.48069 4.7505,1.05018 2.0991,1.12339 18.8861,-0.81975 30.9338,-3.58065 3.575,-0.81926 8.4078,-1.87278 10.7396,-2.34114 2.3318,-0.46836 4.8068,-1.30857 5.5,-1.86714 0.6932,-0.55856 2.8354,-1.34107 4.7604,-1.73891 1.925,-0.39784 4.85,-1.52626 6.5,-2.5076 1.65,-0.98134 4.575,-2.10634 6.5,-2.5 1.925,-0.39366 4.9528,-1.59791 6.7284,-2.6761 6.2384,-3.78801 17.6455,-2.05284 24.5173,3.7294 1.5993,1.34568 3.5543,2.4467 4.3446,2.4467 0.7903,0 2.2182,0.39975 3.1733,0.88834 8.0171,4.1015 19.3225,9.11166 20.5604,9.11166 0.8357,0 4.4824,1.98686 8.1038,4.41524 5.8242,3.90556 7.4782,4.50605 14.3282,5.20182 16.3475,1.66043 28.2102,0.11317 38.9851,-5.08483 2.8148,-1.35787 5.937,-3.66183 6.9383,-5.11992 1.0013,-1.45808 2.8331,-3.66144 4.0706,-4.89635 1.2375,-1.23492 2.25,-3.41003 2.25,-4.83358 0,-1.42355 0.509,-3.70544 1.1311,-5.07087 1.4102,-3.09492 -0.3944,-16.72158 -2.6387,-19.92579 -0.8208,-1.1719 -1.4924,-3.27477 -1.4924,-4.67304 0,-1.39826 -0.9,-4.2215 -2,-6.27386 -1.1,-2.05237 -2,-4.53487 -2,-5.51669 0,-2.68153 -14.2017,-13.22469 -18.7635,-13.9298 -3.7061,-0.57283 -10.3537,-3.43794 -13.2365,-5.70493 -1.0367,-0.81527 -4.5474,-1.01092 -11.3669,-0.63349 -9.7854,0.54158 -9.8928,0.57549 -13,4.10217 -3.423,3.88515 -9.4922,7.94392 -11.8787,7.94392 -0.8302,0 -2.0984,-0.70951 -2.8181,-1.5767 -1.7355,-2.09115 0.762,-6.88272 7.5097,-14.4076 6.9104,-7.70641 12.4593,-10.7009 20.5618,-11.09622 9.9897,-0.48742 22.3037,1.74337 28.9774,5.24952 1.9168,1.00705 4.2244,1.831 5.1279,1.831 4.1113,0 9.1354,3.31608 13.16,8.68615 2.3248,3.10201 5.4044,6.80413 6.8436,8.22693 3.4756,3.43599 6.2384,7.87039 6.4174,10.30007 0.1303,1.76858 1.4998,3.23594 3.7688,4.03823 2.6539,0.93836 2.8279,20.68445 0.2489,28.24862 -0.75,2.2 -1.6048,6.64795 -1.8994,9.88434 -0.3984,4.37669 -1.1619,6.5545 -2.9799,8.5 -2.9802,3.18926 -2.6878,7.59075 -5.4175,10.38053 -9.7785,9.99393 -23.1327,17.06147 -36.755,20.21277 -3.739,0.86496 -7.925,-0.63099 -11.5,-0.55384 -24.7642,0.53439 -26.1619,0.59333 -38.1215,-3.89253 -6.7544,-2.53346 -11.4955,-8.76366 -17.6647,-12.5028 z m -287.0558,-33.23343 c 4.6707,-2.36492 8.2786,-4.94506 15.0923,-10.79307 3.593,-3.08379 1.3824,-11.50197 -3.0205,-11.50197 -3.4402,0 -18.2295,19.1867 -18.2295,23.64977 0,1.7731 -0.035,1.78078 6.1577,-1.35473 z M 271.81205,113.4708 c 3.86585,-3.67488 7.02881,-7.04988 7.02881,-7.5 0,-1.69149 -3.95429,-0.72773 -6.78421,1.65349 -1.61571,1.35953 -4.12524,2.92339 -5.57673,3.47525 -1.85809,0.70644 -2.63906,1.72631 -2.63906,3.44633 0,1.34363 -0.27314,3.15477 -0.60699,4.02475 -1.21698,3.17139 1.70388,1.43491 8.57818,-5.09982 z m 428.31591,2.71483 c 4.3601,-2.46066 5.5503,-3.75855 6.9771,-7.60812 1.7629,-4.75657 1.5905,-6.4251 -0.6638,-6.4251 -1.1984,0 -13.7028,13.88161 -14.4337,16.02326 -0.6259,1.83383 2.8575,0.98019 8.1204,-1.99004 z M 183.34086,53.81908 c 0,-2.60655 -1.9609,-2.44297 -2.33415,0.19472 -0.22908,1.61891 0.0853,2.22155 1,1.91666 0.73378,-0.24459 1.33415,-1.19471 1.33415,-2.11138 z M 204.29817,32.9694 c 4.07713,-2.87383 12.54269,-13.530694 12.54269,-15.789363 0,-3.291757 -6.24135,-1.291926 -10.25166,3.284801 -4.32627,4.937312 -9.31339,15.687572 -7.27758,15.687572 0.25892,0 2.50287,-1.43235 4.98655,-3.18301 z M 52.852985,109.15991 c -0.7658,-0.47329 -2.09734,-2.3561 -2.95898,-4.18402 -1.22942,-2.60814 -2.31536,-3.4311 -5.04529,-3.82348 -3.11075,-0.44712 -3.542,-0.89109 -4.07734,-4.1976 -0.32925,-2.03367 -1.12273,-4.32907 -1.76328,-5.10088 -0.64054,-0.77181 -1.45138,-3.4954 -1.80186,-6.05241 -0.51604,-3.76497 -0.3494,-4.64911 0.87625,-4.64911 0.83241,0 2.07368,0.675 2.75837,1.5 2.18979,2.63854 2.9785,1.62226 2.34244,-3.01829 -0.48686,-3.55205 -0.23421,-4.94382 1.18144,-6.5081 1.64013,-1.81232 1.9545,-1.85066 3.52453,-0.4298 1.46038,1.32162 1.6436,2.84545 1.19899,9.97194 -0.42102,6.74846 -0.20075,8.90651 1.1139,10.91291 0.90128,1.37553 1.6387,2.98854 1.6387,3.58446 0,0.59592 0.9,2.94628 2,5.22302 2.82887,5.85507 2.39058,8.85935 -0.98787,6.77136 z m -17.61213,-31.4075 c -0.36606,-0.95394 -0.17057,-2.22943 0.43443,-2.83443 0.8,-0.8 1.28152,-0.62698 1.76557,0.63443 0.36606,0.95394 0.17057,2.22943 -0.43443,2.83443 -0.8,0.8 -1.28152,0.62698 -1.76557,-0.63443 z"
     id="path3093"
     inkscape:connector-curvature="0"
     sodipodi:nodetypes="aaacssccscccsssaassaacssaassssscsssssssssssssssssssssssssscccssssssaaaacsssaccaasssccaassccsssssaasssaasssaaaaasaassssssccssssssssssaaassssssssscsssaasaasssssaasssssssssssssssssssssssssssssssssssssssssssssssssssssssssssscsssssssssssssscssssssssssssssssssssssssssssssscsssssssscssscscsscscsssssscsssssccsssaaaaaaaaaaaascsssssssssssscssccscccsscssccscsssssssccccccsscsaaaaaasssscsaaaaaasscccscsscsssscsccscsssssssccscssscsssccsssscsssssssssssscssaasaassssssssssssscscssscsssssssssssssssssssssssssss" />
</svg>
