<?xml version="1.0" encoding="utf-8"?>
<!-- Generator: Adobe Illustrator 22.1.0, SVG Export Plug-In . SVG Version: 6.00 Build 0)  -->
<!DOCTYPE svg PUBLIC "-//W3C//DTD SVG 1.1//EN" "http://www.w3.org/Graphics/SVG/1.1/DTD/svg11.dtd">
<svg version="1.1" id="Calque_1" xmlns="http://www.w3.org/2000/svg" xmlns:xlink="http://www.w3.org/1999/xlink" x="0px" y="0px"
	 width="145.3px" height="67.2px" viewBox="0 0 145.3 67.2" style="enable-background:new 0 0 145.3 67.2;" xml:space="preserve">
<style type="text/css">
	.st0{fill:#9D7C37;}
</style>
<path class="st0" d="M39.8,3.3c4.1,0,7.4,3.1,7.4,7.4s-3.3,7.4-7.4,7.4s-7.3-3.1-7.3-7.4C32.4,6.3,35.7,3.3,39.8,3.3"/>
<path d="M55.1,13.3v4.5h-3V3.5h5.8c3.3,0,5.6,1.8,5.6,4.8s-2.3,5-5.6,5H55.1z M55.1,6.3v4.2h2.2c2,0,3.1-0.7,3.1-2.1s-1-2.1-3.1-2.1
	C57.3,6.3,55.1,6.3,55.1,6.3z"/>
<path d="M68,3.5h10.5v2.8H71v2.8h7.2v2.8H71V15h7.5v2.8H68V3.5z M76.3,0l-2,2.1h-3L72.8,0H76.3z"/>
<path d="M89.5,13.2H87v4.6h-3V3.5h5.9c3.1,0,5.5,1.7,5.5,4.7c0,2-1.1,3.7-2.8,4.5l3.2,5.2h-3.4L89.5,13.2z M87,6.3v4.1h2.3
	c2,0,3-0.7,3-2.1s-0.9-2-3-2C89.3,6.3,87,6.3,87,6.3z"/>
<path d="M113.4,17.8h-3.1l-1.1-2.8h-5.5l-1.1,2.8h-3.1l5.6-14.3h2.9L113.4,17.8z M104.6,12.3h3.5l-1.8-4.7L104.6,12.3z"/>
<path d="M11.4,28.1h4.7c3.9,0,8,1.9,8,7.1s-4.1,7.2-8,7.2h-4.7C11.4,42.4,11.4,28.1,11.4,28.1z M14.4,30.9v8.7h1.2
	c3,0,5.3-1.1,5.3-4.4c0-3.2-2.3-4.3-5.4-4.3C15.5,30.9,14.4,30.9,14.4,30.9z"/>
<polygon points="28.9,28.1 39.5,28.1 39.5,30.9 32,30.9 32,33.7 39.1,33.7 39.1,36.5 32,36.5 32,39.6 39.5,39.6 39.5,42.4 
	28.9,42.4 "/>
<path d="M58.6,37.8h-2.4v4.6h-3V28.1h5.9c3.1,0,5.5,1.7,5.5,4.7c0,2-1.1,3.7-2.8,4.5l3.2,5.2h-3.4L58.6,37.8z M56.2,30.9V35h2.3
	c2,0,3-0.7,3-2.1c0-1.4-0.9-2-3-2C58.5,30.9,56.2,30.9,56.2,30.9z"/>
<path class="st0" d="M76,27.9c4.1,0,7.4,3.1,7.4,7.4s-3.3,7.4-7.4,7.4s-7.3-3.1-7.3-7.4C68.7,30.9,71.9,27.9,76,27.9"/>
<path d="M97,28.1h3v8c0,4.4-2.3,6.6-6,6.6s-6-2.2-6-6.6v-8h3v8.1c0,2,0.9,3.7,3,3.7s3-1.4,3-3.7V28.1z"/>
<polygon points="105.3,28.1 115.8,28.1 115.8,30.9 108.3,30.9 108.3,33.7 115.5,33.7 115.5,36.5 108.3,36.5 108.3,39.6 115.8,39.6 
	115.8,42.4 105.3,42.4 "/>
<polygon points="124.4,32.7 124.4,42.4 121.4,42.4 121.4,28.1 125,28.1 130.8,37.8 130.8,28.1 133.8,28.1 133.8,42.4 130.2,42.4 "/>
<polygon points="3,57.3 3,67 0,67 0,52.7 3.7,52.7 9.4,62.4 9.4,52.7 12.4,52.7 12.4,67 8.8,67 "/>
<path class="st0" d="M24.7,52.5c4.1,0,7.4,3.1,7.4,7.4s-3.3,7.4-7.4,7.4s-7.3-3.1-7.3-7.4C17.3,55.5,20.6,52.5,24.7,52.5"/>
<path d="M42.4,62.4H40V67h-3V52.7h5.9c3.1,0,5.5,1.7,5.5,4.7c0,2-1.1,3.7-2.8,4.5l3.2,5.2h-3.4L42.4,62.4z M40,55.5v4.1h2.3
	c2,0,3-0.7,3-2.1c0-1.4-0.9-2-3-2H40z"/>
<polygon points="56.4,58.9 56.4,67 53.4,67 53.4,52.7 56.4,52.7 60.5,60.7 64.6,52.7 67.6,52.7 67.6,67 64.6,67 64.6,58.9 
	61.8,64.1 59.1,64.1 "/>
<path d="M85.9,67h-3.1l-1.1-2.8h-5.5L75,67h-3.1l5.6-14.3h2.9L85.9,67z M77.1,61.5h3.5l-1.8-4.7L77.1,61.5z"/>
<polygon points="93.2,57.3 93.2,67 90.2,67 90.2,52.7 93.8,52.7 99.6,62.4 99.6,52.7 102.6,52.7 102.6,67 99,67 "/>
<path d="M108.3,52.7h4.7c3.9,0,8,1.9,8,7.1s-4.1,7.2-8,7.2h-4.7V52.7z M111.3,55.5v8.7h1.2c3,0,5.3-1.1,5.3-4.4
	c0-3.2-2.3-4.3-5.4-4.3C112.4,55.5,111.3,55.5,111.3,55.5z"/>
<rect x="126" y="52.7" width="3" height="14.3"/>
<polygon points="134.8,52.7 145.3,52.7 145.3,55.5 137.8,55.5 137.8,58.3 145,58.3 145,61.1 137.8,61.1 137.8,64.2 145.3,64.2 
	145.3,67 134.8,67 "/>
</svg>
