<?xml version="1.0" encoding="UTF-8" standalone="no"?>
<!-- Created with Inkscape (http://www.inkscape.org/) -->

<svg
   xmlns:dc="http://purl.org/dc/elements/1.1/"
   xmlns:cc="http://creativecommons.org/ns#"
   xmlns:rdf="http://www.w3.org/1999/02/22-rdf-syntax-ns#"
   xmlns:svg="http://www.w3.org/2000/svg"
   xmlns="http://www.w3.org/2000/svg"
   xmlns:sodipodi="http://sodipodi.sourceforge.net/DTD/sodipodi-0.dtd"
   xmlns:inkscape="http://www.inkscape.org/namespaces/inkscape"
   id="svg2"
   version="1.1"
   inkscape:version="0.48.4 r9939"
   width="87.828751"
   height="87.738747"
   xml:space="preserve"
   sodipodi:docname="symetrie.svg"><metadata
     id="metadata8"><rdf:RDF><cc:Work
         rdf:about=""><dc:format>image/svg+xml</dc:format><dc:type
           rdf:resource="http://purl.org/dc/dcmitype/StillImage" /><dc:title></dc:title></cc:Work></rdf:RDF></metadata><defs
     id="defs6"><clipPath
       clipPathUnits="userSpaceOnUse"
       id="clipPath16"><path
         d="m 0,0 255.114,0 0,85.039 L 0,85.039 0,0 z"
         id="path18"
         inkscape:connector-curvature="0" /></clipPath><clipPath
       clipPathUnits="userSpaceOnUse"
       id="clipPath28"><path
         d="m 42.84,24.453 69.597,0 0,56.439 -69.597,0 0,-56.439 z"
         id="path30"
         inkscape:connector-curvature="0" /></clipPath></defs><sodipodi:namedview
     pagecolor="#ffffff"
     bordercolor="#666666"
     borderopacity="1"
     objecttolerance="10"
     gridtolerance="10"
     guidetolerance="10"
     inkscape:pageopacity="0"
     inkscape:pageshadow="2"
     inkscape:window-width="1920"
     inkscape:window-height="1056"
     id="namedview4"
     showgrid="false"
     inkscape:zoom="6.9772499"
     inkscape:cx="-1.059694"
     inkscape:cy="35.989563"
     inkscape:window-x="0"
     inkscape:window-y="24"
     inkscape:window-maximized="1"
     inkscape:current-layer="g10"
     fit-margin-top="0"
     fit-margin-left="0"
     fit-margin-right="0"
     fit-margin-bottom="0" /><g
     id="g10"
     inkscape:groupmode="layer"
     inkscape:label="logo+nom"
     transform="matrix(1.25,0,0,-1.25,-52.7175,101.115)"><g
       id="g12"><g
         id="g14"
         clip-path="url(#clipPath16)"><g
           id="g20"
           transform="translate(76.788,22.968)"><path
             d="m 0,0 c -0.324,0 -1.683,-1.224 -1.881,-1.53 l 0.441,-0.387 c 0.711,0.531 1.458,0.972 2.223,1.386 C 0.63,-0.387 0.162,0 0,0 m -30.726,-2.385 c -1.746,0 -3.699,-0.882 -3.699,-2.871 0,-0.828 0.297,-1.476 0.945,-1.998 1.332,-1.089 3.744,-0.882 3.744,-2.574 0,-1.161 -0.99,-1.791 -2.061,-1.791 -0.477,0 -1.872,0.279 -2.232,1.251 -0.054,0.162 -0.099,0.324 -0.306,0.324 -0.207,0 -0.279,-0.09 -0.279,-0.297 0,-0.216 0.207,-1.071 0.297,-1.467 0.837,-0.306 1.719,-0.459 2.61,-0.459 2.907,0 3.906,1.854 3.906,3.177 0,0.774 -0.378,1.638 -0.927,2.097 -1.629,1.332 -3.843,0.981 -3.843,2.529 0,0.954 0.972,1.431 1.818,1.431 0.63,0 1.458,-0.261 1.62,-0.954 0.045,-0.162 0.081,-0.279 0.288,-0.279 0.18,0 0.252,0.153 0.234,0.279 l -0.099,1.323 c -0.648,0.225 -1.332,0.279 -2.016,0.279 m 65.862,-0.279 -7.488,0 0,-0.558 0.675,0 c 0.225,0 0.459,0 0.459,-0.891 l 0,-7.164 c 0,-0.153 -0.099,-0.153 -0.774,-0.153 l 0,-0.558 7.236,0 c 0.126,0.432 0.405,1.368 0.405,1.548 0,0.126 -0.072,0.216 -0.216,0.216 -0.162,0 -0.207,-0.072 -0.261,-0.207 -0.441,-0.846 -2.268,-0.909 -3.645,-0.909 -0.297,0 -0.378,0.279 -0.378,2.259 l 0,1.836 1.278,0 c 1.233,0 1.233,-0.207 1.233,-0.639 l 0,-0.27 0.495,0 0,2.619 -0.495,0 0,-0.486 c 0,-0.396 -0.063,-0.621 -1.71,-0.621 l -0.801,0 0,3.096 c 0,0.234 0.081,0.234 0.288,0.234 1.116,0 1.836,0 2.601,-0.261 0.279,-0.09 0.396,-0.189 0.423,-0.495 0.018,-0.18 0.09,-0.27 0.279,-0.27 0.297,0 0.252,0.414 0.279,0.621 l 0.117,1.053 m -8.712,0 -4.347,0 0,-0.558 0.675,0 c 0.225,0 0.459,0 0.459,-0.891 l 0,-7.164 c 0,-0.153 -0.108,-0.153 -0.783,-0.153 l 0,-0.558 4.347,0 0,0.558 -0.846,0 c -0.36,0 -0.36,1.116 -0.36,1.413 l 0,6.516 c 0.036,0.279 0.081,0.279 0.279,0.279 l 0.576,0 0,0.558 m -9.126,0 -4.725,0 0,-0.558 0.675,0 c 0.216,0 0.45,0 0.45,-0.891 l 0,-7.164 c 0,-0.153 -0.099,-0.153 -0.774,-0.153 l 0,-0.558 4.347,0 0,0.558 -0.855,0 c -0.351,0 -0.351,1.116 -0.351,1.413 l 0,2.214 0.72,0 c 0.459,-1.17 1.44,-3.285 2.088,-3.978 0.189,-0.207 0.333,-0.207 0.909,-0.207 l 2.16,0 0,0.558 c -0.396,0 -0.558,0.153 -0.765,0.369 -0.855,0.909 -1.791,2.439 -2.502,3.744 1.512,0.144 1.917,1.395 1.917,1.836 0,2.817 -2.988,2.817 -3.294,2.817 m -1.233,-4.536 0,3.735 c 0,0.153 0.135,0.153 0.324,0.153 1.098,0 1.836,-1.098 1.836,-2.106 0,-1.134 -0.666,-1.782 -1.773,-1.782 l -0.387,0 m -4.59,4.536 -8.055,0 C 3.15,-3.546 2.943,-4.149 2.943,-4.302 c 0,-0.135 0.108,-0.207 0.243,-0.207 0.171,0 0.243,0.126 0.351,0.36 0.081,0.198 0.333,0.801 2.475,0.801 l 0.252,0 0,-7.929 c 0,-0.153 -0.099,-0.153 -1.323,-0.153 l 0,-0.558 5.247,0 0,0.558 -1.206,0 c -0.351,0 -0.351,1.116 -0.351,1.413 l 0,6.669 0.243,0 c 2.151,0 2.394,-0.603 2.484,-0.801 0.108,-0.234 0.18,-0.36 0.351,-0.36 0.135,0 0.234,0.072 0.234,0.207 0,0.153 -0.198,0.756 -0.468,1.638 m -9.504,0 -7.488,0 0,-0.558 0.675,0 c 0.216,0 0.459,0 0.459,-0.891 l 0,-7.164 c 0,-0.153 -0.108,-0.153 -0.783,-0.153 l 0,-0.558 7.236,0 c 0.135,0.432 0.414,1.368 0.414,1.548 0,0.126 -0.072,0.216 -0.225,0.216 -0.153,0 -0.198,-0.072 -0.261,-0.207 -0.441,-0.846 -2.259,-0.909 -3.636,-0.909 -0.297,0 -0.387,0.279 -0.387,2.259 l 0,1.836 1.278,0 c 1.233,0 1.233,-0.207 1.233,-0.639 l 0,-0.27 0.504,0 0,2.619 -0.504,0 0,-0.486 c 0,-0.396 -0.054,-0.621 -1.701,-0.621 l -0.81,0 0,3.096 c 0,0.234 0.09,0.234 0.297,0.234 1.116,0 1.836,0 2.592,-0.261 0.279,-0.09 0.405,-0.189 0.432,-0.495 0.009,-0.18 0.09,-0.27 0.279,-0.27 0.288,0 0.252,0.414 0.279,0.621 l 0.117,1.053 m -8.64,0 -2.979,0 c -1.062,-2.232 -1.53,-3.186 -2.619,-5.751 l -2.754,5.751 -3.429,0 -2.709,0 0,-0.558 0.72,0 c 0.234,0 0.351,0 0.351,-0.162 0,-0.324 -0.567,-1.287 -1.791,-3.708 -1.35,2.709 -1.872,3.627 -1.872,3.78 0,0.09 0.045,0.09 0.234,0.09 l 0.603,0 0,0.558 -4.419,0 0,-0.558 0.324,0 c 0.45,0 0.558,-0.027 1.26,-1.377 l 1.8,-3.483 0,-3.195 c 0,-0.153 -0.099,-0.153 -0.819,-0.153 l 0,-0.558 4.329,0 0,0.558 -0.792,0 c -0.351,0 -0.351,1.116 -0.351,1.413 l 0,2.115 2.421,4.473 c 0.108,0.18 0.135,0.207 0.459,0.207 l 0.252,0 c 0.801,0 1.296,-0.072 1.296,-1.359 l 0,-6.696 c 0,-0.153 -0.18,-0.153 -0.306,-0.153 l -0.531,0 0,-0.558 2.727,0 0,0.558 -0.711,0 c -0.342,0 -0.441,0.36 -0.441,0.954 l 0,5.499 0.027,0 3.051,-6.651 c 0.027,-0.081 0.072,-0.18 0.18,-0.18 0.144,0 0.189,0.189 0.243,0.306 l 3.042,6.84 0.045,0 0,-6.615 c 0,-0.153 -0.099,-0.153 -0.837,-0.153 l 0,-0.558 4.347,0 0,0.558 -0.792,0 c -0.351,0 -0.351,1.116 -0.351,1.413 l 0,6.516 c 0.027,0.279 0.072,0.279 0.279,0.279 l 0.513,0 0,0.558"
             style="fill:#231f20;fill-opacity:1;fill-rule:nonzero;stroke:none"
             id="path22"
             inkscape:connector-curvature="0" /></g></g></g><g
       id="g24"
       transform="translate(-0.33304975,0)"><g
         id="g26"
         clip-path="url(#clipPath28)"><g
           id="g32"
           transform="translate(104.4641,73.7864)"><path
             d="m 0,0 c -0.369,-0.641 -1.602,-0.858 -1.602,-1.951 0,-1.318 0.465,-2.672 0.525,-4.009 0.112,-2.493 0.227,-5.085 -0.101,-7.564 -0.342,0.749 -0.904,1.363 -1.439,1.978 l -0.226,0 c 0.179,-5.227 0.756,-6.074 -0.851,-11.445 -0.527,0.82 -1.01,1.672 -1.628,2.429 -0.578,-3.532 -1.454,-6.295 -3.106,-9.242 -0.211,0.67 -0.657,2.64 -1.352,2.881 -0.912,-2.487 -3.122,-7.544 -5.272,-8.966 -0.04,0.541 -0.591,2.243 -1.228,3.105 -1.705,-3.138 -3.412,-5.01 -6.211,-7.213 0.046,1.012 0.176,2.104 -0.451,2.98 -2.488,-2.662 -5.032,-5.135 -8.632,-6.119 0.915,0.885 1.94,3.256 1.507,3.865 -3.771,-4.525 -9.663,-6.122 -15.388,-6.122 -0.75,0 -4.136,0.202 -4.585,0.575 -0.764,0.181 -2.417,1.416 -2.417,2.272 0,0.597 6.338,2.86 6.612,3.776 -0.526,-0.062 -6.308,-2.681 -6.762,-3.051 l -8.045,-6.533 0.014,54.512 L 7.037,6.174 0,0 z m -61.624,7.109 0,-56.385 69.601,-0.053 0,56.404 -69.601,0.034 z"
             style="fill:#c02719;fill-opacity:1;fill-rule:nonzero;stroke:none"
             id="path34"
             inkscape:connector-curvature="0" /></g><g
           id="g36"
           transform="translate(99.648,53.5366)"><path
             d="m 0,0 c -0.469,0.802 -1.239,1.244 -1.859,1.892 0.141,-2.919 -0.796,-5.835 -2.341,-8.29 -0.462,1.315 -1.03,1.359 -1.491,2.078 -0.4,-1.764 -3.103,-7.847 -4.72,-8.453 -0.277,0.832 -0.831,1.594 -1.541,2.455 -1.382,-2.258 -3.106,-4.354 -5.234,-5.948 -0.299,0.819 -0.685,2.155 -1.528,2.567 -0.547,-2.5 -4.137,-4.006 -5.723,-5.86 -0.013,1.093 -0.179,3.232 -0.726,4.144 -0.713,-1.322 -2.171,-2.919 -3.694,-3.243 -0.37,1.886 -2.952,3.687 -4.822,2.88 l -0.1,0.639 c 1.655,0.41 3.982,0.816 5.373,-0.451 1.043,0.779 1.928,1.739 2.93,2.567 0.733,-0.849 1.097,-1.931 1.44,-2.98 1.603,0.748 4.029,3.548 4.783,5.147 0.695,-0.595 1.123,-1.591 1.704,-2.304 1.118,0.742 3.738,4.769 4.157,6.086 1.319,-0.919 1.79,-1.621 2.429,-2.655 2.208,1.928 3.474,5.392 3.832,8.24 0.833,-0.251 1.196,-1.053 1.915,-1.794 1.455,1.317 2.723,5.185 2.731,6.89 0.544,-0.18 0.76,-0.482 1.165,-0.851 0.524,0.848 1.099,2.239 1.11,3.245 C 0.464,5.626 0.101,0.876 0,0"
             style="fill:#c02719;fill-opacity:1;fill-rule:nonzero;stroke:none"
             id="path38"
             inkscape:connector-curvature="0" /></g><g
           id="g40"
           transform="translate(93.1436,71.57)"><path
             d="m 0,0 c -1.598,-0.794 -3.484,-0.375 -5.135,-0.989 -0.033,1.81 0.552,1.424 0.902,2.617 C -1.715,4.415 1.681,3.423 0,0 m -9.918,-4.871 c -0.988,-0.771 -2.159,-1.368 -2.88,-2.43 -0.663,0.836 -1.065,1.848 -1.303,2.881 -1.237,0.172 -4.73,-4.058 -5.009,-5.185 -0.647,0.763 -1.047,1.69 -1.577,2.53 -1.889,-1.648 -3.447,-3.763 -4.195,-6.174 -0.945,0.762 -1.744,1.488 -2.618,2.618 -1.746,-2.522 -3.292,-5.152 -3.832,-8.215 -0.712,0.35 -1.287,1.203 -1.736,1.824 -1.406,-1.032 -2.882,-5.422 -2.897,-7.009 -1.843,1.956 -1.616,-1.632 -2.091,-2.897 -0.241,0.031 -0.234,5.343 -0.163,5.79 0.718,-0.803 1.13,-1.118 1.841,-1.49 -0.069,2.89 0.955,5.536 2.34,8.169 0.546,-0.653 0.955,-1.467 1.542,-2.083 0.771,2.242 2.823,6.992 4.508,8.615 0.53,-1.687 1.085,-1.894 1.753,-2.892 1.402,1.325 2.84,5.731 5.234,6.136 0.483,-0.789 0.686,-1.717 1.215,-2.48 0.857,0.905 4.859,5.537 5.723,5.585 0.305,-1.296 0.31,-2.532 0.864,-3.781 0.629,0.94 2.552,2.926 3.644,3.193 0.615,-2.46 2.923,-2.993 5.147,-3.018 -1.645,-0.726 -4.037,-0.876 -5.51,0.313 M 9.241,1.578 C 8.036,4.427 5.003,4.605 2.319,4.605 c -6.311,0 -10.45,-0.962 -15.029,-5.544 -0.103,0.859 0.839,3.066 1.462,3.656 -2.71,0.23 -7.55,-4.572 -8.813,-6.048 -0.331,0.644 -0.538,1.822 -0.489,2.655 -1.56,-1.011 -5.657,-5.524 -6.361,-7.213 -0.626,0.902 -0.823,2.016 -1.077,3.068 -2.933,-2.022 -5.066,-5.742 -5.372,-8.966 -0.886,1.264 -0.969,2.007 -1.353,3.018 -1.524,-2.206 -3.179,-6.379 -3.155,-9.067 l -1.578,2.254 c -1.633,-3.501 -1.463,-7.565 -1.077,-11.307 -0.25,0.321 -1.187,1.815 -1.578,1.753 -0.211,-2.593 -0.461,-9.901 0.501,-12.035 l 0.313,0.088 c 0.175,1.301 1.537,2.185 2.392,3.068 1.304,1.349 2.774,0.652 4.095,1.49 0.927,0.589 2.443,1.449 2.755,2.517 -0.153,0.027 -2.012,0.305 -2.308,0.589 1.039,-0.153 2.231,-0.18 3.279,-0.18 1.573,0 3.02,-0.694 4.538,-0.694 1.346,0 6.147,5.631 7.927,6.684 0.503,0.297 1.108,0.488 1.441,1.002 l -0.364,0.088 c -1.32,-0.652 -2.714,-1.161 -3.969,-1.941 l -0.038,0.05 c 0.574,0.524 1.141,1.065 1.803,1.478 l 0.225,0.413 c -1.102,-0.209 -2.16,-0.63 -3.117,-1.215 l -0.226,0.038 1.278,1.218 -0.013,0.184 c -2.731,-0.381 -5.797,-5.438 -7.614,-3.606 1.519,0.378 2.78,1.114 3.331,2.655 l 0.05,0 -0.137,0.225 c -1.176,-1.339 -3.107,-1.824 -4.822,-1.49 1.646,0.585 3.281,1.376 4.408,2.755 -1.069,-0.225 -2.1,-0.686 -3.151,-0.988 -0.103,-0.03 -0.918,-0.288 -0.944,-0.089 3.406,1.373 6.39,5.011 11.084,5.011 3.063,0 7.032,-2.344 9.566,-2.131 -2.054,1.063 -4.79,1.524 -7.028,2.152 l 1.127,0.669 c -1.869,0.259 -4.272,1.028 -6.008,1.775 2.919,0.091 5.646,-1.848 8.638,-1.848 4.826,0 7.646,3.303 11.649,5.279 0.061,0.259 -0.203,0.221 -0.354,0.221 -1.108,0 -2.037,-0.79 -3.115,-0.947 0.297,0.488 0.868,0.656 1.265,1.039 0.433,0.184 2.661,1.101 2.705,1.49 -2.209,0.588 -2.804,-0.286 -4.646,-0.951 0.791,1.197 2.078,2.063 3.519,2.216 -3.517,1.837 -4.055,-2.04 -6.675,-2.843 -0.44,-0.134 -0.747,-0.512 -1.215,-0.538 l 0,0.088 c 0.331,0.239 1.074,0.865 1.213,1.234 l -0.173,0.256 c -0.957,-0.573 -1.981,-1.052 -3.068,-1.315 0.766,0.859 1.825,1.409 2.517,2.342 -1.53,-0.761 -2.962,-1.766 -4.634,-2.205 1.288,0.702 2.41,1.666 3.557,2.568 1.609,1.265 2.605,3.224 4.195,4.42 0.664,0.5 1.507,0.281 2.254,0.138 1.867,-1.197 5.866,0.397 8.986,-1.793 l 0.068,0.165 c -1.348,0.895 -2.871,1.648 -4.508,1.766 0.364,0.593 0.804,1.203 1.49,1.44 0.908,1.318 2.573,0.728 3.794,1.44 1.686,0.983 3.465,2.411 3.381,4.558 -0.6,0.013 -4.799,-2.302 -5.822,-2.705 l -0.264,0 c 1.996,1.162 3.944,2.478 6.174,3.156 l 0.037,0.263 z"
             style="fill:#c02719;fill-opacity:1;fill-rule:nonzero;stroke:none"
             id="path42"
             inkscape:connector-curvature="0" /></g><g
           id="g44"
           transform="translate(61.0756,30.9581)"><path
             d="M 0,0 C 0.077,0.479 0.021,1.216 0.308,1.616 1.066,1.791 1.831,2 2.615,2 2.235,0.765 1.198,0.239 0,0 M 5.019,3.107 C 3.225,2.632 1.26,2.847 -0.428,1.98 -1.599,-0.926 1.144,-3.025 3.128,-1.088 4.082,-1.149 6.088,2.507 5.019,3.107"
             style="fill:#c02719;fill-opacity:1;fill-rule:nonzero;stroke:none"
             id="path46"
             inkscape:connector-curvature="0" /></g><g
           id="g48"
           transform="translate(93.027,73.3248)"><path
             d="m 0,0 c 0.027,-0.435 -0.217,-0.817 -0.203,-1.216 -0.21,-0.687 -0.489,-0.431 -1.074,-0.626 -0.573,0.066 -1.14,-0.132 -1.715,-0.088 0.242,1.005 1.235,1.494 2.116,1.841 C -0.579,-0.109 -0.293,-0.036 0,0"
             style="fill:#c02719;fill-opacity:1;fill-rule:nonzero;stroke:none"
             id="path50"
             inkscape:connector-curvature="0" /></g></g></g></g></svg>