<?xml version="1.0" encoding="UTF-8" standalone="no"?>
<svg
   version="1.1"
   viewBox="0.00 0.00 1040.00 248.00"
   id="svg1142"
   sodipodi:docname="Logo_de_l'université_Toulouse_-_Jean_Jaurès.svg"
   inkscape:version="1.2.2 (b0a8486541, 2022-12-01)"
   xmlns:inkscape="http://www.inkscape.org/namespaces/inkscape"
   xmlns:sodipodi="http://sodipodi.sourceforge.net/DTD/sodipodi-0.dtd"
   xmlns:xlink="http://www.w3.org/1999/xlink"
   xmlns="http://www.w3.org/2000/svg"
   xmlns:svg="http://www.w3.org/2000/svg">
  <defs
     id="defs1146">
    <linearGradient
       inkscape:collect="always"
       id="linearGradient4034">
      <stop
         style="stop-color:#f8b700;stop-opacity:1;"
         offset="0"
         id="stop4030" />
      <stop
         style="stop-color:#cc071e;stop-opacity:1;"
         offset="1"
         id="stop4032" />
    </linearGradient>
    <linearGradient
       inkscape:collect="always"
       id="linearGradient4026">
      <stop
         style="stop-color:#61aad9;stop-opacity:1;"
         offset="0"
         id="stop4022" />
      <stop
         style="stop-color:#33529c;stop-opacity:1;"
         offset="1"
         id="stop4024" />
    </linearGradient>
    <linearGradient
       inkscape:collect="always"
       id="linearGradient4018">
      <stop
         style="stop-color:#c44c83;stop-opacity:1;"
         offset="0"
         id="stop4014" />
      <stop
         style="stop-color:#c479ad;stop-opacity:1;"
         offset="1"
         id="stop4016" />
    </linearGradient>
    <linearGradient
       inkscape:collect="always"
       id="linearGradient4010">
      <stop
         style="stop-color:#673b81;stop-opacity:1;"
         offset="0"
         id="stop4006" />
      <stop
         style="stop-color:#8cac46;stop-opacity:1;"
         offset="1"
         id="stop4008" />
    </linearGradient>
    <radialGradient
       inkscape:collect="always"
       xlink:href="#linearGradient4010"
       id="radialGradient4012"
       cx="147.80731"
       cy="83.146576"
       fx="147.80731"
       fy="83.146576"
       r="77.131902"
       gradientTransform="matrix(1.4671645,0,0,1.4475287,-65.473833,-33.580677)"
       gradientUnits="userSpaceOnUse" />
    <radialGradient
       inkscape:collect="always"
       xlink:href="#linearGradient4018"
       id="radialGradient4020"
       cx="101.29026"
       cy="134.47729"
       fx="101.29026"
       fy="134.47729"
       r="42.343131"
       gradientTransform="matrix(1.2774299,0,0,1.566843,-28.817168,-66.313379)"
       gradientUnits="userSpaceOnUse" />
    <radialGradient
       inkscape:collect="always"
       xlink:href="#linearGradient4026"
       id="radialGradient4028"
       cx="12.782652"
       cy="72.784966"
       fx="12.782652"
       fy="72.784966"
       r="77.98545"
       gradientTransform="matrix(2.4616074,0,0,2.8239381,-19.121441,-129.37639)"
       gradientUnits="userSpaceOnUse" />
    <radialGradient
       inkscape:collect="always"
       xlink:href="#linearGradient4034"
       id="radialGradient4036"
       cx="54.646572"
       cy="142.11606"
       fx="54.646572"
       fy="142.11606"
       r="80.129416"
       gradientTransform="matrix(1.6299452,0,0,1.9541887,-17.686138,-84.693327)"
       gradientUnits="userSpaceOnUse" />
  </defs>
  <sodipodi:namedview
     id="namedview1144"
     pagecolor="#ffffff"
     bordercolor="#000000"
     borderopacity="0.25"
     inkscape:showpageshadow="2"
     inkscape:pageopacity="0.0"
     inkscape:pagecheckerboard="0"
     inkscape:deskcolor="#d1d1d1"
     showgrid="false"
     inkscape:zoom="2.6915677"
     inkscape:cx="46.998631"
     inkscape:cy="104.21436"
     inkscape:window-width="1850"
     inkscape:window-height="1136"
     inkscape:window-x="0"
     inkscape:window-y="0"
     inkscape:window-maximized="1"
     inkscape:current-layer="svg1142" />
  <path
     id="path1038"
     d="M 123.65039,152.19922 C 139.55917,88.625292 204.46131,46.047946 272.45019,66.384765 L 259.75977,0 C 142.02392,8.1661154 102.43195,99.618652 123.65039,152.19922 Z"
     style="opacity:1;fill:url(#radialGradient4012);fill-opacity:1"
     sodipodi:nodetypes="cccc" />
  <path
     id="path1052"
     d="m 141.89062,199.82031 c 2.81334,0.46667 6.0397,0.3031 9.67969,-0.49023 2.06,-0.12667 4.08365,-0.62977 6.07031,-1.50977 -47.00437,-30.73019 -46.67789,-95.31282 0.87891,-122.589841 0.29843,-0.158149 0.26842,-0.595077 -0.0488,-0.710938 C 134.75439,65.605061 86.889664,47.834961 86.889664,47.834961 58.865429,96.763792 76.45596,179.99852 141.89062,199.82031 Z"
     style="opacity:1;fill:url(#radialGradient4020);fill-opacity:1"
     sodipodi:nodetypes="ccccccc" />
  <path
     id="path1054"
     d="M 0,61.990234 C 9.38277,183.41092 87.192404,204.06665 155.9709,202.47134 93.338464,195.8483 43.864499,104.49506 66.500919,49.155644 c 0,0 -44.362201,8.56026 -66.500919,12.83459 z"
     style="opacity:1;fill:url(#radialGradient4028);fill-opacity:1"
     sodipodi:nodetypes="cccc" />
  <path
     fill="#000000"
     d="   M 608.75 85.02   L 602.44 92.06   A 0.61 0.61 0.0 0 1 601.99 92.26   L 598.27 92.25   A 0.61 0.61 0.0 0 1 597.78 91.28   L 603.07 84.24   A 0.61 0.61 0.0 0 1 603.55 84.00   L 608.29 84.00   A 0.61 0.61 0.0 0 1 608.75 85.02   Z"
     id="path1060" />
  <path
     fill="#000000"
     d="   M 485.64 102.62   C 481.10 106.33 484.15 110.62 488.81 111.83   C 496.36 113.80 504.78 114.09 511.82 117.14   C 519.24 120.36 519.41 130.17 512.97 134.42   Q 510.65 135.95 507.51 136.79   C 497.36 139.48 483.46 138.35 476.99 128.89   A 0.61 0.61 0.0 0 1 477.27 127.98   L 480.53 126.69   Q 481.20 126.43 481.62 127.01   C 487.13 134.53 499.78 135.23 507.76 132.24   C 512.06 130.64 514.49 125.54 510.56 121.91   Q 508.39 119.91 503.25 118.98   C 496.66 117.79 489.30 117.25 483.30 114.42   C 477.64 111.75 476.93 104.36 481.08 100.08   C 486.17 94.83 497.61 94.40 504.26 95.41   Q 511.80 96.57 516.37 102.50   Q 516.53 102.70 516.30 102.82   L 512.50 104.76   A 0.37 0.36 57.5 0 1 512.04 104.65   C 506.82 97.75 491.98 97.42 485.64 102.62   Z"
     id="path1062" />
  <path
     fill="#000000"
     d="   M 747.94 124.00   C 741.26 141.96 709.24 142.97 701.01 126.00   C 697.12 117.99 698.26 108.22 704.54 101.85   C 712.15 94.15 725.88 93.46 735.56 96.90   C 746.61 100.83 751.97 113.15 747.94 124.00   Z   M 744.14 114.07   C 741.35 94.93 710.19 93.95 704.39 111.34   Q 702.44 117.19 705.07 122.95   C 713.29 141.00 747.34 135.93 744.14 114.07   Z"
     id="path1064" />
  <path
     fill="#000000"
     d="   M 884.63 133.44   C 871.88 141.83 848.62 139.22 843.94 122.51   C 840.93 111.80 845.83 101.42 856.08 97.10   C 866.39 92.75 882.82 94.40 889.85 104.54   C 896.27 113.79 894.26 127.10 884.63 133.44   Z   M 874.25 99.67   C 862.16 97.07 846.84 103.04 848.07 117.22   C 849.23 130.69 861.88 135.63 873.69 133.36   C 893.15 129.61 893.72 103.86 874.25 99.67   Z"
     id="path1066" />
  <path
     fill="#000000"
     d="   M 983.15 131.38   C 987.64 128.79 987.53 123.29 982.73 121.06   C 976.52 118.16 969.65 117.91 963.01 116.44   C 957.05 115.12 950.45 111.55 952.53 104.22   C 955.39 94.13 972.91 94.08 980.50 95.97   Q 986.27 97.40 990.09 102.37   A 0.37 0.36 58.8 0 1 989.96 102.92   L 986.42 104.66   Q 986.02 104.86 985.76 104.50   C 981.30 98.52 971.88 98.55 965.30 99.87   C 962.11 100.51 958.55 102.14 957.52 105.35   C 955.91 110.41 962.75 112.23 967.01 112.90   Q 976.37 114.37 981.25 115.53   C 988.20 117.17 994.02 122.68 990.51 130.15   C 988.53 134.36 984.64 136.00 980.26 137.04   C 970.39 139.36 957.35 138.07 950.94 129.12   Q 950.39 128.35 951.26 127.98   L 954.27 126.67   Q 955.15 126.29 955.63 127.12   C 960.08 134.89 976.25 135.35 983.15 131.38   Z"
     id="path1068" />
  <path
     fill="#000000"
     d="   M 231.84 132.38   C 241.28 136.18 253.46 132.21 253.35 120.25   Q 253.24 107.89 253.25 95.77   Q 253.25 95.50 253.52 95.50   L 257.98 95.50   Q 258.25 95.50 258.25 95.77   Q 258.25 107.89 258.15 120.25   Q 258.04 133.73 246.01 137.01   C 237.07 139.45 224.34 137.16 220.63 127.57   Q 219.55 124.79 219.52 118.30   Q 219.46 107.11 219.52 96.22   Q 219.52 95.49 220.25 95.49   L 223.73 95.48   Q 224.45 95.48 224.45 96.20   Q 224.53 107.24 224.50 118.07   C 224.48 124.85 225.49 129.81 231.84 132.38   Z"
     id="path1070" />
  <path
     fill="#000000"
     d="   M 276.25 105.50   L 276.25 137.00   A 0.26 0.25 -90.0 0 1 276.00 137.26   L 271.50 137.24   A 0.25 0.24 0.0 0 1 271.25 137.00   L 271.25 96.02   Q 271.25 95.61 271.65 95.54   C 272.87 95.34 273.63 95.30 274.55 96.24   Q 289.93 111.95 305.13 127.51   Q 305.75 128.14 305.75 127.25   L 305.75 95.75   A 0.25 0.25 0.0 0 1 306.00 95.50   L 310.50 95.50   A 0.25 0.25 0.0 0 1 310.75 95.75   L 310.75 136.73   Q 310.75 137.10 310.38 137.18   C 309.04 137.49 308.23 137.37 307.24 136.36   Q 292.15 120.87 276.72 105.31   A 0.27 0.27 0.0 0 0 276.25 105.50   Z"
     id="path1072" />
  <rect
     fill="#000000"
     x="324.50"
     y="95.49"
     width="5.00"
     height="41.76"
     rx="0.34"
     id="rect1074" />
  <path
     fill="#000000"
     d="   M 375.81 95.51   L 380.61 95.48   A 0.34 0.34 0.0 0 1 380.92 95.97   L 360.51 137.31   A 0.34 0.34 0.0 0 1 360.21 137.50   L 355.71 137.50   A 0.34 0.34 0.0 0 1 355.41 137.31   L 335.01 95.97   A 0.34 0.34 0.0 0 1 335.32 95.47   L 340.10 95.52   A 0.34 0.34 0.0 0 1 340.40 95.71   L 357.66 131.10   A 0.34 0.34 0.0 0 0 358.28 131.10   L 375.51 95.70   A 0.34 0.34 0.0 0 1 375.81 95.51   Z"
     id="path1076" />
  <path
     fill="#000000"
     d="   M 390.75 118.86   L 390.75 132.64   A 0.36 0.36 0.0 0 0 391.11 133.00   L 421.14 133.00   A 0.36 0.36 0.0 0 1 421.50 133.36   L 421.50 136.89   A 0.36 0.36 0.0 0 1 421.14 137.25   L 386.36 137.25   A 0.36 0.36 0.0 0 1 386.00 136.89   L 386.00 95.86   A 0.36 0.36 0.0 0 1 386.36 95.50   L 420.39 95.50   A 0.36 0.36 0.0 0 1 420.75 95.86   L 420.75 99.39   A 0.36 0.36 0.0 0 1 420.39 99.75   L 391.11 99.75   A 0.36 0.36 0.0 0 0 390.75 100.11   L 390.75 113.89   A 0.36 0.36 0.0 0 0 391.11 114.25   L 419.14 114.25   A 0.36 0.36 0.0 0 1 419.50 114.61   L 419.50 118.14   A 0.36 0.36 0.0 0 1 419.14 118.50   L 391.11 118.50   A 0.36 0.36 0.0 0 0 390.75 118.86   Z"
     id="path1078" />
  <path
     fill="#000000"
     d="   M 457.81 121.71   Q 456.76 121.76 457.54 122.46   L 473.60 136.92   A 0.19 0.18 -23.6 0 1 473.47 137.24   L 467.27 137.25   Q 466.97 137.25 466.75 137.05   L 450.63 122.35   Q 450.25 122.00 449.73 122.00   L 438.50 122.00   Q 438.00 122.00 438.00 122.50   L 438.00 137.00   A 0.25 0.25 0.0 0 1 437.75 137.25   L 433.00 137.25   A 0.25 0.25 0.0 0 1 432.75 137.00   L 432.75 96.01   Q 432.75 95.53 433.23 95.53   Q 443.05 95.44 452.74 95.52   C 461.29 95.59 470.80 97.81 471.55 108.28   C 472.13 116.33 465.31 121.33 457.81 121.71   Z   M 437.98 100.37   L 438.00 117.21   A 0.61 0.61 0.0 0 0 438.62 117.82   L 455.91 117.79   A 10.36 8.84 -0.1 0 0 466.25 108.94   L 466.25 108.56   A 10.36 8.84 -0.1 0 0 455.87 99.73   L 438.58 99.76   A 0.61 0.61 0.0 0 0 437.98 100.37   Z"
     id="path1080" />
  <rect
     fill="#000000"
     x="524.25"
     y="95.51"
     width="5.00"
     height="41.74"
     rx="0.30"
     id="rect1082" />
  <path
     fill="#000000"
     d="   M 588.25 100.11   L 588.25 113.89   A 0.36 0.36 0.0 0 0 588.61 114.25   L 616.39 114.25   A 0.36 0.36 0.0 0 1 616.75 114.61   L 616.74 118.14   A 0.36 0.36 0.0 0 1 616.38 118.50   L 588.61 118.50   A 0.36 0.36 0.0 0 0 588.25 118.86   L 588.24 132.64   A 0.36 0.36 0.0 0 0 588.60 133.00   L 618.64 133.00   A 0.36 0.36 0.0 0 1 619.00 133.36   L 618.99 136.89   A 0.36 0.36 0.0 0 1 618.63 137.25   L 583.61 137.25   A 0.36 0.36 0.0 0 1 583.25 136.89   L 583.25 95.86   A 0.36 0.36 0.0 0 1 583.61 95.50   L 617.89 95.50   A 0.36 0.36 0.0 0 1 618.25 95.86   L 618.25 99.39   A 0.36 0.36 0.0 0 1 617.89 99.75   L 588.61 99.75   A 0.36 0.36 0.0 0 0 588.25 100.11   Z"
     id="path1084" />
  <path
     fill="#000000"
     d="   M 796.65 128.04   C 790.75 141.16 767.06 141.40 760.98 128.43   Q 759.50 125.28 759.50 117.83   Q 759.50 106.86 759.50 96.20   Q 759.50 95.49 760.21 95.48   L 763.55 95.46   Q 764.47 95.46 764.48 96.38   Q 764.52 107.44 764.50 118.69   Q 764.49 124.51 765.86 127.09   C 771.11 136.98 789.44 135.83 792.69 124.66   Q 793.23 122.80 793.25 114.29   Q 793.26 104.95 793.25 95.78   Q 793.24 95.51 793.52 95.50   L 797.73 95.50   A 0.26 0.26 0.0 0 1 797.99 95.76   Q 798.01 107.43 798.00 119.24   Q 798.00 125.04 796.65 128.04   Z"
     id="path1086" />
  <path
     fill="#000000"
     d="   M 815.09 133.25   L 841.90 133.25   A 0.34 0.34 0.0 0 1 842.24 133.59   L 842.25 136.91   A 0.34 0.34 0.0 0 1 841.91 137.25   L 810.09 137.25   A 0.34 0.34 0.0 0 1 809.75 136.91   L 809.75 95.84   A 0.34 0.34 0.0 0 1 810.09 95.50   L 814.41 95.50   A 0.34 0.34 0.0 0 1 814.75 95.84   L 814.75 132.91   A 0.34 0.34 0.0 0 0 815.09 133.25   Z"
     id="path1088" />
  <path
     fill="#000000"
     d="   M 908.74 122.00   C 908.70 137.40 937.36 138.07 937.43 121.50   Q 937.49 108.51 937.51 95.80   Q 937.51 95.51 937.80 95.51   L 942.21 95.50   Q 942.51 95.50 942.51 95.80   Q 942.49 105.30 942.51 114.97   Q 942.52 124.24 941.01 127.82   C 935.36 141.17 911.38 141.53 905.27 128.27   Q 903.76 124.99 903.75 117.01   Q 903.75 106.31 903.75 95.77   Q 903.75 95.50 904.02 95.50   L 908.47 95.50   Q 908.74 95.50 908.74 95.77   Q 908.77 108.77 908.74 122.00   Z"
     id="path1090" />
  <path
     fill="#000000"
     d="   M 1005.75 118.81   L 1005.75 132.69   A 0.31 0.31 0.0 0 0 1006.06 133.00   L 1036.19 133.00   A 0.31 0.31 0.0 0 1 1036.50 133.31   L 1036.50 136.94   A 0.31 0.31 0.0 0 1 1036.19 137.25   L 1001.06 137.25   A 0.31 0.31 0.0 0 1 1000.75 136.94   L 1000.75 95.81   A 0.31 0.31 0.0 0 1 1001.06 95.50   L 1035.44 95.50   A 0.31 0.31 0.0 0 1 1035.75 95.81   L 1035.74 99.44   A 0.31 0.31 0.0 0 1 1035.43 99.75   L 1006.06 99.75   A 0.31 0.31 0.0 0 0 1005.75 100.06   L 1005.75 113.94   A 0.31 0.31 0.0 0 0 1006.06 114.25   L 1033.93 114.25   A 0.31 0.31 0.0 0 1 1034.24 114.56   L 1034.25 118.19   A 0.31 0.31 0.0 0 1 1033.94 118.50   L 1006.06 118.50   A 0.31 0.31 0.0 0 0 1005.75 118.81   Z"
     id="path1092" />
  <path
     fill="#000000"
     d="   M 559.75 100.09   L 559.75 136.91   A 0.34 0.34 0.0 0 1 559.41 137.25   L 555.09 137.25   A 0.34 0.34 0.0 0 1 554.75 136.91   L 554.75 100.09   A 0.34 0.34 0.0 0 0 554.41 99.75   L 537.59 99.75   A 0.34 0.34 0.0 0 1 537.25 99.41   L 537.25 96.09   A 0.34 0.34 0.0 0 1 537.59 95.75   L 577.16 95.75   A 0.34 0.34 0.0 0 1 577.50 96.09   L 577.50 99.41   A 0.34 0.34 0.0 0 1 577.16 99.75   L 560.09 99.75   A 0.34 0.34 0.0 0 0 559.75 100.09   Z"
     id="path1094" />
  <path
     fill="#000000"
     d="   M 677.66 99.75   L 660.84 99.75   A 0.34 0.34 0.0 0 1 660.50 99.41   L 660.50 96.09   A 0.34 0.34 0.0 0 1 660.84 95.75   L 700.41 95.75   A 0.34 0.34 0.0 0 1 700.75 96.09   L 700.74 99.41   A 0.34 0.34 0.0 0 1 700.40 99.75   L 683.34 99.75   A 0.34 0.34 0.0 0 0 683.00 100.09   L 683.00 136.91   A 0.34 0.34 0.0 0 1 682.66 137.25   L 678.34 137.25   A 0.34 0.34 0.0 0 1 678.00 136.91   L 678.00 100.09   A 0.34 0.34 0.0 0 0 677.66 99.75   Z"
     id="path1096" />
  <path
     id="path1104"
     d="m 78.290039,162.97558 c -9.572112,23.77193 -18.386002,47.64743 -27.125977,71.7793 96.199138,47.59709 165.090258,-40.23845 159.826268,-99.81487 -11.31064,71.0246 -96.23127,86.07612 -132.700291,28.03557 z"
     style="opacity:1;fill:url(#radialGradient4036);fill-opacity:1"
     sodipodi:nodetypes="cccc" />
  <path
     fill="#000000"
     d="   M 265.86 248.00   L 247.05 248.00   C 229.70 244.90 215.78 233.21 215.95 214.58   Q 215.96 214.25 216.28 214.25   L 224.20 214.25   Q 224.51 214.25 224.50 214.56   C 223.51 246.06 277.85 250.79 286.80 223.35   Q 287.95 219.82 287.98 212.52   Q 288.04 191.11 287.98 169.95   A 0.95 0.95 0.0 0 0 287.03 169.00   L 250.00 169.00   Q 249.49 169.00 249.49 168.50   L 249.50 162.50   A 0.50 0.50 0.0 0 1 250.00 162.00   L 296.50 162.00   A 0.52 0.52 0.0 0 1 297.02 162.52   Q 297.01 189.12 296.86 215.75   Q 296.79 228.13 289.43 235.94   C 282.55 243.24 275.38 245.69 265.86 248.00   Z"
     id="path1108" />
  <path
     fill="#000000"
     d="   M 641.81 248.00   L 622.92 248.00   Q 619.92 247.26 617.03 246.47   C 602.15 242.36 591.52 230.24 591.78 214.50   Q 591.79 214.26 592.03 214.26   L 599.78 214.25   Q 600.10 214.24 600.12 214.57   C 601.69 240.22 631.67 246.85 650.73 237.22   Q 659.66 232.70 662.59 223.66   Q 663.99 219.34 664.00 206.70   Q 664.01 188.14 664.00 169.74   A 0.75 0.75 0.0 0 0 663.25 169.00   L 625.50 169.00   A 0.25 0.25 0.0 0 1 625.25 168.75   L 625.25 162.25   A 0.25 0.25 0.0 0 1 625.50 162.00   L 672.50 162.00   Q 672.74 162.00 672.74 162.24   Q 672.78 187.40 672.73 212.54   Q 672.72 220.97 671.33 225.30   C 667.18 238.30 655.00 245.69 641.81 248.00   Z"
     id="path1110" />
  <path
     fill="#000000"
     d="   M 935.44 162.29   L 946.45 176.83   A 0.73 0.73 0.0 0 1 945.87 178.00   L 938.60 178.00   A 0.73 0.73 0.0 0 1 938.05 177.76   L 924.98 163.22   A 0.73 0.73 0.0 0 1 925.52 162.00   L 934.86 162.00   A 0.73 0.73 0.0 0 1 935.44 162.29   Z"
     id="path1112" />
  <path
     fill="#000000"
     d="   M 348.94 248.00   L 338.73 248.00   C 294.45 242.73 297.79 188.41 340.74 185.91   C 362.37 184.65 382.63 195.05 379.67 220.11   A 0.44 0.43 2.9 0 1 379.23 220.50   L 316.01 220.50   A 0.44 0.44 0.0 0 0 315.58 221.03   C 320.97 245.29 354.22 245.63 369.44 232.07   Q 369.62 231.91 369.81 232.04   L 375.43 235.80   Q 375.65 235.94 375.47 236.13   C 368.84 243.35 358.69 246.98 348.94 248.00   Z   M 336.28 193.35   C 325.33 195.85 317.71 202.34 315.59 213.50   A 0.42 0.42 0.0 0 0 316.00 214.00   L 371.51 214.00   Q 372.13 214.00 372.07 213.38   C 370.33 195.18 351.31 189.91 336.28 193.35   Z"
     id="path1120" />
  <path
     fill="#000000"
     d="   M 488.91 195.18   Q 495.12 188.77 503.49 186.82   C 518.88 183.24 539.07 187.34 544.71 204.07   Q 546.02 207.97 546.01 215.05   Q 545.98 231.15 546.01 246.95   Q 546.01 247.25 545.70 247.25   L 538.05 247.25   Q 537.75 247.25 537.75 246.95   Q 537.74 230.54 537.75 213.76   Q 537.76 198.13 523.00 193.99   C 507.53 189.66 488.52 196.18 488.50 214.74   Q 488.49 231.05 488.50 246.98   A 0.27 0.27 0.0 0 1 488.23 247.25   L 480.50 247.25   A 0.25 0.25 0.0 0 1 480.25 247.00   L 480.25 187.00   A 0.25 0.25 0.0 0 1 480.50 186.75   L 488.25 186.75   Q 488.50 186.75 488.50 187.00   L 488.49 195.01   Q 488.49 195.60 488.91 195.18   Z"
     id="path1122" />
  <path
     fill="#000000"
     d="   M 942.68 248.00   L 932.74 248.00   C 913.41 246.11 897.78 232.28 901.31 211.50   C 904.96 190.02 931.05 182.41 949.56 186.99   C 966.16 191.09 975.86 202.30 973.45 220.08   Q 973.39 220.50 972.97 220.50   L 910.01 220.50   Q 909.52 220.50 909.60 220.98   C 913.37 244.53 949.17 246.03 962.81 232.34   A 0.92 0.92 0.0 0 1 963.98 232.23   L 968.92 235.53   A 0.61 0.61 0.0 0 1 969.02 236.46   C 962.13 243.52 952.45 247.03 942.68 248.00   Z   M 965.90 213.59   C 964.75 196.34 948.54 191.43 933.74 192.72   C 921.91 193.75 911.49 201.28 909.57 213.50   Q 909.50 214.00 910.01 214.00   L 965.52 214.00   A 0.38 0.38 0.0 0 0 965.90 213.59   Z"
     id="path1124" />
  <path
     fill="#000000"
     d="   M 1016.67 248.00   L 1003.02 248.00   C 993.04 246.24 985.09 243.91 978.12 236.23   Q 977.60 235.65 978.22 235.19   L 983.38 231.39   Q 983.96 230.96 984.45 231.50   C 993.88 241.97 1011.71 243.31 1024.18 239.20   C 1031.69 236.72 1035.16 227.34 1026.29 223.40   C 1018.59 219.97 1008.23 219.53 999.76 218.16   C 991.34 216.79 980.85 213.38 980.67 203.15   C 980.37 185.41 1007.59 184.69 1019.01 186.45   Q 1028.84 187.97 1036.67 193.86   A 0.57 0.57 0.0 0 1 1036.71 194.74   L 1032.37 198.64   Q 1031.85 199.10 1031.29 198.68   C 1023.31 192.65 1012.22 191.72 1002.50 192.93   C 997.26 193.58 986.58 197.14 989.11 204.52   C 990.65 209.00 997.10 210.74 1001.27 211.44   Q 1012.11 213.27 1022.93 215.21   C 1030.04 216.50 1038.27 219.91 1039.57 227.61   C 1041.92 241.60 1028.15 246.85 1016.67 248.00   Z"
     id="path1126" />
  <path
     fill="#000000"
     d="   M 431.14 248.00   L 419.49 248.00   Q 405.69 246.10 396.80 237.23   C 386.99 227.43 385.83 209.97 394.66 199.43   C 408.47 182.95 436.98 181.01 452.38 196.35   Q 452.97 196.94 453.04 197.08   Q 454.00 198.98 454.00 196.75   L 454.00 187.00   Q 454.00 186.75 454.25 186.75   L 462.00 186.75   A 0.25 0.25 0.0 0 1 462.25 187.00   L 462.25 247.00   A 0.25 0.25 0.0 0 1 462.00 247.25   L 454.25 247.25   Q 454.00 247.25 454.00 247.00   L 454.00 236.98   Q 454.00 236.03 453.35 236.73   Q 444.64 246.17 431.14 248.00   Z   M 454.79 217.06   A 28.99 24.34 0.0 0 0 425.80 192.72   A 28.99 24.34 0.0 0 0 396.81 217.06   A 28.99 24.34 0.0 0 0 425.80 241.40   A 28.99 24.34 0.0 0 0 454.79 217.06   Z"
     id="path1128" />
  <path
     fill="#000000"
     d="   M 728.13 248.00   L 716.43 248.00   C 701.32 245.28 688.03 237.03 685.74 220.78   Q 684.56 212.42 688.34 204.58   C 695.63 189.43 714.87 183.95 730.52 186.66   C 737.69 187.91 745.80 191.63 750.28 197.49   Q 750.99 198.42 751.00 197.24   L 751.00 187.00   Q 751.00 186.75 751.25 186.75   L 759.00 186.75   A 0.25 0.25 0.0 0 1 759.25 187.00   L 759.25 247.00   A 0.25 0.25 0.0 0 1 759.00 247.25   L 751.25 247.25   Q 751.00 247.25 751.00 247.00   L 751.00 236.75   Q 751.00 235.72 750.34 236.52   C 745.03 243.01 736.35 246.82 728.13 248.00   Z   M 694.03 214.75   C 691.23 244.81 739.49 250.49 749.74 225.51   Q 753.07 217.42 750.45 210.03   C 741.71 185.32 696.55 187.71 694.03 214.75   Z"
     id="path1130" />
  <path
     fill="#000000"
     d="   M 865.07 195.09   C 874.84 184.96 891.36 183.63 903.56 189.64   A 0.62 0.62 0.0 0 1 903.81 190.53   L 900.74 195.30   Q 900.35 195.90 899.69 195.61   Q 884.94 189.02 872.32 198.04   C 866.15 202.45 864.99 208.38 864.99 216.27   Q 865.01 231.75 864.99 247.00   Q 864.99 247.25 864.74 247.25   L 857.00 247.25   A 0.25 0.25 0.0 0 1 856.75 247.00   L 856.75 187.00   A 0.25 0.25 0.0 0 1 857.00 186.75   L 864.30 186.75   Q 864.60 186.75 864.61 187.05   L 864.80 194.99   Q 864.81 195.35 865.07 195.09   Z"
     id="path1132" />
  <path
     fill="#000000"
     d="   M 811.40 248.00   L 800.04 248.00   C 785.28 245.95 773.58 237.29 773.53 221.25   Q 773.48 203.82 773.51 186.77   A 0.26 0.26 0.0 0 1 773.77 186.51   L 781.70 186.50   Q 781.99 186.50 781.99 186.80   Q 782.01 203.84 781.99 221.25   C 781.98 236.11 794.34 241.31 807.18 241.22   C 816.66 241.15 827.25 235.75 830.11 226.18   Q 831.01 223.15 831.00 216.23   Q 830.99 201.38 831.01 186.77   A 0.27 0.26 90.0 0 1 831.27 186.50   L 839.00 186.50   A 0.25 0.25 0.0 0 1 839.25 186.75   L 839.25 247.00   A 0.25 0.25 0.0 0 1 839.00 247.25   L 831.50 247.25   Q 831.25 247.25 831.25 247.00   L 831.25 238.76   Q 831.25 238.17 830.84 238.60   Q 822.97 246.63 811.40 248.00   Z"
     id="path1134" />
</svg>
